<svg width="64" height="64" viewBox="0 0 64 64" fill="none" xmlns="http://www.w3.org/2000/svg" xmlns:xlink="http://www.w3.org/1999/xlink">
<path d="M54,7.333L54,6.333L54,7.333ZM10,7.333L10,6.333L10,7.333ZM7.333,10L6.333,10L7.333,10ZM7.333,54L6.333,54L7.333,54ZM38.126,29.966C38.459,29.525 38.371,28.898 37.931,28.566C37.49,28.233 36.863,28.32 36.53,28.761L38.126,29.966ZM31.683,35.183C31.351,35.623 31.438,36.25 31.879,36.583C32.32,36.916 32.947,36.828 33.28,36.387L31.683,35.183ZM36.53,36.387C36.863,36.828 37.49,36.916 37.931,36.583C38.371,36.25 38.459,35.623 38.126,35.183L36.53,36.387ZM33.28,28.761C32.947,28.32 32.32,28.233 31.879,28.566C31.438,28.898 31.351,29.525 31.683,29.966L33.28,28.761ZM54,6.333L10,6.333L10,8.333L54,8.333L54,6.333ZM10,6.333C9.028,6.333 8.095,6.719 7.407,7.407L8.822,8.821C9.134,8.509 9.558,8.333 10,8.333L10,6.333ZM7.407,7.407C6.72,8.095 6.333,9.027 6.333,10L8.333,10C8.333,9.558 8.509,9.134 8.822,8.821L7.407,7.407ZM6.333,10L6.333,54L8.333,54L8.333,10L6.333,10ZM6.333,54C6.333,54.972 6.72,55.905 7.407,56.592L8.822,55.178C8.509,54.866 8.333,54.442 8.333,54L6.333,54ZM7.407,56.592C8.095,57.28 9.028,57.666 10,57.666L10,55.666C9.558,55.666 9.134,55.491 8.822,55.178L7.407,56.592ZM10,57.666L54,57.666L54,55.666L10,55.666L10,57.666ZM54,57.666C54.973,57.666 55.905,57.28 56.593,56.592L55.179,55.178C54.866,55.491 54.442,55.666 54,55.666L54,57.666ZM56.593,56.592C57.28,55.905 57.667,54.972 57.667,54L55.667,54C55.667,54.442 55.491,54.866 55.179,55.178L56.593,56.592ZM57.667,54L57.667,10L55.667,10L55.667,54L57.667,54ZM57.667,10C57.667,9.027 57.28,8.095 56.593,7.407L55.179,8.821C55.491,9.134 55.667,9.558 55.667,10L57.667,10ZM56.593,7.407C55.905,6.719 54.973,6.333 54,6.333L54,8.333C54.442,8.333 54.866,8.509 55.179,8.821L56.593,7.407ZM36.53,28.761L31.683,35.183L33.28,36.387L38.126,29.966L36.53,28.761ZM38.126,35.183L33.28,28.761L31.683,29.966L36.53,36.387L38.126,35.183Z" fill="#000000"/>
<path d="M11,35.787C11,36.339 11.448,36.787 12,36.787C12.552,36.787 13,36.339 13,35.787L11,35.787ZM15.847,35.786C15.847,36.338 16.294,36.786 16.847,36.786C17.399,36.786 17.847,36.338 17.847,35.786L15.847,35.786ZM20.693,35.786C20.693,36.338 21.141,36.786 21.693,36.786C22.246,36.786 22.693,36.338 22.693,35.786L20.693,35.786ZM41.307,35.787C41.307,36.339 41.754,36.787 42.307,36.787C42.859,36.787 43.307,36.339 43.307,35.787L41.307,35.787ZM46.153,35.786C46.153,36.338 46.601,36.786 47.153,36.786C47.706,36.786 48.153,36.338 48.153,35.786L46.153,35.786ZM51,35.786C51,36.338 51.448,36.786 52,36.786C52.552,36.786 53,36.338 53,35.786L51,35.786ZM13,35.787L13,31.787L11,31.787L11,35.787L13,35.787ZM13,31.787C13,31.002 13.637,30.364 14.424,30.364L14.424,28.364C12.533,28.364 11,29.897 11,31.787L13,31.787ZM14.424,30.364C15.209,30.364 15.847,31.002 15.847,31.788L17.847,31.788C17.847,29.898 16.314,28.364 14.424,28.364L14.424,30.364ZM15.847,31.788L15.847,35.786L17.847,35.786L17.847,31.788L15.847,31.788ZM17.847,31.788C17.847,31.003 18.485,30.364 19.271,30.364L19.271,28.364C17.379,28.364 15.847,29.899 15.847,31.788L17.847,31.788ZM19.271,30.364C20.055,30.364 20.693,31.002 20.693,31.788L22.693,31.788C22.693,29.898 21.161,28.364 19.271,28.364L19.271,30.364ZM20.693,31.788L20.693,35.786L22.693,35.786L22.693,31.788L20.693,31.788ZM43.307,35.787L43.307,31.787L41.307,31.787L41.307,35.787L43.307,35.787ZM43.307,31.787C43.307,31.002 43.944,30.364 44.731,30.364L44.731,28.364C42.84,28.364 41.307,29.897 41.307,31.787L43.307,31.787ZM44.731,30.364C45.515,30.364 46.153,31.002 46.153,31.788L48.153,31.788C48.153,29.898 46.621,28.364 44.731,28.364L44.731,30.364ZM46.153,31.788L46.153,35.786L48.153,35.786L48.153,31.788L46.153,31.788ZM48.153,31.788C48.153,31.003 48.791,30.364 49.577,30.364L49.577,28.364C47.686,28.364 46.153,29.899 46.153,31.788L48.153,31.788ZM49.577,30.364C50.362,30.364 51,31.002 51,31.788L53,31.788C53,29.898 51.467,28.364 49.577,28.364L49.577,30.364ZM51,31.788L51,35.786L53,35.786L53,31.788L51,31.788Z" fill="#000000"/>
<path d="M39.801,27.396C40.354,27.396 40.801,26.949 40.801,26.396C40.801,25.844 40.354,25.396 39.801,25.396C39.249,25.396 38.801,25.844 38.801,26.396C38.801,26.949 39.249,27.396 39.801,27.396Z" fill="#000000"/>
<path d="M40.801,29.364C40.801,28.812 40.354,28.364 39.801,28.364C39.249,28.364 38.801,28.812 38.801,29.364L40.801,29.364ZM38.801,35.786C38.801,36.338 39.249,36.786 39.801,36.786C40.354,36.786 40.801,36.338 40.801,35.786L38.801,35.786ZM27.147,28.364C26.595,28.364 26.147,28.811 26.147,29.363C26.146,29.916 26.593,30.364 27.146,30.364L27.147,28.364ZM30.357,32.575L31.357,32.575L31.357,32.574L30.357,32.575ZM30.357,35.786L30.357,36.786C30.91,36.786 31.357,36.338 31.357,35.786L30.357,35.786ZM27.145,35.786L27.144,36.786L27.145,36.786L27.145,35.786ZM23.935,32.575L22.935,32.574L22.935,32.576L23.935,32.575ZM27.146,30.364C27.698,30.364 28.146,29.916 28.145,29.363C28.145,28.811 27.697,28.364 27.144,28.364L27.146,30.364ZM38.801,29.364L38.801,35.786L40.801,35.786L40.801,29.364L38.801,29.364ZM27.146,30.364C27.732,30.365 28.294,30.598 28.709,31.013L30.123,29.598C29.334,28.809 28.264,28.365 27.147,28.364L27.146,30.364ZM28.709,31.013C29.124,31.427 29.357,31.989 29.357,32.576L31.357,32.574C31.356,31.458 30.912,30.388 30.123,29.598L28.709,31.013ZM29.357,32.575L29.357,35.786L31.357,35.786L31.357,32.575L29.357,32.575ZM30.357,34.786L27.145,34.786L27.145,36.786L30.357,36.786L30.357,34.786ZM27.146,34.786C26.56,34.785 25.997,34.552 25.583,34.137L24.169,35.552C24.958,36.341 26.028,36.785 27.144,36.786L27.146,34.786ZM25.583,34.137C25.168,33.723 24.935,33.16 24.935,32.574L22.935,32.576C22.935,33.692 23.379,34.762 24.169,35.552L25.583,34.137ZM24.935,32.576C24.935,31.989 25.168,31.427 25.583,31.013L24.169,29.598C23.379,30.388 22.935,31.458 22.935,32.574L24.935,32.576ZM25.583,31.013C25.997,30.598 26.56,30.365 27.146,30.364L27.144,28.364C26.028,28.365 24.958,28.809 24.169,29.598L25.583,31.013Z" fill="#000000"/>
</svg>
