<svg width="48" height="48" viewBox="0 0 48 48" fill="none" xmlns="http://www.w3.org/2000/svg" xmlns:xlink="http://www.w3.org/1999/xlink">
<path d="M16,19C15.337,19 14.701,19.263 14.232,19.732C13.763,20.201 13.5,20.837 13.5,21.5C13.5,22.163 13.763,22.799 14.232,23.268C14.701,23.737 15.337,24 16,24C16.663,24 17.299,23.737 17.768,23.268C18.237,22.799 18.5,22.163 18.5,21.5C18.5,20.837 18.237,20.201 17.768,19.732C17.299,19.263 16.663,19 16,19ZM24,19C23.337,19 22.701,19.263 22.232,19.732C21.763,20.201 21.5,20.837 21.5,21.5C21.5,22.163 21.763,22.799 22.232,23.268C22.701,23.737 23.337,24 24,24C24.663,24 25.299,23.737 25.768,23.268C26.237,22.799 26.5,22.163 26.5,21.5C26.5,20.837 26.237,20.201 25.768,19.732C25.299,19.263 24.663,19 24,19ZM29.5,21.5C29.5,20.837 29.763,20.201 30.232,19.732C30.701,19.263 31.337,19 32,19C32.663,19 33.299,19.263 33.768,19.732C34.237,20.201 34.5,20.837 34.5,21.5C34.5,22.163 34.237,22.799 33.768,23.268C33.299,23.737 32.663,24 32,24C31.337,24 30.701,23.737 30.232,23.268C29.763,22.799 29.5,22.163 29.5,21.5Z" fill="#000000"/>
<path d="M32.2,9.186C26.812,8.727 21.396,8.7 16.004,9.106L15.618,9.136C13.139,9.323 10.822,10.44 9.131,12.263C7.44,14.086 6.501,16.48 6.5,18.966L6.5,36C6.5,36.26 6.568,36.514 6.696,36.74C6.824,36.965 7.008,37.154 7.231,37.287C7.453,37.42 7.707,37.493 7.966,37.499C8.225,37.504 8.482,37.443 8.71,37.32L16.53,33.118C16.895,32.922 17.302,32.82 17.716,32.82L35.668,32.82C37.932,32.82 39.872,31.2 40.278,28.974C41.102,24.46 41.166,19.84 40.47,15.304L40.266,13.966C40.085,12.784 39.511,11.697 38.638,10.88C37.764,10.064 36.642,9.564 35.45,9.462L32.2,9.186ZM16.232,12.098C21.464,11.703 26.72,11.729 31.948,12.174L35.196,12.452C36.268,12.544 37.14,13.358 37.302,14.422L37.508,15.758C38.152,19.965 38.091,24.25 37.328,28.436C37.257,28.825 37.053,29.176 36.75,29.429C36.447,29.682 36.065,29.82 35.67,29.82L17.716,29.82C16.807,29.82 15.912,30.046 15.112,30.476L9.5,33.492L9.5,18.966C9.5,17.237 10.154,15.571 11.33,14.302C12.506,13.034 14.117,12.257 15.842,12.126L16.232,12.098Z" clip-rule="evenodd" fill-rule="evenodd" fill="#000000"/>
</svg>
