<svg width="64" height="64" viewBox="0 0 64 64" fill="none" xmlns="http://www.w3.org/2000/svg" xmlns:xlink="http://www.w3.org/1999/xlink">
<path d="M32,37.333C37.883,37.333 42.667,32.549 42.667,26.667C42.667,20.784 37.883,16 32,16C26.117,16 21.333,20.784 21.333,26.667C21.333,32.549 26.117,37.333 32,37.333ZM32,21.333C34.941,21.333 37.333,23.725 37.333,26.667C37.333,29.608 34.941,32 32,32C29.059,32 26.667,29.608 26.667,26.667C26.667,23.725 29.059,21.333 32,21.333Z" fill="#000000"/>
<path d="M30.453,58.17C30.905,58.493 31.446,58.666 32,58.666C32.555,58.666 33.096,58.493 33.547,58.17C34.357,57.597 53.411,43.84 53.333,26.666C53.333,14.904 43.763,5.333 32,5.333C20.237,5.333 10.667,14.904 10.667,26.653C10.589,43.84 29.643,57.597 30.453,58.17ZM32,10.666C40.824,10.666 48,17.842 48,26.68C48.056,38.514 36.299,49.141 32,52.626C27.704,49.138 15.944,38.509 16,26.666C16,17.842 23.176,10.666 32,10.666Z" fill="#000000"/>
</svg>
