<svg width="32" height="32" viewBox="0 0 32 32" fill="none" xmlns="http://www.w3.org/2000/svg" xmlns:xlink="http://www.w3.org/1999/xlink">
<path d="M8,4L8,8L4,8L4,4L8,4ZM2,2L2,10L10,10L10,2L2,2ZM18,7L18,11L14,11L14,7L18,7ZM12,5L12,13L20,13L20,5L12,5ZM8,16L8,20L4,20L4,16L8,16ZM2,14L2,22L10,22L10,14L2,14Z" fill="#000000"/>
<path d="M22,10L22,16L16,16L16,22L10,22L10,30L30,30L30,10L22,10ZM18,18L22,18L22,22L18,22L18,18ZM16,28L12,28L12,24L16,24L16,28ZM22,28L18,28L18,24L22,24L22,28ZM28,28L24,28L24,24L28,24L28,28ZM28,22L24,22L24,18L28,18L28,22ZM24,16L24,12L28,12L28,16L24,16Z" fill="#000000"/>
</svg>
