<svg width="52" height="48" viewBox="0 0 52 48" fill="none" xmlns="http://www.w3.org/2000/svg" xmlns:xlink="http://www.w3.org/1999/xlink">
<path d="M36.386,27.2C36.801,26.177 37.011,25.093 37.007,24C37.007,21.574 35.963,19.248 34.105,17.533C32.246,15.817 29.726,14.854 27.098,14.854C25.929,14.855 24.77,15.049 23.675,15.427L26,17.64C26.354,17.588 26.711,17.561 27.069,17.56C28.927,17.557 30.711,18.232 32.032,19.438C33.353,20.645 34.103,22.285 34.118,24C34.117,24.331 34.088,24.661 34.031,24.987L36.386,27.2Z" fill="#AFAFAF"/>
<path d="M49.53,23.373C44.662,15.067 36.126,10.04 26.679,10.04C24.107,10.046 21.552,10.428 19.11,11.173L21.436,13.333C23.149,12.925 24.91,12.714 26.679,12.707C34.811,12.707 42.207,16.893 46.612,23.947C44.996,26.564 42.854,28.871 40.3,30.747L42.351,32.64C45.307,30.439 47.761,27.72 49.574,24.64L49.949,24L49.53,23.373Z" fill="#AFAFAF"/>
<path d="M7.034,7.706L13.477,13.653C9.405,16.073 6.077,19.421 3.813,23.373L3.438,24L3.813,24.64C8.681,32.946 17.218,37.973 26.664,37.973C30.352,37.972 33.991,37.202 37.31,35.72L44.532,42.386L47.06,40.386L9.504,5.72L7.034,7.706ZM21.118,20.706L30.723,29.573C29.638,30.193 28.389,30.525 27.112,30.533C26.185,30.533 25.267,30.364 24.41,30.035C23.554,29.706 22.776,29.224 22.123,28.617C21.469,28.01 20.952,27.289 20.601,26.497C20.25,25.704 20.072,24.856 20.078,24C20.094,22.835 20.454,21.697 21.118,20.706ZM19.023,18.773C17.672,20.532 17.039,22.676 17.235,24.825C17.432,26.974 18.446,28.989 20.098,30.514C21.75,32.039 23.933,32.975 26.261,33.157C28.589,33.339 30.912,32.754 32.818,31.506L35.129,33.64C32.453,34.695 29.574,35.24 26.664,35.24C18.532,35.24 11.137,31.053 6.731,24C8.845,20.544 11.89,17.651 15.571,15.6L19.023,18.773Z" fill="#AFAFAF"/>
</svg>
