<svg width="102" height="102" viewBox="0 0 102 102" fill="none" xmlns="http://www.w3.org/2000/svg" xmlns:xlink="http://www.w3.org/1999/xlink">
<path d="M50.036,84.036C31.236,84.036 16.036,68.836 16.036,50.036C16.036,31.236 31.236,16.036 50.036,16.036C68.836,16.036 84.036,31.236 84.036,50.036C84.036,68.836 68.836,84.036 50.036,84.036ZM50.036,20.036C33.436,20.036 20.036,33.436 20.036,50.036C20.036,66.636 33.436,80.036 50.036,80.036C66.636,80.036 80.036,66.636 80.036,50.036C80.036,33.436 66.636,20.036 50.036,20.036Z" transform="rotate(359.917 50.036 50.036)" fill="#000000"/>
<path d="M66.642,68.836L50.042,52.236L33.442,68.836L30.642,66.036L50.042,46.636L69.442,66.036L66.642,68.836Z" transform="rotate(359.917 50.042 57.736)" fill="#000000"/>
<path d="M48.036,32.037L52.036,32.037L52.036,66.037L48.036,66.037L48.036,32.037Z" transform="rotate(359.917 50.036 49.037)" fill="#000000"/>
</svg>
