<svg width="60" height="60" viewBox="0 0 60 60" fill="none" xmlns="http://www.w3.org/2000/svg" xmlns:xlink="http://www.w3.org/1999/xlink">
<path d="M54.514,25.104L52.5,25.104L52.5,25L30,25L30,35L44.129,35C42.068,40.821 36.529,45 30,45C21.716,45 15,38.284 15,30C15,21.716 21.716,15 30,15C33.824,15 37.303,16.442 39.951,18.799L47.022,11.728C42.557,7.566 36.585,5 30,5C16.194,5 5,16.194 5,30C5,43.806 16.194,55 30,55C43.806,55 55,43.806 55,30C55,28.324 54.827,26.688 54.514,25.104Z" fill="#FFC107"/>
<path d="M7.883,18.364L16.096,24.388C18.319,18.885 23.701,15 30,15C33.824,15 37.303,16.442 39.951,18.799L47.023,11.728C42.558,7.566 36.585,5 30,5C20.398,5 12.07,10.421 7.883,18.364Z" fill="#FF3D00"/>
<path d="M30,55C36.457,55 42.325,52.529 46.761,48.51L39.024,41.962C36.429,43.935 33.259,45.002 30,45C23.497,45 17.976,40.854 15.896,35.067L7.744,41.349C11.881,49.445 20.284,55 30,55Z" fill="#4CAF50"/>
<path d="M54.514,25.104L52.5,25.104L52.5,25L30,25L30,35L44.129,35C43.143,37.771 41.367,40.191 39.02,41.964L39.024,41.961L46.761,48.509C46.214,49.006 55,42.5 55,30C55,28.324 54.827,26.688 54.514,25.104Z" fill="#1976D2"/>
</svg>
