<svg width="64" height="64" viewBox="0 0 64 64" fill="none" xmlns="http://www.w3.org/2000/svg" xmlns:xlink="http://www.w3.org/1999/xlink">
<path d="M24,28C26.209,28 28,26.209 28,24C28,21.791 26.209,20 24,20C21.791,20 20,21.791 20,24C20,26.209 21.791,28 24,28Z" fill="#000000"/>
<path d="M40,28C42.209,28 44,26.209 44,24C44,21.791 42.209,20 40,20C37.791,20 36,21.791 36,24C36,26.209 37.791,28 40,28Z" fill="#000000"/>
<path d="M32,60C16.56,60 4,47.44 4,32C4,16.56 16.56,4 32,4C47.44,4 60,16.56 60,32C60,47.44 47.44,60 32,60ZM32,8C18.76,8 8,18.76 8,32C8,45.24 18.76,56 32,56C45.24,56 56,45.24 56,32C56,18.76 45.24,8 32,8Z" fill="#000000"/>
<path d="M32,46C26.08,46 20.76,42.24 18.8,36.68C18.661,36.192 18.712,35.669 18.943,35.217C19.174,34.766 19.568,34.418 20.046,34.246C20.523,34.073 21.048,34.088 21.514,34.287C21.981,34.487 22.355,34.856 22.56,35.32C23.248,37.274 24.526,38.967 26.217,40.164C27.907,41.361 29.928,42.004 32,42.004C34.072,42.004 36.093,41.361 37.783,40.164C39.474,38.967 40.752,37.274 41.44,35.32C41.8,34.28 42.96,33.72 44,34.12C45.04,34.48 45.6,35.64 45.2,36.68C44.238,39.41 42.451,41.774 40.086,43.444C37.721,45.114 34.895,46.007 32,46Z" fill="#000000"/>
</svg>
