<svg width="46" height="48" viewBox="0 0 46 48" fill="none" xmlns="http://www.w3.org/2000/svg" xmlns:xlink="http://www.w3.org/1999/xlink">
<path d="M2.667,0.667C1.562,0.667 0.667,1.562 0.667,2.667C0.667,3.772 1.562,4.667 2.667,4.667L2.667,0.667ZM9.872,2.998L10.836,1.246L10.834,1.244L9.872,2.998ZM10.539,3.518L12.006,2.159L12.003,2.156L10.539,3.518ZM11.555,6.222L9.614,6.705L9.614,6.707L11.555,6.222ZM12.04,8.16L13.98,7.675L13.98,7.675L12.04,8.16ZM12.653,10.23L10.835,11.064L10.836,11.065L12.653,10.23ZM16.509,13.243L16.138,15.208L16.146,15.21L16.509,13.243ZM18.667,15.334C19.771,15.334 20.667,14.438 20.667,13.334C20.667,12.229 19.771,11.334 18.667,11.334L18.667,15.334ZM2.667,4.667L7.003,4.667L7.003,0.667L2.667,0.667L2.667,4.667ZM7.003,4.667C7.795,4.667 8.255,4.669 8.596,4.7C8.902,4.728 8.94,4.768 8.91,4.751L10.834,1.244C10.201,0.897 9.56,0.771 8.96,0.717C8.395,0.665 7.722,0.667 7.003,0.667L7.003,4.667ZM8.907,4.75C8.969,4.784 9.026,4.828 9.074,4.88L12.003,2.156C11.665,1.792 11.271,1.485 10.836,1.246L8.907,4.75ZM9.071,4.876C9.047,4.851 9.095,4.878 9.196,5.168C9.309,5.491 9.423,5.937 9.614,6.705L13.495,5.738C13.321,5.039 13.16,4.386 12.973,3.849C12.774,3.28 12.497,2.689 12.006,2.159L9.071,4.876ZM9.614,6.707L10.1,8.646L13.98,7.675L13.495,5.736L9.614,6.707ZM10.1,8.645C10.35,9.646 10.531,10.401 10.835,11.064L14.471,9.396C14.359,9.151 14.269,8.829 13.98,7.675L10.1,8.645ZM10.836,11.065C11.325,12.129 12.061,13.06 12.984,13.781L15.447,10.629C15.027,10.301 14.693,9.878 14.47,9.394L10.836,11.065ZM12.984,13.781C13.906,14.501 14.988,14.991 16.138,15.208L16.88,11.278C16.358,11.179 15.866,10.956 15.447,10.629L12.984,13.781ZM16.146,15.21C16.861,15.342 17.637,15.334 18.667,15.334L18.667,11.334C17.472,11.334 17.139,11.326 16.873,11.276L16.146,15.21Z" fill="#000000"/>
<path d="M40,39.334C41.105,39.334 42,38.439 42,37.334C42,36.229 41.105,35.334 40,35.334L40,39.334ZM11.403,37.318L11.181,39.306L11.19,39.307L11.403,37.318ZM9.091,34.11L7.155,33.605C7.148,33.634 7.141,33.663 7.135,33.692L9.091,34.11ZM9.307,33.411L11.189,34.087C11.193,34.075 11.198,34.063 11.202,34.051L9.307,33.411ZM9.589,32.611L11.433,33.386L11.435,33.382L9.589,32.611ZM14.117,29.347L13.983,27.352L13.97,27.353L14.117,29.347ZM29.333,31.334C30.438,31.334 31.333,30.439 31.333,29.334C31.333,28.229 30.438,27.334 29.333,27.334L29.333,31.334ZM40,35.334L12.133,35.334L12.133,39.334L40,39.334L40,35.334ZM12.133,35.334C11.933,35.334 11.808,35.334 11.714,35.332C11.62,35.331 11.603,35.328 11.616,35.329L11.19,39.307C11.473,39.337 11.804,39.334 12.133,39.334L12.133,35.334ZM11.624,35.33C11.532,35.32 11.443,35.29 11.362,35.243L9.344,38.697C9.907,39.026 10.533,39.233 11.181,39.306L11.624,35.33ZM11.362,35.243C11.282,35.196 11.212,35.133 11.158,35.058L7.912,37.396C8.294,37.925 8.781,38.368 9.344,38.697L11.362,35.243ZM11.158,35.058C11.103,34.982 11.065,34.896 11.046,34.805L7.131,35.626C7.265,36.264 7.531,36.867 7.912,37.396L11.158,35.058ZM11.046,34.805C11.027,34.714 11.027,34.619 11.046,34.528L7.135,33.692C6.999,34.329 6.997,34.988 7.131,35.626L11.046,34.805ZM11.026,34.615C11.072,34.436 11.127,34.26 11.189,34.087L7.424,32.736C7.322,33.021 7.232,33.312 7.155,33.605L11.026,34.615ZM11.202,34.051C11.357,33.591 11.392,33.484 11.433,33.386L7.746,31.836C7.632,32.107 7.534,32.41 7.412,32.771L11.202,34.051ZM11.435,33.382C11.672,32.814 12.062,32.322 12.562,31.962L10.223,28.717C9.124,29.509 8.266,30.591 7.744,31.841L11.435,33.382ZM12.562,31.962C13.061,31.602 13.651,31.387 14.265,31.342L13.97,27.353C12.619,27.453 11.322,27.925 10.223,28.717L12.562,31.962ZM14.252,31.343C14.366,31.335 14.504,31.334 14.963,31.334L14.963,27.334C14.563,27.334 14.263,27.333 13.983,27.352L14.252,31.343ZM14.963,31.334L29.333,31.334L29.333,27.334L14.963,27.334L14.963,31.334Z" fill="#000000"/>
<path d="M15.149,28.601L14.135,30.324L14.137,30.326L15.149,28.601ZM13.76,27.422L15.295,26.14L15.293,26.138L13.76,27.422ZM12.029,21.51L14.002,21.183L14.002,21.18L12.029,21.51ZM11.861,15.449L13.624,16.393L13.625,16.391L11.861,15.449ZM12.949,14.163L11.729,12.579L11.729,12.579L12.949,14.163ZM43.288,14.598L44.99,13.548L44.987,13.544L43.288,14.598ZM41.474,21.051L39.685,20.157L39.685,20.158L41.474,21.051ZM40.282,23.438L42.071,24.332L42.072,24.332L40.282,23.438ZM36.842,28.537L35.792,26.835L35.791,26.835L36.842,28.537ZM30.741,27.334L21.264,27.334L21.264,31.334L30.741,31.334L30.741,27.334ZM21.264,27.334C19.604,27.334 18.499,27.332 17.648,27.251C16.832,27.174 16.436,27.037 16.161,26.875L14.137,30.326C15.112,30.898 16.153,31.127 17.271,31.233C18.354,31.336 19.68,31.334 21.264,31.334L21.264,27.334ZM16.163,26.877C15.834,26.683 15.54,26.434 15.295,26.14L12.224,28.704C12.763,29.349 13.41,29.898 14.135,30.324L16.163,26.877ZM15.293,26.138C15.087,25.892 14.887,25.524 14.676,24.733C14.457,23.908 14.274,22.819 14.002,21.183L10.056,21.837C10.315,23.399 10.531,24.708 10.81,25.761C11.099,26.848 11.499,27.837 12.226,28.706L15.293,26.138ZM14.002,21.18C13.724,19.516 13.545,18.427 13.498,17.601C13.452,16.804 13.553,16.526 13.624,16.393L10.098,14.504C9.527,15.571 9.44,16.704 9.504,17.828C9.567,18.923 9.793,20.264 10.056,21.84L14.002,21.18ZM13.625,16.391C13.759,16.14 13.944,15.921 14.169,15.748L11.729,12.579C11.054,13.098 10.498,13.756 10.097,14.507L13.625,16.391ZM14.169,15.748C14.288,15.656 14.545,15.512 15.339,15.426C16.162,15.337 17.266,15.334 18.954,15.334L18.954,11.334C17.357,11.334 15.997,11.331 14.908,11.449C13.79,11.571 12.687,11.841 11.729,12.579L14.169,15.748ZM18.954,15.334L36.704,15.334L36.704,11.334L18.954,11.334L18.954,15.334ZM36.704,15.334C38.704,15.334 39.975,15.339 40.858,15.47C41.277,15.533 41.482,15.608 41.57,15.652C41.608,15.671 41.614,15.68 41.606,15.672C41.603,15.669 41.598,15.665 41.594,15.66C41.59,15.655 41.588,15.652 41.588,15.652L44.987,13.544C44.131,12.163 42.721,11.703 41.445,11.514C40.199,11.329 38.57,11.334 36.704,11.334L36.704,15.334ZM41.586,15.648C41.586,15.648 41.584,15.645 41.581,15.639C41.579,15.633 41.577,15.627 41.575,15.622C41.572,15.611 41.577,15.621 41.577,15.663C41.577,15.761 41.553,15.977 41.421,16.38C41.144,17.229 40.58,18.368 39.685,20.157L43.264,21.945C44.097,20.276 44.831,18.822 45.223,17.625C45.624,16.4 45.844,14.932 44.99,13.548L41.586,15.648ZM39.685,20.158L38.493,22.544L42.072,24.332L43.264,21.945L39.685,20.158ZM38.494,22.544C37.758,24.015 37.271,24.982 36.82,25.692C36.393,26.362 36.088,26.652 35.792,26.835L37.893,30.239C38.885,29.627 39.582,28.802 40.195,27.839C40.783,26.915 41.372,25.73 42.071,24.332L38.494,22.544ZM35.791,26.835C35.492,27.02 35.095,27.163 34.305,27.245C33.468,27.332 32.386,27.334 30.741,27.334L30.741,31.334C32.304,31.334 33.627,31.336 34.717,31.224C35.853,31.106 36.902,30.851 37.894,30.238L35.791,26.835Z" fill="#000000"/>
<path d="M37.333,48C38.806,48 40,46.806 40,45.334C40,43.861 38.806,42.667 37.333,42.667C35.86,42.667 34.667,43.861 34.667,45.334C34.667,46.806 35.86,48 37.333,48Z" fill="#000000"/>
<path d="M16,48C17.472,48 18.666,46.806 18.666,45.334C18.666,43.861 17.472,42.667 16,42.667C14.527,42.667 13.333,43.861 13.333,45.334C13.333,46.806 14.527,48 16,48Z" fill="#000000"/>
</svg>
