<svg width="36" height="44" viewBox="0 0 36 44" fill="none" xmlns="http://www.w3.org/2000/svg" xmlns:xlink="http://www.w3.org/1999/xlink">
<path d="M32,5L32,3L32,5ZM4,5L4,3L4,5ZM11,5L13,5C13,3.895 12.105,3 11,3L11,5ZM11,8L9,8C9,9.105 9.895,10 11,10L11,8ZM25,8L25,10C26.105,10 27,9.105 27,8L25,8ZM25,5L25,3C23.895,3 23,3.895 23,5L25,5ZM27.05,7L32,7L32,3L27.05,3L27.05,7ZM32,7L32,7L34.828,4.172C34.078,3.421 33.061,3 32,3L32,7ZM32,7L32,7L36,7C36,5.939 35.579,4.922 34.828,4.172L32,7ZM32,7L32,40L36,40L36,7L32,7ZM32,40L32,40L34.828,42.828C35.579,42.078 36,41.061 36,40L32,40ZM32,40L32,40L32,44C33.061,44 34.078,43.579 34.828,42.828L32,40ZM32,40L4,40L4,44L32,44L32,40ZM4,40L4,40L1.172,42.828C1.922,43.579 2.939,44 4,44L4,40ZM4,40L4,40L0,40C0,41.061 0.421,42.078 1.172,42.828L4,40ZM4,40L4,7L0,7L0,40L4,40ZM4,7L4,7L1.172,4.172C0.421,4.922 0,5.939 0,7L4,7ZM4,7L4,7L4,3C2.939,3 1.922,3.421 1.172,4.172L4,7ZM4,7L11,7L11,3L4,3L4,7ZM9,5L9,8L13,8L13,5L9,5ZM11,10L25,10L25,6L11,6L11,10ZM27,8L27,5L23,5L23,8L27,8ZM25,7L27.05,7L27.05,3L25,3L25,7Z" fill="#000000"/>
<path d="M11,2L11,0C9.895,0 9,0.895 9,2L11,2ZM25,2L27,2C27,0.895 26.105,0 25,0L25,2ZM25,8L25,10C26.105,10 27,9.105 27,8L25,8ZM11,8L9,8C9,9.105 9.895,10 11,10L11,8ZM22.414,18.414C23.195,17.633 23.195,16.367 22.414,15.586C21.633,14.805 20.367,14.805 19.586,15.586L22.414,18.414ZM13,25.001L11.586,23.587C11.014,24.159 10.843,25.019 11.152,25.766C11.462,26.514 12.191,27.001 13,27.001L13,25.001ZM23.004,25.001L24.418,26.416C24.99,25.844 25.161,24.983 24.852,24.236C24.542,23.488 23.813,23.001 23.004,23.001L23.004,25.001ZM13.586,31.586C12.805,32.367 12.805,33.634 13.585,34.415C14.366,35.196 15.633,35.196 16.414,34.416L13.586,31.586ZM11,4L25,4L25,0L11,0L11,4ZM23,2L23,8L27,8L27,2L23,2ZM25,6L11,6L11,10L25,10L25,6ZM13,8L13,2L9,2L9,8L13,8ZM19.586,15.586L11.586,23.587L14.414,26.415L22.414,18.414L19.586,15.586ZM13,27.001L23.004,27.001L23.004,23.001L13,23.001L13,27.001ZM21.59,23.586L13.586,31.586L16.414,34.416L24.418,26.416L21.59,23.586Z" fill="#000000"/>
</svg>
