<svg width="58" height="58" viewBox="0 0 58 58" fill="none" xmlns="http://www.w3.org/2000/svg" xmlns:xlink="http://www.w3.org/1999/xlink">
<path d="M36.248,28.949L39.902,25.294L28.938,14.326L17.973,25.292L21.63,28.946L26.354,24.225L26.354,43.703L31.522,43.703L31.522,24.225L36.248,28.949Z" transform="rotate(-179.899 28.938 29.015)" fill="#000000"/>
<path d="M49.105,8.913C38.004,-2.189 20.008,-2.189 8.907,8.913C-2.194,20.016 -2.194,38.013 8.907,49.116C20.008,60.218 38.004,60.218 49.105,49.116C60.206,38.013 60.206,20.016 49.105,8.913ZM45.451,12.568C41.089,8.206 35.174,5.755 29.006,5.755C22.838,5.755 16.923,8.206 12.561,12.568C8.2,16.93 5.75,22.846 5.75,29.015C5.75,35.183 8.2,41.099 12.561,45.461C16.923,49.823 22.838,52.274 29.006,52.274C35.174,52.274 41.089,49.823 45.451,45.461C49.812,41.099 52.263,35.183 52.263,29.015C52.263,22.846 49.812,16.93 45.451,12.568Z" clip-rule="evenodd" fill-rule="evenodd" transform="rotate(-179.899 29.006 29.015)" fill="#000000"/>
</svg>
