<svg width="46" height="48" viewBox="0 0 46 48" fill="none" xmlns="http://www.w3.org/2000/svg" xmlns:xlink="http://www.w3.org/1999/xlink">
<path d="M2.667,0.667C1.562,0.667 0.667,1.562 0.667,2.667C0.667,3.772 1.562,4.667 2.667,4.667L2.667,0.667ZM9.872,2.998L10.837,1.246L10.834,1.244L9.872,2.998ZM10.539,3.518L12.007,2.159L12.003,2.156L10.539,3.518ZM11.555,6.222L9.614,6.705L9.615,6.707L11.555,6.222ZM12.04,8.16L13.981,7.675L13.98,7.675L12.04,8.16ZM12.654,10.23L10.836,11.064L10.836,11.065L12.654,10.23ZM16.51,13.243L16.138,15.208L16.146,15.21L16.51,13.243ZM18.667,15.334C19.772,15.334 20.667,14.438 20.667,13.334C20.667,12.229 19.772,11.334 18.667,11.334L18.667,15.334ZM2.667,4.667L7.003,4.667L7.003,0.667L2.667,0.667L2.667,4.667ZM7.003,4.667C7.795,4.667 8.256,4.669 8.597,4.7C8.903,4.728 8.941,4.768 8.91,4.751L10.834,1.244C10.201,0.897 9.56,0.771 8.96,0.717C8.396,0.665 7.723,0.667 7.003,0.667L7.003,4.667ZM8.908,4.75C8.97,4.784 9.026,4.828 9.074,4.88L12.003,2.156C11.665,1.792 11.272,1.485 10.837,1.246L8.908,4.75ZM9.071,4.876C9.047,4.851 9.095,4.878 9.197,5.168C9.31,5.491 9.423,5.937 9.614,6.705L13.496,5.738C13.322,5.039 13.16,4.386 12.973,3.849C12.775,3.28 12.497,2.689 12.007,2.159L9.071,4.876ZM9.615,6.707L10.1,8.646L13.98,7.675L13.495,5.736L9.615,6.707ZM10.1,8.645C10.35,9.646 10.532,10.401 10.836,11.064L14.471,9.396C14.359,9.151 14.269,8.829 13.981,7.675L10.1,8.645ZM10.836,11.065C11.325,12.129 12.062,13.06 12.984,13.781L15.447,10.629C15.028,10.301 14.693,9.878 14.471,9.394L10.836,11.065ZM12.984,13.781C13.907,14.501 14.988,14.991 16.138,15.208L16.881,11.278C16.358,11.179 15.866,10.956 15.447,10.629L12.984,13.781ZM16.146,15.21C16.861,15.342 17.637,15.334 18.667,15.334L18.667,11.334C17.473,11.334 17.14,11.326 16.873,11.276L16.146,15.21Z" fill="#000000"/>
<path d="M40.001,39.334C41.105,39.334 42.001,38.439 42.001,37.334C42.001,36.229 41.105,35.334 40.001,35.334L40.001,39.334ZM11.403,37.318L11.181,39.306L11.19,39.307L11.403,37.318ZM9.091,34.11L7.156,33.605C7.148,33.634 7.142,33.663 7.135,33.692L9.091,34.11ZM9.307,33.411L11.19,34.087C11.194,34.075 11.198,34.063 11.202,34.051L9.307,33.411ZM9.59,32.611L11.434,33.386L11.435,33.382L9.59,32.611ZM14.118,29.347L13.983,27.352L13.97,27.353L14.118,29.347ZM29.334,31.334C30.438,31.334 31.334,30.439 31.334,29.334C31.334,28.229 30.438,27.334 29.334,27.334L29.334,31.334ZM40.001,35.334L12.134,35.334L12.134,39.334L40.001,39.334L40.001,35.334ZM12.134,35.334C11.934,35.334 11.808,35.334 11.714,35.332C11.621,35.331 11.603,35.328 11.616,35.329L11.19,39.307C11.474,39.337 11.805,39.334 12.134,39.334L12.134,35.334ZM11.625,35.33C11.532,35.32 11.443,35.29 11.363,35.243L9.345,38.697C9.908,39.026 10.534,39.233 11.181,39.306L11.625,35.33ZM11.363,35.243C11.282,35.196 11.213,35.133 11.158,35.058L7.913,37.396C8.294,37.925 8.782,38.368 9.345,38.697L11.363,35.243ZM11.158,35.058C11.104,34.982 11.066,34.896 11.046,34.805L7.132,35.626C7.266,36.264 7.532,36.867 7.913,37.396L11.158,35.058ZM11.046,34.805C11.027,34.714 11.027,34.619 11.047,34.528L7.135,33.692C6.999,34.329 6.998,34.988 7.132,35.626L11.046,34.805ZM11.026,34.615C11.073,34.436 11.127,34.26 11.19,34.087L7.425,32.736C7.322,33.021 7.233,33.312 7.156,33.605L11.026,34.615ZM11.202,34.051C11.358,33.591 11.393,33.484 11.434,33.386L7.746,31.836C7.633,32.107 7.534,32.41 7.412,32.771L11.202,34.051ZM11.435,33.382C11.673,32.814 12.063,32.322 12.562,31.962L10.223,28.717C9.124,29.509 8.266,30.591 7.744,31.841L11.435,33.382ZM12.562,31.962C13.062,31.602 13.651,31.387 14.265,31.342L13.97,27.353C12.619,27.453 11.322,27.925 10.223,28.717L12.562,31.962ZM14.253,31.343C14.366,31.335 14.505,31.334 14.963,31.334L14.963,27.334C14.563,27.334 14.264,27.333 13.983,27.352L14.253,31.343ZM14.963,31.334L29.334,31.334L29.334,27.334L14.963,27.334L14.963,31.334Z" fill="#000000"/>
<path d="M15.15,28.601L14.136,30.324L14.138,30.326L15.15,28.601ZM13.761,27.422L15.296,26.14L15.294,26.138L13.761,27.422ZM12.03,21.51L14.003,21.183L14.003,21.18L12.03,21.51ZM11.862,15.449L13.625,16.393L13.626,16.391L11.862,15.449ZM12.95,14.163L11.73,12.579L11.73,12.579L12.95,14.163ZM43.289,14.598L44.991,13.548L44.988,13.544L43.289,14.598ZM41.475,21.051L39.686,20.157L39.686,20.158L41.475,21.051ZM40.283,23.438L42.072,24.332L42.073,24.332L40.283,23.438ZM36.843,28.537L35.793,26.835L35.792,26.835L36.843,28.537ZM30.742,27.334L21.265,27.334L21.265,31.334L30.742,31.334L30.742,27.334ZM21.265,27.334C19.605,27.334 18.5,27.332 17.649,27.251C16.833,27.174 16.437,27.037 16.162,26.875L14.138,30.326C15.113,30.898 16.154,31.127 17.272,31.233C18.355,31.336 19.681,31.334 21.265,31.334L21.265,27.334ZM16.164,26.877C15.835,26.683 15.541,26.434 15.296,26.14L12.225,28.704C12.764,29.349 13.411,29.898 14.136,30.324L16.164,26.877ZM15.294,26.138C15.088,25.892 14.887,25.524 14.677,24.733C14.458,23.908 14.275,22.819 14.003,21.183L10.057,21.837C10.316,23.399 10.532,24.708 10.811,25.761C11.1,26.848 11.5,27.837 12.227,28.706L15.294,26.138ZM14.003,21.18C13.725,19.516 13.546,18.427 13.499,17.601C13.453,16.804 13.554,16.526 13.625,16.393L10.099,14.504C9.528,15.571 9.441,16.704 9.505,17.828C9.568,18.923 9.794,20.264 10.057,21.84L14.003,21.18ZM13.626,16.391C13.76,16.14 13.945,15.921 14.17,15.748L11.73,12.579C11.055,13.098 10.499,13.756 10.098,14.507L13.626,16.391ZM14.17,15.748C14.289,15.656 14.546,15.512 15.34,15.426C16.163,15.337 17.267,15.334 18.955,15.334L18.955,11.334C17.358,11.334 15.998,11.331 14.909,11.449C13.791,11.571 12.688,11.841 11.73,12.579L14.17,15.748ZM18.955,15.334L36.705,15.334L36.705,11.334L18.955,11.334L18.955,15.334ZM36.705,15.334C38.705,15.334 39.976,15.339 40.859,15.47C41.278,15.533 41.483,15.608 41.571,15.652C41.609,15.671 41.615,15.68 41.607,15.672C41.604,15.669 41.599,15.665 41.595,15.66C41.591,15.655 41.589,15.652 41.589,15.652L44.988,13.544C44.132,12.163 42.722,11.703 41.446,11.514C40.2,11.329 38.571,11.334 36.705,11.334L36.705,15.334ZM41.587,15.648C41.587,15.648 41.585,15.645 41.582,15.639C41.58,15.633 41.578,15.627 41.576,15.622C41.573,15.611 41.578,15.621 41.578,15.663C41.578,15.761 41.554,15.977 41.422,16.38C41.145,17.229 40.581,18.368 39.686,20.157L43.265,21.945C44.098,20.276 44.832,18.822 45.224,17.625C45.625,16.4 45.845,14.932 44.991,13.548L41.587,15.648ZM39.686,20.158L38.494,22.544L42.073,24.332L43.265,21.945L39.686,20.158ZM38.495,22.544C37.759,24.015 37.272,24.982 36.821,25.692C36.394,26.362 36.089,26.652 35.793,26.835L37.894,30.239C38.886,29.627 39.583,28.802 40.196,27.839C40.784,26.915 41.373,25.73 42.072,24.332L38.495,22.544ZM35.792,26.835C35.493,27.02 35.096,27.163 34.306,27.245C33.469,27.332 32.387,27.334 30.742,27.334L30.742,31.334C32.305,31.334 33.628,31.336 34.718,31.224C35.854,31.106 36.903,30.851 37.895,30.238L35.792,26.835Z" fill="#000000"/>
<path d="M37.334,48C38.806,48 40,46.806 40,45.334C40,43.861 38.806,42.667 37.334,42.667C35.861,42.667 34.667,43.861 34.667,45.334C34.667,46.806 35.861,48 37.334,48Z" fill="#000000"/>
<path d="M16.001,48C17.473,48 18.667,46.806 18.667,45.334C18.667,43.861 17.473,42.667 16.001,42.667C14.528,42.667 13.334,43.861 13.334,45.334C13.334,46.806 14.528,48 16.001,48Z" fill="#000000"/>
</svg>
