<svg width="58" height="36" viewBox="0 0 58 36" fill="none" xmlns="http://www.w3.org/2000/svg" xmlns:xlink="http://www.w3.org/1999/xlink">
<path d="M6.667,4L49.333,4L49.333,0L6.667,0L6.667,4ZM49.333,4C51.174,4 52.667,5.492 52.667,7.333L56.667,7.333C56.667,3.283 53.383,0 49.333,0L49.333,4ZM52.667,7.333L52.667,28.667L56.667,28.667L56.667,7.333L52.667,7.333ZM52.667,28.667C52.667,30.508 51.174,32 49.333,32L49.333,36C53.383,36 56.667,32.717 56.667,28.667L52.667,28.667ZM49.333,32L6.667,32L6.667,36L49.333,36L49.333,32ZM6.667,32C4.826,32 3.333,30.508 3.333,28.667L-0.667,28.667C-0.667,32.717 2.617,36 6.667,36L6.667,32ZM3.333,28.667L3.333,7.333L-0.667,7.333L-0.667,28.667L3.333,28.667ZM3.333,7.333C3.333,5.492 4.826,4 6.667,4L6.667,0C2.617,0 -0.667,3.283 -0.667,7.333L3.333,7.333Z" fill="#000000"/>
<line x1="14.667" y1="16" x2="41.36" y2="16" stroke="#000000" stroke-width="2" stroke-miterlimit="3.999327" stroke-linecap="round" stroke-linejoin="round"/>
</svg>
