<svg width="54" height="60" viewBox="0 0 54 60" fill="none" xmlns="http://www.w3.org/2000/svg" xmlns:xlink="http://www.w3.org/1999/xlink">
<path d="M41.833,28C41.833,28.828 42.505,29.5 43.333,29.5C44.162,29.5 44.833,28.828 44.833,28L41.833,28ZM43.333,11.33L41.833,11.329L41.833,11.33L43.333,11.33ZM42.864,10.197L41.803,11.258L41.804,11.258L42.864,10.197ZM34.469,1.802L33.408,2.862L33.409,2.863L34.469,1.802ZM33.339,1.333L33.34,-0.167L33.339,-0.167L33.339,1.333ZM0.667,53.066L2.167,53.066L0.667,53.066ZM2.267,54.666L2.267,56.166L2.267,54.666ZM24.667,56.166C25.495,56.166 26.167,55.495 26.167,54.666C26.167,53.838 25.495,53.166 24.667,53.166L24.667,56.166ZM11.333,21.166C10.505,21.166 9.833,21.838 9.833,22.666C9.833,23.495 10.505,24.166 11.333,24.166L11.333,21.166ZM32.667,24.166C33.495,24.166 34.167,23.495 34.167,22.666C34.167,21.838 33.495,21.166 32.667,21.166L32.667,24.166ZM11.333,10.5C10.505,10.5 9.833,11.171 9.833,12C9.833,12.828 10.505,13.5 11.333,13.5L11.333,10.5ZM22,13.5C22.828,13.5 23.5,12.828 23.5,12C23.5,11.171 22.828,10.5 22,10.5L22,13.5ZM11.333,31.833C10.505,31.833 9.833,32.505 9.833,33.333C9.833,34.161 10.505,34.833 11.333,34.833L11.333,31.833ZM19.333,34.833C20.162,34.833 20.833,34.161 20.833,33.333C20.833,32.505 20.162,31.833 19.333,31.833L19.333,34.833ZM44.833,28L44.833,11.33L41.833,11.33L41.833,28L44.833,28ZM44.833,11.332C44.834,10.924 44.753,10.52 44.597,10.143L41.826,11.291C41.831,11.303 41.833,11.316 41.833,11.329L44.833,11.332ZM44.597,10.143C44.441,9.766 44.212,9.424 43.924,9.136L41.804,11.258C41.813,11.268 41.821,11.279 41.826,11.291L44.597,10.143ZM43.925,9.136L35.53,0.742L33.409,2.863L41.803,11.258L43.925,9.136ZM35.531,0.742C34.95,0.161 34.162,-0.166 33.34,-0.167L33.337,2.833C33.364,2.833 33.389,2.844 33.408,2.862L35.531,0.742ZM33.339,-0.167L2.267,-0.167L2.267,2.833L33.339,2.833L33.339,-0.167ZM2.267,-0.167C1.444,-0.167 0.656,0.16 0.074,0.741L2.196,2.862C2.215,2.844 2.24,2.833 2.267,2.833L2.267,-0.167ZM0.074,0.741C-0.507,1.322 -0.833,2.111 -0.833,2.933L2.167,2.933C2.167,2.906 2.177,2.881 2.196,2.862L0.074,0.741ZM-0.833,2.933L-0.833,53.066L2.167,53.066L2.167,2.933L-0.833,2.933ZM-0.833,53.066C-0.833,53.889 -0.507,54.677 0.074,55.258L2.196,53.137C2.177,53.118 2.167,53.093 2.167,53.066L-0.833,53.066ZM0.074,55.258C0.656,55.84 1.444,56.166 2.267,56.166L2.267,53.166C2.24,53.166 2.215,53.156 2.196,53.137L0.074,55.258ZM2.267,56.166L24.667,56.166L24.667,53.166L2.267,53.166L2.267,56.166ZM11.333,24.166L32.667,24.166L32.667,21.166L11.333,21.166L11.333,24.166ZM11.333,13.5L22,13.5L22,10.5L11.333,10.5L11.333,13.5ZM11.333,34.833L19.333,34.833L19.333,31.833L11.333,31.833L11.333,34.833Z" fill="#000000"/>
<path d="M34.167,1.333C34.167,0.505 33.495,-0.167 32.667,-0.167C31.838,-0.167 31.167,0.505 31.167,1.333L34.167,1.333ZM32.667,10.4L34.167,10.4L32.667,10.4ZM43.333,13.5C44.162,13.5 44.833,12.828 44.833,12C44.833,11.171 44.162,10.5 43.333,10.5L43.333,13.5ZM43.312,36.333L43.681,34.879L43.681,34.879L43.312,36.333ZM50.128,38.064L50.499,36.61L50.497,36.61L50.128,38.064ZM51.315,39.621L52.814,39.666L52.814,39.665L51.315,39.621ZM42,57.333L41.614,58.783C41.867,58.85 42.133,58.85 42.386,58.783L42,57.333ZM32.685,39.621L31.185,39.652L31.186,39.666L32.685,39.621ZM33.872,38.064L34.24,39.518L34.241,39.518L33.872,38.064ZM40.688,36.333L40.319,34.879L40.319,34.879L40.688,36.333ZM31.167,1.333L31.167,10.4L34.167,10.4L34.167,1.333L31.167,1.333ZM31.167,10.4C31.167,11.222 31.493,12.01 32.074,12.592L34.196,10.47C34.177,10.452 34.167,10.426 34.167,10.4L31.167,10.4ZM32.074,12.592C32.656,13.173 33.444,13.5 34.267,13.5L34.267,10.5C34.24,10.5 34.215,10.489 34.196,10.47L32.074,12.592ZM34.267,13.5L43.333,13.5L43.333,10.5L34.267,10.5L34.267,13.5ZM42.943,37.787L49.759,39.518L50.497,36.61L43.681,34.879L42.943,37.787ZM49.756,39.517C49.777,39.522 49.793,39.533 49.804,39.548C49.814,39.561 49.815,39.571 49.815,39.577L52.814,39.665C52.856,38.214 51.87,36.961 50.499,36.61L49.756,39.517ZM49.815,39.576C49.595,46.948 47.373,51.02 45.373,53.228C44.363,54.344 43.378,55.02 42.667,55.411C42.312,55.606 42.025,55.731 41.838,55.804C41.745,55.84 41.677,55.863 41.638,55.876C41.618,55.882 41.606,55.885 41.602,55.887C41.6,55.887 41.6,55.887 41.602,55.887C41.603,55.886 41.604,55.886 41.606,55.886C41.607,55.885 41.609,55.885 41.61,55.885C41.61,55.884 41.612,55.884 41.612,55.884C41.613,55.884 41.614,55.883 42,57.333C42.386,58.783 42.387,58.782 42.388,58.782C42.389,58.782 42.39,58.781 42.391,58.781C42.392,58.781 42.394,58.78 42.396,58.78C42.401,58.778 42.405,58.777 42.41,58.776C42.421,58.773 42.434,58.769 42.448,58.765C42.478,58.756 42.515,58.745 42.561,58.73C42.652,58.7 42.775,58.658 42.925,58.6C43.224,58.484 43.632,58.304 44.114,58.039C45.078,57.508 46.336,56.634 47.597,55.242C50.14,52.433 52.575,47.649 52.814,39.666L49.815,39.576ZM42,57.333C42.386,55.883 42.387,55.884 42.388,55.884C42.388,55.884 42.389,55.884 42.39,55.885C42.391,55.885 42.392,55.885 42.393,55.886C42.395,55.886 42.397,55.886 42.398,55.887C42.4,55.887 42.399,55.887 42.397,55.887C42.393,55.885 42.381,55.882 42.362,55.876C42.323,55.863 42.255,55.84 42.162,55.804C41.975,55.731 41.688,55.606 41.332,55.411C40.622,55.02 39.637,54.344 38.626,53.228C36.627,51.02 34.405,46.948 34.185,39.576L31.186,39.666C31.424,47.649 33.86,52.433 36.403,55.242C37.663,56.634 38.921,57.508 39.886,58.039C40.367,58.304 40.776,58.484 41.075,58.6C41.225,58.658 41.347,58.7 41.439,58.73C41.484,58.745 41.522,58.756 41.551,58.765C41.566,58.769 41.579,58.773 41.589,58.776C41.594,58.777 41.599,58.778 41.603,58.78C41.605,58.78 41.607,58.781 41.609,58.781C41.61,58.781 41.611,58.782 41.612,58.782C41.613,58.782 41.614,58.783 42,57.333ZM34.185,39.59C34.185,39.574 34.19,39.558 34.2,39.544L31.814,37.726C31.393,38.279 31.171,38.957 31.185,39.652L34.185,39.59ZM34.2,39.544C34.21,39.531 34.224,39.522 34.24,39.518L33.504,36.61C32.83,36.78 32.235,37.174 31.814,37.726L34.2,39.544ZM34.241,39.518L41.057,37.787L40.319,34.879L33.503,36.61L34.241,39.518ZM41.057,37.787C41.676,37.63 42.324,37.63 42.943,37.787L43.681,34.879C42.577,34.599 41.422,34.599 40.319,34.879L41.057,37.787Z" fill="#000000"/>
</svg>
