<svg width="56" height="52" viewBox="0 0 56 52" fill="none" xmlns="http://www.w3.org/2000/svg" xmlns:xlink="http://www.w3.org/1999/xlink">
<path d="M15.936,7.704C17.614,6.266 17.808,3.741 16.37,2.064C14.932,0.386 12.407,0.192 10.73,1.63L15.936,7.704ZM4,12.667L1.397,9.63C0.551,10.355 0.046,11.4 0.003,12.513C-0.04,13.627 0.384,14.708 1.172,15.495L4,12.667ZM10.505,24.829C12.067,26.391 14.599,26.391 16.161,24.829C17.724,23.267 17.724,20.734 16.162,19.172L10.505,24.829ZM10.73,1.63L1.397,9.63L6.603,15.704L15.936,7.704L10.73,1.63ZM1.172,15.495L10.505,24.829L16.162,19.172L6.828,9.839L1.172,15.495Z" fill="#000000"/>
<path d="M4,8.667C1.791,8.667 0,10.458 0,12.667C0,14.876 1.791,16.667 4,16.667L4,8.667ZM51.987,29.334L55.984,29.178L55.984,29.178L51.987,29.334ZM11.998,43.334C9.789,43.334 7.998,45.125 7.998,47.334C7.998,49.543 9.789,51.334 11.998,51.334L11.998,43.334ZM4,16.667L34.658,16.667L34.658,8.667L4,8.667L4,16.667ZM34.658,16.667C41.687,16.667 47.716,22.464 47.99,29.49L55.984,29.178C55.543,17.858 45.984,8.667 34.658,8.667L34.658,16.667ZM47.99,29.49C48.28,36.908 42.091,43.334 34.658,43.334L34.658,51.334C46.621,51.334 56.451,41.145 55.984,29.178L47.99,29.49ZM34.658,43.334L11.998,43.334L11.998,51.334L34.658,51.334L34.658,43.334Z" fill="#000000"/>
</svg>
