<svg width="54" height="46" viewBox="0 0 54 46" fill="none" xmlns="http://www.w3.org/2000/svg" xmlns:xlink="http://www.w3.org/1999/xlink">
<path d="M44,0L44,-1L44,0ZM8,0L8,-1L8,0ZM0,8L-1,8L0,8ZM0,28L-1,28L0,28ZM30,36L30.555,35.168C30.39,35.058 30.197,35 30,35L30,36ZM42,44L41.445,44.832C41.752,45.037 42.147,45.056 42.472,44.882C42.797,44.708 43,44.369 43,44L42,44ZM42,36L42,35C41.448,35 41,35.448 41,36L42,36ZM44,-1L8,-1L8,1L44,1L44,-1ZM8,-1C5.613,-1 3.324,-0.052 1.636,1.636L3.05,3.05C4.363,1.737 6.143,1 8,1L8,-1ZM1.636,1.636C-0.052,3.324 -1,5.613 -1,8L1,8C1,6.143 1.737,4.363 3.05,3.05L1.636,1.636ZM-1,8L-1,28L1,28L1,8L-1,8ZM-1,28C-1,30.387 -0.052,32.676 1.636,34.364L3.05,32.95C1.737,31.637 1,29.857 1,28L-1,28ZM1.636,34.364C3.324,36.052 5.613,37 8,37L8,35C6.143,35 4.363,34.263 3.05,32.95L1.636,34.364ZM8,37L30,37L30,35L8,35L8,37ZM29.445,36.832L41.445,44.832L42.555,43.168L30.555,35.168L29.445,36.832ZM43,44L43,36L41,36L41,44L43,44ZM42,37L44,37L44,35L42,35L42,37ZM44,37C46.387,37 48.676,36.052 50.364,34.364L48.95,32.95C47.637,34.263 45.857,35 44,35L44,37ZM50.364,34.364C52.052,32.676 53,30.387 53,28L51,28C51,29.857 50.263,31.637 48.95,32.95L50.364,34.364ZM53,28L53,8L51,8L51,28L53,28ZM53,8C53,5.613 52.052,3.324 50.364,1.636L48.95,3.05C50.263,4.363 51,6.143 51,8L53,8ZM50.364,1.636C48.676,-0.052 46.387,-1 44,-1L44,1C45.857,1 47.637,1.737 48.95,3.05L50.364,1.636Z" fill="#000000"/>
<path d="M10,20L11,20L10,20ZM13,20C13,20.265 12.895,20.52 12.707,20.707L14.121,22.121C14.684,21.559 15,20.796 15,20L13,20ZM12.707,20.707C12.52,20.895 12.265,21 12,21L12,23C12.796,23 13.559,22.684 14.121,22.121L12.707,20.707ZM12,21C11.735,21 11.48,20.895 11.293,20.707L9.879,22.121C10.441,22.684 11.204,23 12,23L12,21ZM11.293,20.707C11.105,20.52 11,20.265 11,20L9,20C9,20.796 9.316,21.559 9.879,22.121L11.293,20.707ZM11,20C11,19.735 11.105,19.48 11.293,19.293L9.879,17.879C9.316,18.441 9,19.204 9,20L11,20ZM11.293,19.293C11.48,19.105 11.735,19 12,19L12,17C11.204,17 10.441,17.316 9.879,17.879L11.293,19.293ZM12,19C12.265,19 12.52,19.105 12.707,19.293L14.121,17.879C13.559,17.316 12.796,17 12,17L12,19ZM12.707,19.293C12.895,19.48 13,19.735 13,20L15,20C15,19.204 14.684,18.441 14.121,17.879L12.707,19.293ZM25,20C25,20.265 24.895,20.52 24.707,20.707L26.121,22.121C26.684,21.559 27,20.796 27,20L25,20ZM24.707,20.707C24.52,20.895 24.265,21 24,21L24,23C24.796,23 25.559,22.684 26.121,22.121L24.707,20.707ZM24,21C23.735,21 23.48,20.895 23.293,20.707L21.879,22.121C22.441,22.684 23.204,23 24,23L24,21ZM23.293,20.707C23.105,20.52 23,20.265 23,20L21,20C21,20.796 21.316,21.559 21.879,22.121L23.293,20.707ZM23,20C23,19.735 23.105,19.48 23.293,19.293L21.879,17.879C21.316,18.441 21,19.204 21,20L23,20ZM23.293,19.293C23.48,19.105 23.735,19 24,19L24,17C23.204,17 22.441,17.316 21.879,17.879L23.293,19.293ZM24,19C24.265,19 24.52,19.105 24.707,19.293L26.121,17.879C25.559,17.316 24.796,17 24,17L24,19ZM24.707,19.293C24.895,19.48 25,19.735 25,20L27,20C27,19.204 26.684,18.441 26.121,17.879L24.707,19.293ZM37,20C37,20.265 36.895,20.52 36.707,20.707L38.121,22.121C38.684,21.559 39,20.796 39,20L37,20ZM36.707,20.707C36.52,20.895 36.265,21 36,21L36,23C36.796,23 37.559,22.684 38.121,22.121L36.707,20.707ZM36,21C35.735,21 35.48,20.895 35.293,20.707L33.879,22.121C34.441,22.684 35.204,23 36,23L36,21ZM35.293,20.707C35.105,20.52 35,20.265 35,20L33,20C33,20.796 33.316,21.559 33.879,22.121L35.293,20.707ZM35,20C35,19.735 35.105,19.48 35.293,19.293L33.879,17.879C33.316,18.441 33,19.204 33,20L35,20ZM35.293,19.293C35.48,19.105 35.735,19 36,19L36,17C35.204,17 34.441,17.316 33.879,17.879L35.293,19.293ZM36,19C36.265,19 36.52,19.105 36.707,19.293L38.121,17.879C37.559,17.316 36.796,17 36,17L36,19ZM36.707,19.293C36.895,19.48 37,19.735 37,20L39,20C39,19.204 38.684,18.441 38.121,17.879L36.707,19.293Z" fill="#000000"/>
</svg>
