<svg width="44" height="44" viewBox="0 0 44 44" fill="none" xmlns="http://www.w3.org/2000/svg" xmlns:xlink="http://www.w3.org/1999/xlink">
<path d="M2,10L2,8C0.895,8 0,8.895 0,10L2,10ZM42,10L44,10C44,8.895 43.105,8 42,8L42,10ZM42,18L43.03,19.714C43.632,19.353 44,18.702 44,18L42,18ZM40.602,18.84L41.631,20.555L41.632,20.554L40.602,18.84ZM37,19.838L37,21.838L37,19.838ZM33.399,18.84L32.369,20.555L32.37,20.555L33.399,18.84ZM32,18L33.03,16.285C32.396,15.905 31.604,15.905 30.97,16.286L32,18ZM30.602,18.84L31.631,20.555L31.632,20.554L30.602,18.84ZM27,19.838L27,21.838L27,19.838ZM23.399,18.84L22.369,20.555L22.37,20.555L23.399,18.84ZM22,18L23.03,16.285C22.396,15.905 21.604,15.905 20.97,16.286L22,18ZM20.602,18.84L21.631,20.555L21.632,20.554L20.602,18.84ZM17.001,19.838L17.001,21.838L17.001,19.838ZM13.399,18.84L12.369,20.555L12.37,20.555L13.399,18.84ZM12,18L13.03,16.285C12.396,15.905 11.604,15.905 10.97,16.285L12,18ZM10.601,18.84L11.63,20.555L11.631,20.555L10.601,18.84ZM7,19.837L7,17.837L7,19.837ZM3.399,18.84L2.369,20.555L2.37,20.555L3.399,18.84ZM2,18L0,18C0,18.702 0.368,19.353 0.97,19.715L2,18ZM2,12L42,12L42,8L2,8L2,12ZM40,10L40,18L44,18L44,10L40,10ZM40.97,16.286L39.572,17.126L41.632,20.554L43.03,19.714L40.97,16.286ZM39.573,17.125C38.796,17.591 37.907,17.838 37,17.838L37,21.838C38.632,21.838 40.232,21.394 41.631,20.555L39.573,17.125ZM37,17.838C36.094,17.838 35.205,17.591 34.428,17.125L32.37,20.555C33.769,21.394 35.369,21.838 37,21.838L37,17.838ZM34.429,17.125L33.03,16.285L30.97,19.715L32.369,20.555L34.429,17.125ZM30.97,16.286L29.572,17.126L31.632,20.554L33.03,19.714L30.97,16.286ZM29.573,17.125C28.796,17.591 27.907,17.838 27,17.838L27,21.838C28.632,21.838 30.232,21.394 31.631,20.555L29.573,17.125ZM27,17.838C26.094,17.838 25.205,17.591 24.428,17.125L22.37,20.555C23.769,21.394 25.369,21.838 27,21.838L27,17.838ZM24.429,17.125L23.03,16.285L20.97,19.715L22.369,20.555L24.429,17.125ZM20.97,16.286L19.572,17.126L21.632,20.554L23.03,19.714L20.97,16.286ZM19.573,17.125C18.796,17.591 17.907,17.838 17.001,17.838L17.001,21.838C18.632,21.838 20.232,21.394 21.631,20.555L19.573,17.125ZM17.001,17.838C16.094,17.838 15.205,17.591 14.428,17.125L12.37,20.555C13.769,21.394 15.369,21.838 17.001,21.838L17.001,17.838ZM14.429,17.125L13.03,16.285L10.97,19.715L12.369,20.555L14.429,17.125ZM10.97,16.285L9.571,17.125L11.631,20.555L13.03,19.715L10.97,16.285ZM9.572,17.125C8.795,17.591 7.906,17.837 7,17.837L7,21.837C8.631,21.837 10.231,21.394 11.63,20.555L9.572,17.125ZM7,17.837C6.094,17.837 5.205,17.591 4.428,17.125L2.37,20.555C3.769,21.394 5.369,21.837 7,21.837L7,17.837ZM4.429,17.125L3.03,16.285L0.97,19.715L2.369,20.555L4.429,17.125ZM4,18L4,10L0,10L0,18L4,18Z" fill="#000000"/>
<path d="M8,20.489C8,19.384 7.105,18.489 6,18.489C4.895,18.489 4,19.384 4,20.489L8,20.489ZM6,42L4,42C4,43.105 4.895,44 6,44L6,42ZM38,42L38,44C39.105,44 40,43.105 40,42L38,42ZM40,20C40,18.895 39.105,18 38,18C36.895,18 36,18.895 36,20L40,20ZM4,9.822C4,10.927 4.895,11.822 6,11.822C7.105,11.822 8,10.927 8,9.822L4,9.822ZM6,2L6,0C4.895,0 4,0.895 4,2L6,2ZM38,2L40,2C40,0.895 39.105,0 38,0L38,2ZM36,10C36,11.105 36.895,12 38,12C39.105,12 40,11.105 40,10L36,10ZM4,20.489L4,42L8,42L8,20.489L4,20.489ZM6,44L38,44L38,40L6,40L6,44ZM40,42L40,20L36,20L36,42L40,42ZM8,9.822L8,2L4,2L4,9.822L8,9.822ZM6,4L38,4L38,0L6,0L6,4ZM36,2L36,10L40,10L40,2L36,2Z" fill="#000000"/>
<path d="M17,30L17,28C15.895,28 15,28.895 15,30L17,30ZM27,30L29,30C29,28.895 28.105,28 27,28L27,30ZM27,42L27,44C28.105,44 29,43.105 29,42L27,42ZM17,42L15,42C15,43.105 15.895,44 17,44L17,42ZM17,32L27,32L27,28L17,28L17,32ZM25,30L25,42L29,42L29,30L25,30ZM27,40L17,40L17,44L27,44L27,40ZM19,42L19,30L15,30L15,42L19,42Z" fill="#000000"/>
</svg>
