<svg width="60" height="60" viewBox="0 0 60 60" fill="none" xmlns="http://www.w3.org/2000/svg" xmlns:xlink="http://www.w3.org/1999/xlink">
<path d="M60,30C60,13.432 46.568,0 30,0C13.432,0 0,13.432 0,30C0,44.974 10.971,57.385 25.312,59.636L25.312,38.672L17.695,38.672L17.695,30L25.312,30L25.312,23.391C25.312,15.872 29.791,11.719 36.644,11.719C39.926,11.719 43.359,12.305 43.359,12.305L43.359,19.688L39.577,19.688C35.85,19.688 34.688,22 34.688,24.373L34.688,30L43.008,30L41.678,38.672L34.688,38.672L34.688,59.636C49.029,57.385 60,44.974 60,30Z" fill="#1877F2"/>
<path d="M41.678,38.672L43.008,30L34.687,30L34.687,24.373C34.687,22 35.85,19.688 39.577,19.688L43.359,19.688L43.359,12.305C43.359,12.305 39.926,11.719 36.644,11.719C29.791,11.719 25.312,15.872 25.312,23.391L25.312,30L17.695,30L17.695,38.672L25.312,38.672L25.312,59.636C26.863,59.879 28.43,60 30,60C31.57,60.001 33.137,59.879 34.687,59.636L34.687,38.672L41.678,38.672Z" fill="#FFFFFF"/>
</svg>
