<svg width="48" height="54" viewBox="0 0 48 54" fill="none" xmlns="http://www.w3.org/2000/svg" xmlns:xlink="http://www.w3.org/1999/xlink">
<path d="M22.373,0.098C19.835,2.301 17.916,5.129 16.807,8.302C15.699,11.474 15.439,14.882 16.053,18.186C11.995,15.85 7.52,15.146 2.379,15.573C2.043,15.602 1.717,15.696 1.419,15.851C1.12,16.007 0.855,16.219 0.638,16.476C0.422,16.734 0.258,17.032 0.157,17.353C0.056,17.673 0.019,18.011 0.048,18.346C0.467,22.949 2.587,27.514 5.541,31.082C4.428,31.073 3.315,31.142 2.211,31.288C1.576,31.372 0.997,31.697 0.594,32.195C0.191,32.693 -0.007,33.326 0.043,33.965C0.434,39.053 2.732,43.805 6.476,47.272C10.22,50.739 15.135,52.666 20.237,52.666L27.76,52.666C32.863,52.666 37.779,50.74 41.523,47.273C45.268,43.806 47.566,39.053 47.957,33.965C48.006,33.326 47.809,32.692 47.405,32.194C47.001,31.696 46.422,31.372 45.787,31.288C44.696,31.144 43.596,31.075 42.496,31.082C45.451,27.512 47.571,22.949 47.989,18.346C48.019,18.011 47.981,17.673 47.88,17.352C47.778,17.031 47.615,16.733 47.398,16.476C47.181,16.218 46.916,16.006 46.617,15.851C46.318,15.696 45.991,15.601 45.656,15.573C40.515,15.146 36.016,15.85 31.944,18.186C32.559,14.882 32.299,11.475 31.191,8.302C30.083,5.129 28.165,2.301 25.627,0.098C25.175,-0.294 24.598,-0.51 24,-0.51C23.402,-0.51 22.825,-0.294 22.373,0.098ZM24,25.272C21.261,22.421 19.732,18.621 19.732,14.668C19.732,10.714 21.261,6.914 24,4.064C26.738,6.914 28.267,10.714 28.267,14.666C28.267,18.619 26.738,22.418 24,25.269M24,40.221C21.095,36.525 17.169,33.764 12.709,32.28C12.623,32.198 12.531,32.122 12.435,32.053C8.515,29.386 5.181,24.469 4.24,19.466C9.224,19.301 13.136,20.498 16.707,23.522C19.44,25.84 20.653,28.664 21.552,30.762C21.787,31.306 21.997,31.802 22.211,32.224C22.377,32.555 22.632,32.834 22.948,33.029C23.264,33.224 23.628,33.327 23.999,33.327C24.37,33.327 24.733,33.224 25.049,33.029C25.365,32.834 25.62,32.555 25.787,32.224C25.996,31.797 26.216,31.31 26.445,30.762C27.347,28.664 28.557,25.837 31.291,23.522C34.861,20.501 38.803,19.301 43.797,19.466C42.853,24.469 39.523,29.386 35.603,32.053C35.513,32.116 35.428,32.185 35.347,32.258C30.863,33.739 26.916,36.507 24,40.221ZM25.715,44.773C29.429,38.56 36.387,34.693 43.792,35.112C43.153,38.901 41.192,42.343 38.258,44.824C35.323,47.305 31.603,48.667 27.76,48.666L20.24,48.666C12.24,48.666 5.509,42.864 4.211,35.114C11.613,34.693 18.571,38.557 22.285,44.773C22.463,45.069 22.714,45.315 23.015,45.485C23.316,45.656 23.656,45.746 24.001,45.746C24.347,45.746 24.687,45.656 24.988,45.485C25.288,45.315 25.54,45.069 25.717,44.773Z" fill="#000000"/>
</svg>
