<svg width="60" height="50" viewBox="0 0 60 50" fill="none" xmlns="http://www.w3.org/2000/svg" xmlns:xlink="http://www.w3.org/1999/xlink">
<path d="M27.295,39.185C27.575,39.464 27.797,39.795 27.948,40.16C28.099,40.525 28.177,40.916 28.177,41.31C28.177,41.705 28.099,42.096 27.948,42.461C27.797,42.825 27.575,43.157 27.295,43.435L26.015,44.715C24.656,46.079 23.041,47.16 21.261,47.896C19.482,48.631 17.575,49.007 15.65,49C12.751,49.001 9.916,48.142 7.506,46.532C5.095,44.922 3.216,42.633 2.106,39.954C0.996,37.276 0.706,34.328 1.272,31.485C1.838,28.642 3.234,26.03 5.285,23.98L13.972,15.293C15.82,13.445 18.128,12.125 20.658,11.469C23.187,10.813 25.846,10.845 28.359,11.562C30.871,12.279 33.147,13.654 34.95,15.545C36.753,17.437 38.017,19.776 38.612,22.32C38.711,22.707 38.731,23.11 38.672,23.505C38.613,23.9 38.476,24.279 38.269,24.62C38.061,24.961 37.788,25.257 37.465,25.491C37.141,25.725 36.774,25.893 36.385,25.983C35.997,26.074 35.594,26.086 35.2,26.018C34.807,25.951 34.43,25.806 34.094,25.592C33.757,25.377 33.466,25.098 33.239,24.769C33.012,24.441 32.852,24.071 32.77,23.68C32.417,22.178 31.669,20.798 30.603,19.682C29.538,18.566 28.194,17.755 26.71,17.332C25.226,16.91 23.656,16.891 22.163,17.278C20.669,17.666 19.306,18.445 18.215,19.535L9.527,28.223C8.316,29.433 7.492,30.975 7.157,32.654C6.822,34.332 6.993,36.073 7.648,37.655C8.302,39.236 9.411,40.589 10.834,41.54C12.257,42.492 13.931,43 15.642,43C16.78,43.004 17.907,42.781 18.958,42.346C20.009,41.911 20.963,41.272 21.765,40.465L23.042,39.185C23.321,38.905 23.653,38.683 24.017,38.531C24.382,38.38 24.774,38.302 25.169,38.302C25.564,38.302 25.955,38.38 26.32,38.531C26.685,38.683 27.016,38.905 27.295,39.185ZM54.707,3.293C51.958,0.544 48.229,-1 44.341,-1C40.453,-1 36.725,0.544 33.975,3.293L32.697,4.57C32.134,5.134 31.817,5.898 31.817,6.695C31.817,7.492 32.134,8.257 32.697,8.82C33.261,9.384 34.025,9.701 34.822,9.701C35.619,9.701 36.384,9.384 36.947,8.82L38.227,7.54C39.852,5.916 42.055,5.003 44.352,5.003C46.65,5.003 48.853,5.916 50.477,7.54C52.102,9.165 53.014,11.368 53.014,13.665C53.014,15.963 52.102,18.166 50.477,19.79L41.775,28.465C40.973,29.272 40.019,29.911 38.968,30.346C37.917,30.781 36.79,31.004 35.652,31C33.701,30.999 31.808,30.338 30.279,29.126C28.75,27.913 27.676,26.22 27.23,24.32C27.05,23.545 26.569,22.874 25.893,22.453C25.217,22.032 24.403,21.897 23.627,22.078C22.852,22.258 22.181,22.739 21.76,23.415C21.34,24.09 21.205,24.905 21.385,25.68C22.138,28.898 23.955,31.766 26.543,33.821C29.13,35.876 32.336,36.996 35.64,37L35.652,37C37.578,37.006 39.486,36.629 41.266,35.892C43.046,35.155 44.661,34.073 46.02,32.708L54.707,24.02C56.069,22.659 57.148,21.044 57.885,19.266C58.622,17.487 59.001,15.581 59.001,13.657C59.001,11.732 58.622,9.826 57.885,8.048C57.148,6.269 56.069,4.654 54.707,3.293Z" fill="#000000"/>
</svg>
