<svg width="54" height="66" viewBox="0 0 54 66" fill="none" xmlns="http://www.w3.org/2000/svg" xmlns:xlink="http://www.w3.org/1999/xlink">
<path d="M27.626,1.069C27.178,0.639 26.598,0.401 25.998,0.401C25.398,0.401 24.818,0.639 24.37,1.069C21.361,3.949 19.15,7.671 17.982,11.824C16.814,15.977 16.735,20.397 17.754,24.595C12.931,21.521 7.341,20.142 1.76,20.651C1.428,20.68 1.106,20.78 0.81,20.945C0.515,21.109 0.253,21.335 0.039,21.61C-0.175,21.884 -0.337,22.201 -0.437,22.544C-0.537,22.886 -0.573,23.246 -0.543,23.603C-0.072,29.199 2.36,34.755 5.731,39.06C4.408,38.967 3.081,38.981 1.76,39.101C1.428,39.13 1.106,39.23 0.81,39.395C0.515,39.559 0.253,39.785 0.039,40.06C-0.175,40.334 -0.337,40.651 -0.437,40.994C-0.537,41.336 -0.573,41.696 -0.543,42.053C0.005,48.542 2.781,54.576 7.241,58.969C11.7,63.363 17.521,65.799 23.56,65.8L28.436,65.8C34.474,65.798 40.293,63.362 44.752,58.969C49.21,54.577 51.986,48.545 52.535,42.057C52.565,41.699 52.53,41.339 52.43,40.996C52.331,40.654 52.169,40.336 51.955,40.061C51.741,39.786 51.478,39.56 51.183,39.395C50.887,39.23 50.564,39.13 50.232,39.101C48.912,38.981 47.584,38.967 46.261,39.06C49.632,34.755 52.064,29.199 52.531,23.603C52.561,23.246 52.524,22.887 52.425,22.545C52.325,22.203 52.163,21.886 51.95,21.612C51.736,21.338 51.475,21.112 51.18,20.947C50.885,20.782 50.563,20.681 50.232,20.651C44.652,20.143 39.064,21.522 34.242,24.595C35.261,20.397 35.183,15.977 34.016,11.825C32.849,7.672 30.635,3.949 27.626,1.069ZM26,51.155C22.75,46.291 18.195,42.619 12.951,40.634L12.818,40.528C8.254,37.182 4.393,30.95 3.416,24.661C9.136,24.5 14.71,26.619 19.072,30.614C21.957,33.25 22.751,35.657 23.461,37.822C23.72,38.601 23.967,39.351 24.297,40.064C24.455,40.406 24.698,40.693 24.998,40.893C25.298,41.094 25.645,41.2 25.998,41.2C26.351,41.2 26.698,41.094 26.998,40.893C27.298,40.693 27.541,40.406 27.698,40.064C28.029,39.351 28.276,38.601 28.534,37.818C29.245,35.661 30.039,33.25 32.927,30.614C37.288,26.619 42.861,24.498 48.579,24.657C47.603,30.95 43.742,37.178 39.178,40.528L39.045,40.634C33.802,42.619 29.249,46.291 26,51.155ZM23.56,61.7C18.699,61.698 13.998,59.825 10.304,56.416C6.61,53.007 4.165,48.288 3.409,43.107C7.653,42.989 11.846,44.125 15.534,46.392C19.223,48.659 22.268,51.97 24.339,55.968C24.504,56.287 24.745,56.552 25.036,56.737C25.328,56.921 25.66,57.018 25.998,57.018C26.336,57.018 26.668,56.921 26.96,56.737C27.251,56.552 27.492,56.287 27.657,55.968C29.728,51.97 32.773,48.659 36.461,46.392C40.15,44.125 44.343,42.989 48.587,43.107C47.831,48.288 45.385,53.008 41.69,56.417C37.995,59.826 33.293,61.699 28.432,61.7L23.56,61.7ZM25.996,32.246C22.699,28.613 20.853,23.732 20.853,18.648C20.853,13.564 22.699,8.683 25.996,5.05C29.293,8.683 31.139,13.564 31.139,18.648C31.139,23.732 29.293,28.613 25.996,32.246Z" fill="#000000"/>
</svg>
