<svg width="10" height="14" viewBox="0 0 10 14" fill="none" xmlns="http://www.w3.org/2000/svg" xmlns:xlink="http://www.w3.org/1999/xlink">
<path d="M5.206,0.644C5.096,0.504 4.948,0.425 4.793,0.425C4.638,0.425 4.49,0.504 4.38,0.644L1.077,4.869C1.021,4.938 0.976,5.02 0.946,5.111C0.915,5.202 0.899,5.3 0.898,5.399C0.898,5.499 0.912,5.597 0.942,5.689C0.971,5.78 1.015,5.864 1.069,5.934C1.124,6.004 1.189,6.06 1.261,6.097C1.333,6.135 1.41,6.154 1.487,6.153C1.565,6.152 1.642,6.131 1.713,6.092C1.784,6.053 1.848,5.996 1.902,5.925L4.209,2.975L4.209,12.865C4.209,13.063 4.271,13.253 4.38,13.393C4.49,13.533 4.638,13.612 4.793,13.612C4.948,13.612 5.096,13.533 5.206,13.393C5.316,13.253 5.377,13.063 5.377,12.865L5.377,2.975L7.684,5.925C7.794,6.061 7.941,6.136 8.095,6.134C8.248,6.133 8.394,6.054 8.502,5.916C8.611,5.777 8.672,5.59 8.673,5.394C8.675,5.198 8.616,5.01 8.51,4.869L5.206,0.644Z" transform="rotate(179.78 4.786 7.018)" fill="#000000"/>
</svg>
