<svg width="52" height="52" viewBox="0 0 52 52" fill="none" xmlns="http://www.w3.org/2000/svg" xmlns:xlink="http://www.w3.org/1999/xlink">
<path d="M26,50L26,52L26,50ZM50,26L52,26L50,26ZM26,2L26,0L26,2ZM2,26L0,26L2,26ZM19.6,14.133C18.937,13.25 17.684,13.071 16.8,13.733C15.916,14.396 15.737,15.65 16.4,16.533L19.6,14.133ZM32.4,37.867C33.063,38.75 34.316,38.929 35.2,38.267C36.084,37.604 36.263,36.35 35.6,35.467L32.4,37.867ZM35.6,16.533C36.263,15.65 36.084,14.396 35.2,13.733C34.316,13.071 33.063,13.25 32.4,14.133L35.6,16.533ZM16.4,35.467C15.737,36.35 15.916,37.604 16.8,38.267C17.684,38.929 18.937,38.75 19.6,37.867L16.4,35.467ZM26,52C32.896,52 39.509,49.261 44.385,44.385L41.556,41.556C37.431,45.682 31.835,48 26,48L26,52ZM44.385,44.385C49.261,39.509 52,32.896 52,26L48,26C48,31.835 45.682,37.431 41.556,41.556L44.385,44.385ZM52,26C52,19.104 49.261,12.491 44.385,7.615L41.556,10.444C45.682,14.569 48,20.165 48,26L52,26ZM44.385,7.615C39.509,2.739 32.896,0 26,0L26,4C31.835,4 37.431,6.318 41.556,10.444L44.385,7.615ZM26,0C19.104,0 12.491,2.739 7.615,7.615L10.444,10.444C14.569,6.318 20.165,4 26,4L26,0ZM7.615,7.615C2.739,12.491 0,19.104 0,26L4,26C4,20.165 6.318,14.569 10.444,10.444L7.615,7.615ZM0,26C0,32.896 2.739,39.509 7.615,44.385L10.444,41.556C6.318,37.431 4,31.835 4,26L0,26ZM7.615,44.385C12.491,49.261 19.104,52 26,52L26,48C20.165,48 14.569,45.682 10.444,41.556L7.615,44.385ZM16.4,16.533L32.4,37.867L35.6,35.467L19.6,14.133L16.4,16.533ZM32.4,14.133L16.4,35.467L19.6,37.867L35.6,16.533L32.4,14.133Z" fill="#000000"/>
</svg>
