<svg width="32" height="22" viewBox="0 0 32 22" fill="none" xmlns="http://www.w3.org/2000/svg" xmlns:xlink="http://www.w3.org/1999/xlink">
<path d="M16.73,-0.266L20.797,6.179L29.89,7.212C30.074,7.233 30.248,7.294 30.39,7.387C30.533,7.481 30.639,7.604 30.696,7.743C30.754,7.882 30.761,8.03 30.716,8.171C30.671,8.313 30.577,8.442 30.443,8.543L23.864,13.559L25.417,20.644C25.448,20.787 25.427,20.934 25.357,21.069C25.287,21.204 25.17,21.32 25.02,21.406C24.869,21.491 24.691,21.542 24.506,21.553C24.32,21.563 24.135,21.533 23.97,21.465L15.836,18.121L7.704,21.465C7.539,21.533 7.354,21.563 7.168,21.553C6.982,21.542 6.804,21.491 6.654,21.406C6.503,21.32 6.386,21.203 6.316,21.068C6.246,20.934 6.226,20.786 6.257,20.643L7.81,13.559L1.231,8.543C1.097,8.442 1.003,8.313 0.958,8.172C0.913,8.03 0.92,7.882 0.978,7.743C1.035,7.605 1.141,7.482 1.284,7.388C1.426,7.294 1.6,7.234 1.784,7.213L10.877,6.179L14.941,-0.266C15.024,-0.396 15.151,-0.506 15.309,-0.583C15.467,-0.659 15.65,-0.7 15.836,-0.7C16.022,-0.7 16.204,-0.659 16.362,-0.583C16.52,-0.506 16.648,-0.396 16.73,-0.266Z" fill="#FFB93E"/>
</svg>
