<svg width="10" height="14" viewBox="0 0 10 14" fill="none" xmlns="http://www.w3.org/2000/svg" xmlns:xlink="http://www.w3.org/1999/xlink">
<path d="M4.641,0.644C4.531,0.504 4.383,0.425 4.228,0.425C4.073,0.425 3.925,0.504 3.815,0.644L0.512,4.869C0.456,4.938 0.411,5.02 0.381,5.111C0.35,5.202 0.334,5.3 0.333,5.399C0.333,5.499 0.347,5.597 0.377,5.689C0.406,5.78 0.45,5.864 0.504,5.934C0.559,6.004 0.624,6.06 0.696,6.097C0.768,6.135 0.845,6.154 0.922,6.153C1,6.152 1.077,6.131 1.148,6.092C1.219,6.053 1.284,5.996 1.337,5.925L3.644,2.975L3.644,12.865C3.644,13.063 3.706,13.253 3.815,13.393C3.925,13.533 4.073,13.612 4.228,13.612C4.383,13.612 4.532,13.533 4.641,13.393C4.751,13.253 4.812,13.063 4.812,12.865L4.812,2.975L7.119,5.925C7.229,6.061 7.376,6.136 7.53,6.134C7.683,6.133 7.829,6.054 7.937,5.916C8.046,5.777 8.107,5.59 8.108,5.394C8.11,5.198 8.051,5.01 7.945,4.869L4.641,0.644Z" transform="rotate(179.78 4.221 7.018)" fill="#000000"/>
</svg>
