<svg width="32" height="24" viewBox="0 0 32 24" fill="none" xmlns="http://www.w3.org/2000/svg" xmlns:xlink="http://www.w3.org/1999/xlink">
<path d="M16.171,0.694L20.239,7.139L29.331,8.172C29.516,8.193 29.689,8.254 29.831,8.347C29.974,8.441 30.08,8.564 30.138,8.703C30.195,8.842 30.202,8.99 30.157,9.131C30.112,9.273 30.018,9.402 29.884,9.503L23.305,14.519L24.858,21.604C24.889,21.747 24.869,21.894 24.799,22.029C24.728,22.164 24.612,22.28 24.461,22.366C24.311,22.451 24.133,22.502 23.947,22.513C23.762,22.523 23.576,22.493 23.412,22.425L15.278,19.081L7.145,22.425C6.981,22.493 6.795,22.523 6.609,22.513C6.424,22.502 6.246,22.451 6.095,22.366C5.945,22.28 5.828,22.163 5.758,22.028C5.688,21.894 5.667,21.746 5.699,21.603L7.252,14.519L0.672,9.503C0.539,9.402 0.444,9.273 0.399,9.132C0.355,8.99 0.361,8.842 0.419,8.703C0.477,8.565 0.583,8.442 0.725,8.348C0.868,8.254 1.041,8.194 1.226,8.173L10.318,7.139L14.383,0.694C14.465,0.564 14.593,0.454 14.751,0.377C14.909,0.3 15.091,0.26 15.277,0.26C15.463,0.26 15.645,0.3 15.803,0.377C15.962,0.454 16.089,0.564 16.171,0.694Z" fill="#FFC700"/>
</svg>
