<svg width="8" height="14" viewBox="0 0 8 14" fill="none" xmlns="http://www.w3.org/2000/svg" xmlns:xlink="http://www.w3.org/1999/xlink">
<path d="M4.343,0.644C4.234,0.504 4.085,0.425 3.93,0.425C3.775,0.425 3.627,0.504 3.517,0.644L0.214,4.869C0.158,4.938 0.114,5.02 0.083,5.111C0.052,5.202 0.036,5.3 0.036,5.399C0.035,5.499 0.05,5.597 0.079,5.689C0.108,5.78 0.152,5.864 0.207,5.934C0.261,6.004 0.327,6.06 0.398,6.097C0.47,6.135 0.547,6.154 0.625,6.153C0.702,6.152 0.779,6.131 0.85,6.092C0.921,6.053 0.986,5.996 1.04,5.925L3.346,2.975L3.346,12.865C3.346,13.063 3.408,13.253 3.517,13.393C3.627,13.533 3.775,13.612 3.93,13.612C4.085,13.612 4.234,13.533 4.343,13.393C4.453,13.253 4.514,13.063 4.514,12.865L4.514,2.975L6.821,5.925C6.931,6.061 7.079,6.136 7.232,6.134C7.385,6.133 7.531,6.054 7.64,5.916C7.748,5.777 7.809,5.59 7.811,5.394C7.812,5.198 7.753,5.01 7.647,4.869L4.343,0.644Z" transform="rotate(179.78 3.923 7.018)" fill="#000000"/>
</svg>
