<svg width="32" height="24" viewBox="0 0 32 24" fill="none" xmlns="http://www.w3.org/2000/svg" xmlns:xlink="http://www.w3.org/1999/xlink">
<path d="M16.441,0.694L20.508,7.139L29.601,8.172C29.785,8.193 29.958,8.254 30.101,8.347C30.243,8.441 30.349,8.564 30.407,8.703C30.465,8.842 30.471,8.99 30.427,9.131C30.382,9.273 30.287,9.402 30.154,9.503L23.575,14.519L25.128,21.604C25.159,21.747 25.138,21.894 25.068,22.029C24.998,22.164 24.881,22.28 24.73,22.366C24.58,22.451 24.402,22.502 24.217,22.513C24.031,22.523 23.846,22.493 23.681,22.425L15.547,19.081L7.415,22.425C7.25,22.493 7.064,22.523 6.879,22.513C6.693,22.502 6.515,22.451 6.365,22.366C6.214,22.28 6.097,22.163 6.027,22.028C5.957,21.894 5.937,21.746 5.968,21.603L7.521,14.519L0.942,9.503C0.808,9.402 0.714,9.273 0.669,9.132C0.624,8.99 0.631,8.842 0.688,8.703C0.746,8.565 0.852,8.442 0.995,8.348C1.137,8.254 1.311,8.194 1.495,8.173L10.588,7.139L14.652,0.694C14.735,0.564 14.862,0.454 15.02,0.377C15.178,0.3 15.361,0.26 15.547,0.26C15.733,0.26 15.915,0.3 16.073,0.377C16.231,0.454 16.358,0.564 16.441,0.694Z" fill="#FFC700"/>
</svg>
