<svg width="46" height="42" viewBox="0 0 46 42" fill="none" xmlns="http://www.w3.org/2000/svg" xmlns:xlink="http://www.w3.org/1999/xlink">
<path d="M23.344,1.577L29.462,13.291L43.138,15.168C43.415,15.206 43.676,15.316 43.89,15.487C44.105,15.657 44.264,15.881 44.351,16.133C44.437,16.385 44.448,16.655 44.38,16.912C44.313,17.169 44.171,17.403 43.97,17.588L34.074,26.705L36.41,39.581C36.457,39.842 36.426,40.109 36.32,40.354C36.215,40.599 36.039,40.811 35.813,40.966C35.586,41.122 35.318,41.214 35.04,41.233C34.761,41.252 34.482,41.197 34.234,41.074L22,34.995L9.768,41.074C9.52,41.197 9.241,41.252 8.962,41.233C8.682,41.214 8.415,41.122 8.188,40.966C7.962,40.81 7.786,40.598 7.681,40.353C7.575,40.108 7.544,39.84 7.592,39.579L9.928,26.705L0.032,17.588C-0.169,17.403 -0.311,17.169 -0.379,16.912C-0.446,16.655 -0.436,16.386 -0.349,16.134C-0.263,15.882 -0.103,15.658 0.111,15.488C0.326,15.318 0.587,15.207 0.864,15.17L14.54,13.291L20.654,1.577C20.778,1.34 20.969,1.14 21.207,1.001C21.445,0.861 21.719,0.787 21.999,0.787C22.279,0.787 22.553,0.861 22.791,1.001C23.028,1.14 23.22,1.34 23.344,1.577Z" fill="#FFB93E"/>
</svg>
