<svg width="54" height="54" viewBox="0 0 54 54" fill="none" xmlns="http://www.w3.org/2000/svg" xmlns:xlink="http://www.w3.org/1999/xlink">
<path d="M18.667,52.666L17.6,44.133C17.022,43.911 16.478,43.644 15.968,43.333C15.458,43.022 14.958,42.689 14.467,42.333L6.534,45.666L-0.8,33L6.067,27.8C6.022,27.489 6,27.189 6,26.901L6,25.101C6,24.811 6.022,24.511 6.067,24.2L-0.8,19L6.534,6.333L14.467,9.666C14.956,9.311 15.467,8.977 16,8.666C16.534,8.355 17.067,8.089 17.6,7.866L18.667,-0.667L33.334,-0.667L34.4,7.866C34.978,8.089 35.523,8.355 36.035,8.666C36.547,8.977 37.046,9.311 37.534,9.666L45.467,6.333L52.8,19L45.934,24.2C45.978,24.511 46,24.811 46,25.101L46,26.898C46,27.188 45.956,27.489 45.867,27.8L52.734,33L45.4,45.666L37.534,42.333C37.045,42.689 36.534,43.022 36,43.333C35.467,43.644 34.934,43.911 34.4,44.133L33.334,52.666L18.667,52.666ZM26.134,35.333C28.711,35.333 30.911,34.422 32.734,32.6C34.556,30.777 35.467,28.577 35.467,26C35.467,23.422 34.556,21.222 32.734,19.4C30.911,17.577 28.711,16.666 26.134,16.666C23.511,16.666 21.3,17.577 19.499,19.4C17.698,21.222 16.798,23.422 16.8,26C16.802,28.577 17.702,30.777 19.502,32.6C21.301,34.422 23.511,35.333 26.134,35.333Z" fill="#000000"/>
</svg>
