<svg width="30" height="22" viewBox="0 0 30 22" fill="none" xmlns="http://www.w3.org/2000/svg" xmlns:xlink="http://www.w3.org/1999/xlink">
<path d="M15.587,-0.266L19.655,6.179L28.747,7.212C28.932,7.233 29.105,7.294 29.247,7.387C29.39,7.481 29.496,7.604 29.554,7.743C29.611,7.882 29.618,8.03 29.573,8.171C29.528,8.313 29.434,8.442 29.3,8.543L22.721,13.559L24.274,20.644C24.305,20.787 24.285,20.934 24.215,21.069C24.144,21.204 24.028,21.32 23.877,21.406C23.727,21.491 23.549,21.542 23.363,21.553C23.178,21.563 22.992,21.533 22.828,21.465L14.694,18.121L6.561,21.465C6.397,21.533 6.211,21.563 6.025,21.553C5.84,21.542 5.662,21.491 5.511,21.406C5.361,21.32 5.244,21.203 5.174,21.068C5.104,20.934 5.083,20.786 5.115,20.643L6.668,13.559L0.088,8.543C-0.045,8.442 -0.14,8.313 -0.185,8.172C-0.229,8.03 -0.223,7.882 -0.165,7.743C-0.107,7.605 -0.001,7.482 0.141,7.388C0.284,7.294 0.457,7.234 0.642,7.213L9.734,6.179L13.799,-0.266C13.881,-0.396 14.009,-0.506 14.167,-0.583C14.325,-0.659 14.507,-0.7 14.693,-0.7C14.879,-0.7 15.061,-0.659 15.22,-0.583C15.378,-0.506 15.505,-0.396 15.587,-0.266Z" fill="#FFB93E"/>
</svg>
