<svg width="30" height="24" viewBox="0 0 30 24" fill="none" xmlns="http://www.w3.org/2000/svg" xmlns:xlink="http://www.w3.org/1999/xlink">
<path d="M15.325,0.694L19.392,7.139L28.485,8.172C28.669,8.193 28.842,8.254 28.985,8.347C29.127,8.441 29.233,8.564 29.291,8.703C29.348,8.842 29.355,8.99 29.31,9.131C29.266,9.273 29.171,9.402 29.038,9.503L22.458,14.519L24.011,21.604C24.043,21.747 24.022,21.894 23.952,22.029C23.882,22.164 23.765,22.28 23.614,22.366C23.464,22.451 23.286,22.502 23.1,22.513C22.915,22.523 22.729,22.493 22.565,22.425L14.431,19.081L6.299,22.425C6.134,22.493 5.948,22.523 5.763,22.513C5.577,22.502 5.399,22.451 5.248,22.366C5.098,22.28 4.981,22.163 4.911,22.028C4.841,21.894 4.82,21.746 4.852,21.603L6.405,14.519L-0.174,9.503C-0.308,9.402 -0.403,9.273 -0.447,9.132C-0.492,8.99 -0.485,8.842 -0.428,8.703C-0.37,8.565 -0.264,8.442 -0.121,8.348C0.021,8.254 0.195,8.194 0.379,8.173L9.471,7.139L13.536,0.694C13.619,0.564 13.746,0.454 13.904,0.377C14.062,0.3 14.244,0.26 14.43,0.26C14.616,0.26 14.799,0.3 14.957,0.377C15.115,0.454 15.242,0.564 15.325,0.694Z" fill="#FFC700"/>
</svg>
