<svg width="30" height="24" viewBox="0 0 30 24" fill="none" xmlns="http://www.w3.org/2000/svg" xmlns:xlink="http://www.w3.org/1999/xlink">
<path d="M15.606,0.694L19.673,7.139L28.766,8.172C28.95,8.193 29.123,8.254 29.266,8.347C29.408,8.441 29.514,8.564 29.572,8.703C29.63,8.842 29.636,8.99 29.592,9.131C29.547,9.273 29.452,9.402 29.319,9.503L22.74,14.519L24.293,21.604C24.324,21.747 24.303,21.894 24.233,22.029C24.163,22.164 24.046,22.28 23.895,22.366C23.745,22.451 23.567,22.502 23.382,22.513C23.196,22.523 23.011,22.493 22.846,22.425L14.712,19.081L6.58,22.425C6.415,22.493 6.23,22.523 6.044,22.513C5.858,22.502 5.68,22.451 5.53,22.366C5.379,22.28 5.262,22.163 5.192,22.028C5.122,21.894 5.102,21.746 5.133,21.603L6.686,14.519L0.107,9.503C-0.027,9.402 -0.121,9.273 -0.166,9.132C-0.211,8.99 -0.204,8.842 -0.146,8.703C-0.089,8.565 0.017,8.442 0.16,8.348C0.302,8.254 0.476,8.194 0.66,8.173L9.753,7.139L13.817,0.694C13.9,0.564 14.027,0.454 14.185,0.377C14.343,0.3 14.526,0.26 14.712,0.26C14.898,0.26 15.08,0.3 15.238,0.377C15.396,0.454 15.523,0.564 15.606,0.694Z" fill="#FFC700"/>
</svg>
