<svg width="30" height="24" viewBox="0 0 30 24" fill="none" xmlns="http://www.w3.org/2000/svg" xmlns:xlink="http://www.w3.org/1999/xlink">
<path d="M15.897,0.694L19.964,7.139L29.057,8.172C29.241,8.193 29.415,8.254 29.557,8.347C29.7,8.441 29.806,8.564 29.863,8.703C29.921,8.842 29.928,8.99 29.883,9.131C29.838,9.273 29.744,9.402 29.61,9.503L23.031,14.519L24.584,21.604C24.615,21.747 24.594,21.894 24.524,22.029C24.454,22.164 24.337,22.28 24.187,22.366C24.036,22.451 23.858,22.502 23.673,22.513C23.487,22.523 23.302,22.493 23.137,22.425L15.003,19.081L6.871,22.425C6.706,22.493 6.521,22.523 6.335,22.513C6.149,22.502 5.971,22.451 5.821,22.366C5.67,22.28 5.553,22.163 5.483,22.028C5.413,21.894 5.393,21.746 5.424,21.603L6.977,14.519L0.398,9.503C0.264,9.402 0.17,9.273 0.125,9.132C0.08,8.99 0.087,8.842 0.145,8.703C0.202,8.565 0.308,8.442 0.451,8.348C0.593,8.254 0.767,8.194 0.951,8.173L10.044,7.139L14.108,0.694C14.191,0.564 14.318,0.454 14.476,0.377C14.634,0.3 14.817,0.26 15.003,0.26C15.189,0.26 15.371,0.3 15.529,0.377C15.687,0.454 15.815,0.564 15.897,0.694Z" fill="#FFC700"/>
</svg>
