<svg width="30" height="24" viewBox="0 0 30 24" fill="none" xmlns="http://www.w3.org/2000/svg" xmlns:xlink="http://www.w3.org/1999/xlink">
<path d="M15.028,0.694L19.095,7.139L28.188,8.172C28.372,8.193 28.545,8.254 28.688,8.347C28.83,8.441 28.936,8.564 28.994,8.703C29.052,8.842 29.058,8.99 29.014,9.131C28.969,9.273 28.874,9.402 28.741,9.503L22.162,14.519L23.715,21.604C23.746,21.747 23.725,21.894 23.655,22.029C23.585,22.164 23.468,22.28 23.317,22.366C23.167,22.451 22.989,22.502 22.804,22.513C22.618,22.523 22.433,22.493 22.268,22.425L14.134,19.081L6.002,22.425C5.837,22.493 5.651,22.523 5.466,22.513C5.28,22.502 5.102,22.451 4.952,22.366C4.801,22.28 4.684,22.163 4.614,22.028C4.544,21.894 4.524,21.746 4.555,21.603L6.108,14.519L-0.471,9.503C-0.605,9.402 -0.699,9.273 -0.744,9.132C-0.789,8.99 -0.782,8.842 -0.725,8.703C-0.667,8.565 -0.561,8.442 -0.418,8.348C-0.276,8.254 -0.102,8.194 0.082,8.173L9.174,7.139L13.239,0.694C13.322,0.564 13.449,0.454 13.607,0.377C13.765,0.3 13.947,0.26 14.134,0.26C14.32,0.26 14.502,0.3 14.66,0.377C14.818,0.454 14.945,0.564 15.028,0.694Z" fill="#FFB93E"/>
</svg>
