<svg width="26" height="20" viewBox="0 0 26 20" fill="none" xmlns="http://www.w3.org/2000/svg" xmlns:xlink="http://www.w3.org/1999/xlink">
<path d="M1.768,18.982L24.268,18.982C24.496,18.981 24.719,18.918 24.914,18.8C25.109,18.682 25.267,18.513 25.373,18.311C25.479,18.109 25.528,17.883 25.514,17.655C25.501,17.428 25.426,17.208 25.297,17.021L14.047,0.771C13.581,0.097 12.458,0.097 11.991,0.771L0.741,17.021C0.61,17.208 0.534,17.428 0.52,17.655C0.506,17.883 0.554,18.11 0.66,18.313C0.766,18.515 0.925,18.684 1.12,18.802C1.316,18.92 1.54,18.982 1.768,18.982Z" transform="rotate(359.88 13.017 9.624)" fill="#8E8D8D"/>
</svg>
