<svg width="32" height="22" viewBox="0 0 32 22" fill="none" xmlns="http://www.w3.org/2000/svg" xmlns:xlink="http://www.w3.org/1999/xlink">
<path d="M16.16,-0.266L20.227,6.179L29.32,7.212C29.504,7.233 29.677,7.294 29.82,7.387C29.962,7.481 30.068,7.604 30.126,7.743C30.183,7.882 30.19,8.03 30.145,8.171C30.101,8.313 30.006,8.442 29.873,8.543L23.293,13.559L24.846,20.644C24.878,20.787 24.857,20.934 24.787,21.069C24.717,21.204 24.6,21.32 24.449,21.406C24.299,21.491 24.121,21.542 23.935,21.553C23.75,21.563 23.564,21.533 23.4,21.465L15.266,18.121L7.134,21.465C6.969,21.533 6.783,21.563 6.598,21.553C6.412,21.542 6.234,21.491 6.083,21.406C5.933,21.32 5.816,21.203 5.746,21.068C5.676,20.934 5.655,20.786 5.687,20.643L7.24,13.559L0.661,8.543C0.527,8.442 0.432,8.313 0.388,8.172C0.343,8.03 0.35,7.882 0.407,7.743C0.465,7.605 0.571,7.482 0.714,7.388C0.856,7.294 1.029,7.234 1.214,7.213L10.306,6.179L14.371,-0.266C14.453,-0.396 14.581,-0.506 14.739,-0.583C14.897,-0.659 15.079,-0.7 15.265,-0.7C15.451,-0.7 15.634,-0.659 15.792,-0.583C15.95,-0.506 16.077,-0.396 16.16,-0.266Z" fill="#FFC700"/>
</svg>
