<svg width="32" height="22" viewBox="0 0 32 22" fill="none" xmlns="http://www.w3.org/2000/svg" xmlns:xlink="http://www.w3.org/1999/xlink">
<path d="M16.737,-0.266L20.804,6.179L29.897,7.212C30.081,7.233 30.254,7.294 30.397,7.387C30.539,7.481 30.645,7.604 30.703,7.743C30.761,7.882 30.767,8.03 30.723,8.171C30.678,8.313 30.583,8.442 30.45,8.543L23.871,13.559L25.424,20.644C25.455,20.787 25.434,20.934 25.364,21.069C25.294,21.204 25.177,21.32 25.026,21.406C24.876,21.491 24.698,21.542 24.513,21.553C24.327,21.563 24.142,21.533 23.977,21.465L15.843,18.121L7.711,21.465C7.546,21.533 7.36,21.563 7.175,21.553C6.989,21.542 6.811,21.491 6.661,21.406C6.51,21.32 6.393,21.203 6.323,21.068C6.253,20.934 6.233,20.786 6.264,20.643L7.817,13.559L1.238,8.543C1.104,8.442 1.01,8.313 0.965,8.172C0.92,8.03 0.927,7.882 0.984,7.743C1.042,7.605 1.148,7.482 1.291,7.388C1.433,7.294 1.607,7.234 1.791,7.213L10.883,6.179L14.948,-0.266C15.031,-0.396 15.158,-0.506 15.316,-0.583C15.474,-0.659 15.656,-0.7 15.843,-0.7C16.029,-0.7 16.211,-0.659 16.369,-0.583C16.527,-0.506 16.654,-0.396 16.737,-0.266Z" fill="#FFC700"/>
</svg>
