<svg width="30" height="24" viewBox="0 0 30 24" fill="none" xmlns="http://www.w3.org/2000/svg" xmlns:xlink="http://www.w3.org/1999/xlink">
<path d="M15.297,0.694L19.364,7.139L28.457,8.172C28.641,8.193 28.814,8.254 28.957,8.347C29.099,8.441 29.205,8.564 29.263,8.703C29.321,8.842 29.327,8.99 29.283,9.131C29.238,9.273 29.143,9.402 29.01,9.503L22.431,14.519L23.984,21.604C24.015,21.747 23.994,21.894 23.924,22.029C23.854,22.164 23.737,22.28 23.586,22.366C23.436,22.451 23.258,22.502 23.073,22.513C22.887,22.523 22.702,22.493 22.537,22.425L14.403,19.081L6.271,22.425C6.106,22.493 5.92,22.523 5.735,22.513C5.549,22.502 5.371,22.451 5.221,22.366C5.07,22.28 4.953,22.163 4.883,22.028C4.813,21.894 4.793,21.746 4.824,21.603L6.377,14.519L-0.202,9.503C-0.336,9.402 -0.43,9.273 -0.475,9.132C-0.52,8.99 -0.513,8.842 -0.456,8.703C-0.398,8.565 -0.292,8.442 -0.149,8.348C-0.007,8.254 0.167,8.194 0.351,8.173L9.443,7.139L13.508,0.694C13.591,0.564 13.718,0.454 13.876,0.377C14.034,0.3 14.217,0.26 14.403,0.26C14.589,0.26 14.771,0.3 14.929,0.377C15.087,0.454 15.214,0.564 15.297,0.694Z" fill="#FFB93E"/>
</svg>
