<svg width="26" height="26" viewBox="0 0 26 26" fill="none" xmlns="http://www.w3.org/2000/svg" xmlns:xlink="http://www.w3.org/1999/xlink">
<path d="M0,-1C0.265,-1 0.52,-0.895 0.707,-0.707C0.895,-0.52 1,-0.265 1,0L1,20.5C1,21.163 1.263,21.799 1.732,22.268C2.201,22.737 2.837,23 3.5,23L24,23C24.265,23 24.52,23.105 24.707,23.293C24.895,23.48 25,23.735 25,24C25,24.265 24.895,24.52 24.707,24.707C24.52,24.895 24.265,25 24,25L3.5,25C2.307,25 1.162,24.526 0.318,23.682C-0.526,22.838 -1,21.693 -1,20.5L-1,0C-1,-0.265 -0.895,-0.52 -0.707,-0.707C-0.52,-0.895 -0.265,-1 0,-1ZM15,4C15,3.735 15.105,3.48 15.293,3.293C15.48,3.105 15.735,3 16,3L23,3C23.265,3 23.52,3.105 23.707,3.293C23.895,3.48 24,3.735 24,4L24,11C24,11.265 23.895,11.52 23.707,11.707C23.52,11.895 23.265,12 23,12C22.735,12 22.48,11.895 22.293,11.707C22.105,11.52 22,11.265 22,11L22,6.414L14.707,13.707C14.519,13.894 14.265,14 14,14C13.735,14 13.481,13.894 13.293,13.707L10,10.414L4.707,15.707C4.518,15.889 4.266,15.99 4.004,15.988C3.741,15.985 3.491,15.88 3.305,15.695C3.12,15.509 3.015,15.259 3.012,14.996C3.01,14.734 3.111,14.482 3.293,14.293L9.293,8.293C9.481,8.106 9.735,8 10,8C10.265,8 10.519,8.106 10.707,8.293L14,11.586L20.586,5L16,5C15.735,5 15.48,4.895 15.293,4.707C15.105,4.52 15,4.265 15,4Z" fill="#000000"/>
</svg>
