<svg width="64" height="26" viewBox="0 0 64 26" fill="none" xmlns="http://www.w3.org/2000/svg" xmlns:xlink="http://www.w3.org/1999/xlink">
<path d="M61.677,8.968C60.953,8.234 60.089,7.65 59.138,7.251C58.186,6.852 57.165,6.645 56.133,6.643C54.613,6.643 53.091,7.208 52.253,7.765C50.517,8.923 49.091,10.176 46.523,13.493L46.523,15.877C48.701,13.04 50.763,10.803 52.328,9.573C53.357,8.747 54.816,8.237 56.133,8.237C59.533,8.237 62.405,11.109 62.405,14.509L62.405,15.944C62.405,17.624 61.747,19.205 60.544,20.392C59.374,21.562 57.788,22.219 56.133,22.219C53.339,22.219 50.88,20.301 50.213,17.683L49.088,19.043C49.907,21.789 52.867,23.813 56.133,23.813C57.165,23.811 58.186,23.604 59.138,23.205C60.089,22.806 60.953,22.223 61.677,21.488C63.176,19.989 64,18.021 64,15.944L64,14.509C64,12.435 63.173,10.464 61.677,8.968ZM27.544,8.237C28.627,8.237 29.563,8.469 30.408,8.947C30.749,8.526 31.115,8.126 31.504,7.749C30.611,7.067 29.096,6.643 27.544,6.643C25.331,6.643 23.32,7.443 21.885,8.891C20.461,10.331 19.672,12.323 19.672,14.509L19.672,23.813L21.267,23.813L21.267,14.507C21.267,10.813 23.848,8.237 27.544,8.237ZM42.685,23.808L42.685,14.507C42.685,11.648 40.445,9.405 37.584,9.405C36.251,9.405 34.981,9.947 34.003,10.925C33.526,11.393 33.146,11.95 32.885,12.564C32.624,13.179 32.488,13.839 32.483,14.507L32.483,15.941C32.483,18.707 34.821,21.043 37.584,21.043C38.344,21.043 39.373,20.856 40.005,20.339L40.005,18.656C39.387,19.155 38.485,19.451 37.584,19.451C37.122,19.456 36.663,19.369 36.235,19.195C35.807,19.02 35.418,18.762 35.091,18.435C34.765,18.108 34.507,17.719 34.333,17.291C34.158,16.862 34.072,16.404 34.077,15.941L34.077,14.507C34.072,14.045 34.16,13.587 34.334,13.159C34.509,12.732 34.767,12.343 35.093,12.017C35.42,11.691 35.809,11.433 36.236,11.259C36.664,11.084 37.122,10.997 37.584,11.003C38.046,10.997 38.504,11.084 38.932,11.258C39.36,11.432 39.749,11.69 40.076,12.016C40.403,12.342 40.662,12.731 40.836,13.159C41.011,13.586 41.098,14.045 41.093,14.507L41.093,23.811L42.685,23.808ZM0,13.589L0,14.104C0,16.867 1.048,19.445 2.952,21.363C3.89,22.309 5.008,23.058 6.239,23.567C7.47,24.076 8.79,24.335 10.123,24.328C12.309,24.328 14.251,23.832 15.888,22.859C17.237,22.053 17.835,21.24 17.888,21.165L17.888,12.587L9.733,12.587L9.733,14.179L16.293,14.179L16.293,20.669L16.288,20.675C15.52,21.443 13.696,22.728 10.123,22.728C8.994,22.738 7.875,22.522 6.831,22.092C5.787,21.663 4.84,21.028 4.045,20.227C2.452,18.588 1.57,16.387 1.592,14.101L1.592,13.587C1.592,11.373 2.592,9.171 4.328,7.536C6.091,5.878 8.42,4.956 10.84,4.957C13.099,4.957 14.675,5.301 15.941,6.067L15.941,4.28C14.624,3.72 13.048,3.467 10.84,3.467C4.965,3.467 0,8.104 0,13.589ZM27.544,11.005C28.15,11.005 28.658,11.105 29.067,11.304C29.267,10.808 29.469,10.4 29.765,9.904C29.333,9.595 28.301,9.408 27.544,9.408C24.637,9.408 22.443,11.603 22.443,14.509L22.443,23.813L24.037,23.813L24.037,14.507C24.037,12.443 25.477,11.005 27.544,11.005ZM15.941,9.131L15.941,7.245C14.499,6.472 12.925,6.128 10.84,6.128C8.709,6.128 6.693,6.909 5.155,8.325C3.616,9.744 2.768,11.613 2.768,13.584L2.768,14.099C2.768,18.211 6.067,21.555 10.123,21.555C13.421,21.555 14.776,20.475 15.12,20.133L15.12,15.349L9.733,15.349L9.733,16.944L13.627,16.944L13.627,19.341L13.613,19.344C13.115,19.544 12.072,19.96 10.12,19.96C9.362,19.964 8.611,19.815 7.911,19.524C7.211,19.233 6.577,18.804 6.045,18.264C5.504,17.715 5.077,17.064 4.788,16.349C4.499,15.635 4.353,14.87 4.36,14.099L4.36,13.584C4.36,10.405 7.328,7.723 10.84,7.723C13.267,7.723 14.707,8.115 15.941,9.131ZM53.555,12.133C54.275,11.413 55.216,11.003 56.133,11.003C56.595,10.997 57.053,11.084 57.481,11.259C57.909,11.433 58.297,11.691 58.624,12.017C58.951,12.343 59.209,12.732 59.383,13.159C59.558,13.587 59.645,14.045 59.64,14.507L59.64,15.941C59.64,17.909 58.099,19.451 56.133,19.451C55.181,19.451 54.261,18.928 53.541,17.984C52.895,17.114 52.508,16.078 52.427,14.997L51.136,16.573C51.389,17.779 52.016,18.933 52.909,19.747C53.827,20.581 54.973,21.043 56.133,21.043C57.486,21.041 58.783,20.503 59.739,19.547C60.695,18.591 61.233,17.294 61.235,15.941L61.235,14.507C61.235,13.176 60.696,11.901 59.715,10.925C59.247,10.449 58.69,10.069 58.076,9.808C57.461,9.547 56.801,9.41 56.133,9.405C55.291,9.405 53.952,9.709 52.355,11.144L52.349,11.149C51.923,11.576 50.92,12.579 50.309,13.293C49.285,14.413 47.795,16.104 46.523,17.795L46.523,20.283C47.933,18.469 48.744,17.456 50.069,15.925C51.256,14.541 52.725,12.859 53.555,12.133ZM29.717,15.941C29.717,18.019 30.544,19.987 32.043,21.488C32.768,22.221 33.63,22.804 34.581,23.202C35.533,23.6 36.553,23.806 37.584,23.808C38.464,23.808 39.368,23.621 40.005,23.307L40.005,21.715C39.237,22.031 38.415,22.201 37.584,22.216C34.187,22.216 31.312,19.344 31.312,15.941L31.312,14.507C31.312,11.107 34.187,8.235 37.584,8.235C38.409,8.23 39.227,8.389 39.991,8.703C40.754,9.017 41.448,9.479 42.031,10.062C42.615,10.646 43.077,11.339 43.39,12.103C43.704,12.866 43.863,13.684 43.859,14.509L43.859,23.811L45.453,23.811L45.453,14.2C45.354,12.171 44.481,10.256 43.013,8.851C41.561,7.434 39.613,6.64 37.584,6.637C35.509,6.637 33.541,7.464 32.043,8.965C31.309,9.69 30.725,10.553 30.326,11.504C29.927,12.455 29.72,13.475 29.717,14.507L29.717,15.941ZM48.165,9.773C48.645,9.168 49.177,8.605 49.755,8.091L49.755,-0.325L48.165,-0.325L48.165,9.773ZM50.931,7.437L50.931,-0.325L52.523,-0.325L52.523,6.347C51.957,6.657 51.423,7.023 50.931,7.44Z" fill="#000000"/>
</svg>
