<svg width="30" height="24" viewBox="0 0 30 24" fill="none" xmlns="http://www.w3.org/2000/svg" xmlns:xlink="http://www.w3.org/1999/xlink">
<path d="M15.87,0.694L19.937,7.139L29.03,8.172C29.214,8.193 29.387,8.254 29.53,8.347C29.672,8.441 29.778,8.564 29.836,8.703C29.893,8.842 29.9,8.99 29.855,9.131C29.811,9.273 29.716,9.402 29.583,9.503L23.003,14.519L24.556,21.604C24.588,21.747 24.567,21.894 24.497,22.029C24.427,22.164 24.31,22.28 24.159,22.366C24.009,22.451 23.831,22.502 23.645,22.513C23.46,22.523 23.274,22.493 23.11,22.425L14.976,19.081L6.844,22.425C6.679,22.493 6.493,22.523 6.308,22.513C6.122,22.502 5.944,22.451 5.793,22.366C5.643,22.28 5.526,22.163 5.456,22.028C5.386,21.894 5.365,21.746 5.397,21.603L6.95,14.519L0.371,9.503C0.237,9.402 0.142,9.273 0.098,9.132C0.053,8.99 0.06,8.842 0.117,8.703C0.175,8.565 0.281,8.442 0.424,8.348C0.566,8.254 0.739,8.194 0.924,8.173L10.016,7.139L14.081,0.694C14.163,0.564 14.291,0.454 14.449,0.377C14.607,0.3 14.789,0.26 14.975,0.26C15.161,0.26 15.344,0.3 15.502,0.377C15.66,0.454 15.787,0.564 15.87,0.694Z" fill="#FFC700"/>
</svg>
