<svg width="30" height="22" viewBox="0 0 30 22" fill="none" xmlns="http://www.w3.org/2000/svg" xmlns:xlink="http://www.w3.org/1999/xlink">
<path d="M15.588,-0.266L19.656,6.179L28.748,7.212C28.933,7.233 29.106,7.294 29.248,7.387C29.391,7.481 29.497,7.604 29.555,7.743C29.612,7.882 29.619,8.03 29.574,8.171C29.529,8.313 29.435,8.442 29.301,8.543L22.722,13.559L24.275,20.644C24.306,20.787 24.286,20.934 24.216,21.069C24.145,21.204 24.029,21.32 23.878,21.406C23.728,21.491 23.55,21.542 23.364,21.553C23.179,21.563 22.993,21.533 22.829,21.465L14.695,18.121L6.562,21.465C6.398,21.533 6.212,21.563 6.026,21.553C5.841,21.542 5.663,21.491 5.512,21.406C5.362,21.32 5.245,21.203 5.175,21.068C5.105,20.934 5.084,20.786 5.116,20.643L6.669,13.559L0.089,8.543C-0.044,8.442 -0.139,8.313 -0.184,8.172C-0.228,8.03 -0.222,7.882 -0.164,7.743C-0.106,7.605 0,7.482 0.142,7.388C0.285,7.294 0.458,7.234 0.643,7.213L9.735,6.179L13.8,-0.266C13.882,-0.396 14.01,-0.506 14.168,-0.583C14.326,-0.659 14.508,-0.7 14.694,-0.7C14.88,-0.7 15.062,-0.659 15.22,-0.583C15.379,-0.506 15.506,-0.396 15.588,-0.266Z" fill="#FFC700"/>
</svg>
