<svg width="30" height="24" viewBox="0 0 30 24" fill="none" xmlns="http://www.w3.org/2000/svg" xmlns:xlink="http://www.w3.org/1999/xlink">
<path d="M15.034,0.694L19.101,7.139L28.194,8.172C28.378,8.193 28.551,8.254 28.694,8.347C28.836,8.441 28.942,8.564 29,8.703C29.057,8.842 29.064,8.99 29.019,9.131C28.975,9.273 28.88,9.402 28.747,9.503L22.167,14.519L23.72,21.604C23.752,21.747 23.731,21.894 23.661,22.029C23.591,22.164 23.474,22.28 23.323,22.366C23.173,22.451 22.995,22.502 22.809,22.513C22.624,22.523 22.438,22.493 22.274,22.425L14.14,19.081L6.008,22.425C5.843,22.493 5.657,22.523 5.472,22.513C5.286,22.502 5.108,22.451 4.957,22.366C4.807,22.28 4.69,22.163 4.62,22.028C4.55,21.894 4.529,21.746 4.561,21.603L6.114,14.519L-0.465,9.503C-0.599,9.402 -0.694,9.273 -0.738,9.132C-0.783,8.99 -0.776,8.842 -0.719,8.703C-0.661,8.565 -0.555,8.442 -0.412,8.348C-0.27,8.254 -0.097,8.194 0.088,8.173L9.18,7.139L13.245,0.694C13.328,0.564 13.455,0.454 13.613,0.377C13.771,0.3 13.953,0.26 14.139,0.26C14.325,0.26 14.508,0.3 14.666,0.377C14.824,0.454 14.951,0.564 15.034,0.694Z" fill="#FFB93E"/>
</svg>
