<svg width="30" height="22" viewBox="0 0 30 22" fill="none" xmlns="http://www.w3.org/2000/svg" xmlns:xlink="http://www.w3.org/1999/xlink">
<path d="M15.563,-0.266L19.642,6.179L28.759,7.212C28.944,7.233 29.118,7.294 29.261,7.387C29.404,7.481 29.51,7.604 29.568,7.743C29.626,7.882 29.632,8.03 29.587,8.171C29.543,8.313 29.448,8.442 29.314,8.543L22.717,13.559L24.274,20.644C24.305,20.787 24.285,20.934 24.214,21.069C24.144,21.204 24.027,21.32 23.876,21.406C23.725,21.491 23.546,21.542 23.36,21.553C23.174,21.563 22.988,21.533 22.823,21.465L14.667,18.121L6.513,21.465C6.347,21.533 6.161,21.563 5.975,21.553C5.789,21.542 5.61,21.491 5.459,21.406C5.308,21.32 5.191,21.203 5.121,21.068C5.051,20.934 5.03,20.786 5.062,20.643L6.619,13.559L0.022,8.543C-0.112,8.442 -0.207,8.313 -0.252,8.172C-0.297,8.03 -0.29,7.882 -0.232,7.743C-0.175,7.605 -0.068,7.482 0.075,7.388C0.218,7.294 0.392,7.234 0.577,7.213L9.694,6.179L13.77,-0.266C13.852,-0.396 13.98,-0.506 14.139,-0.583C14.297,-0.659 14.48,-0.7 14.667,-0.7C14.853,-0.7 15.036,-0.659 15.194,-0.583C15.353,-0.506 15.481,-0.396 15.563,-0.266Z" fill="#FFC700"/>
</svg>
