<svg width="50" height="44" viewBox="0 0 50 44" fill="none" xmlns="http://www.w3.org/2000/svg" xmlns:xlink="http://www.w3.org/1999/xlink">
<path d="M16.062,12.938L22.614,0.67C22.741,0.424 22.938,0.216 23.183,0.07C23.427,-0.076 23.71,-0.155 24,-0.158C24.549,-0.158 25.098,0.117 25.395,0.67L31.947,12.938L46.641,14.912C47.007,14.968 47.341,15.14 47.588,15.401C47.835,15.662 47.981,15.994 48,16.344C48.021,16.577 47.985,16.811 47.897,17.03C47.809,17.248 47.67,17.445 47.49,17.606L36.921,27.121L39.411,40.533C39.645,41.789 38.331,42.773 37.173,42.211L24,35.814L10.833,42.211C10.696,42.28 10.548,42.327 10.395,42.353C9.369,42.523 8.391,41.633 8.595,40.533L11.085,27.121L0.519,17.606C0.355,17.459 0.224,17.281 0.135,17.085C0.047,16.888 0.002,16.677 0.003,16.463C0.006,16.161 0.094,15.866 0.258,15.607C0.376,15.419 0.537,15.259 0.729,15.139C0.921,15.019 1.14,14.941 1.368,14.912L16.062,12.938ZM24,32.525C24.242,32.524 24.481,32.579 24.696,32.684L35.754,38.054L33.672,26.835C33.622,26.577 33.64,26.311 33.724,26.061C33.809,25.811 33.958,25.585 34.158,25.403L42.879,17.549L30.723,15.916C30.472,15.879 30.234,15.785 30.028,15.643C29.823,15.501 29.657,15.314 29.544,15.099L24.003,4.727L24,4.736L24,32.525Z" fill="#FFC700"/>
</svg>
