<svg width="32" height="24" viewBox="0 0 32 24" fill="none" xmlns="http://www.w3.org/2000/svg" xmlns:xlink="http://www.w3.org/1999/xlink">
<path d="M16.748,0.694L20.816,7.139L29.908,8.172C30.093,8.193 30.266,8.254 30.408,8.347C30.551,8.441 30.657,8.564 30.715,8.703C30.772,8.842 30.779,8.99 30.734,9.131C30.689,9.273 30.595,9.402 30.461,9.503L23.882,14.519L25.435,21.604C25.466,21.747 25.446,21.894 25.376,22.029C25.305,22.164 25.189,22.28 25.038,22.366C24.888,22.451 24.71,22.502 24.524,22.513C24.339,22.523 24.153,22.493 23.989,22.425L15.855,19.081L7.723,22.425C7.558,22.493 7.372,22.523 7.186,22.513C7.001,22.502 6.823,22.451 6.672,22.366C6.522,22.28 6.405,22.163 6.335,22.028C6.265,21.894 6.244,21.746 6.276,21.603L7.829,14.519L1.25,9.503C1.116,9.402 1.021,9.273 0.977,9.132C0.932,8.99 0.938,8.842 0.996,8.703C1.054,8.565 1.16,8.442 1.302,8.348C1.445,8.254 1.618,8.194 1.803,8.173L10.895,7.139L14.96,0.694C15.042,0.564 15.17,0.454 15.328,0.377C15.486,0.3 15.668,0.26 15.854,0.26C16.04,0.26 16.223,0.3 16.381,0.377C16.539,0.454 16.666,0.564 16.748,0.694Z" fill="#FFC700"/>
</svg>
