<svg width="32" height="24" viewBox="0 0 32 24" fill="none" xmlns="http://www.w3.org/2000/svg" xmlns:xlink="http://www.w3.org/1999/xlink">
<path d="M16.176,0.694L20.244,7.139L29.336,8.172C29.52,8.193 29.694,8.254 29.836,8.347C29.979,8.441 30.085,8.564 30.142,8.703C30.2,8.842 30.207,8.99 30.162,9.131C30.117,9.273 30.023,9.402 29.889,9.503L23.31,14.519L24.863,21.604C24.894,21.747 24.874,21.894 24.803,22.029C24.733,22.164 24.616,22.28 24.466,22.366C24.315,22.451 24.137,22.502 23.952,22.513C23.766,22.523 23.581,22.493 23.416,22.425L15.283,19.081L7.15,22.425C6.986,22.493 6.8,22.523 6.614,22.513C6.429,22.502 6.25,22.451 6.1,22.366C5.949,22.28 5.833,22.163 5.762,22.028C5.692,21.894 5.672,21.746 5.704,21.603L7.257,14.519L0.677,9.503C0.544,9.402 0.449,9.273 0.404,9.132C0.359,8.99 0.366,8.842 0.424,8.703C0.481,8.565 0.588,8.442 0.73,8.348C0.873,8.254 1.046,8.194 1.23,8.173L10.323,7.139L14.388,0.694C14.47,0.564 14.597,0.454 14.756,0.377C14.914,0.3 15.096,0.26 15.282,0.26C15.468,0.26 15.65,0.3 15.808,0.377C15.966,0.454 16.094,0.564 16.176,0.694Z" fill="#FFB93E"/>
</svg>
