<svg width="64" height="62" viewBox="0 0 64 62" fill="none" xmlns="http://www.w3.org/2000/svg" xmlns:xlink="http://www.w3.org/1999/xlink">
<path d="M32.192,-0.098C31.62,-0.101 31.048,-0.091 30.477,-0.069C14.178,0.662 0.917,13.56 0.045,29.515C-0.664,42.616 6.84,54.075 17.973,59.392C22.125,61.376 27.053,58.886 27.856,54.43C28.397,51.427 26.837,48.454 24.045,47.118C17.717,44.08 13.469,37.512 13.97,30.035C14.557,21.288 21.786,14.182 30.714,13.579C41.272,12.867 50.066,21.038 50.066,31.23C50.066,38.224 45.925,44.264 39.909,47.136C38.584,47.765 37.502,48.812 36.83,50.116C36.158,51.42 35.933,52.908 36.189,54.352L36.218,54.502C37.005,58.886 41.848,61.376 45.933,59.44C56.621,54.371 64,43.646 64,31.23C63.989,13.987 49.77,-0.002 32.192,-0.104L32.192,-0.098ZM32.029,20.206C25.813,20.206 20.762,25.155 20.762,31.243C20.762,37.328 25.813,42.275 32.029,42.275C38.245,42.275 43.296,37.328 43.296,31.243C43.296,25.155 38.242,20.206 32.029,20.206Z" fill="#000000"/>
</svg>
