<svg width="28" height="40" viewBox="0 0 28 40" fill="none" xmlns="http://www.w3.org/2000/svg" xmlns:xlink="http://www.w3.org/1999/xlink">
<path d="M13.195,2.834L14.745,1.571C14.365,1.105 13.796,0.834 13.195,0.834C12.593,0.834 12.024,1.105 11.644,1.571L13.195,2.834ZM11.195,37.2C11.195,38.305 12.09,39.2 13.195,39.2C14.299,39.2 15.195,38.305 15.195,37.2L11.195,37.2ZM23.644,18.826C24.342,19.682 25.602,19.811 26.458,19.113C27.314,18.415 27.443,17.156 26.745,16.299L23.644,18.826ZM-0.356,16.299C-1.054,17.156 -0.925,18.415 -0.069,19.113C0.788,19.811 2.047,19.682 2.745,18.826L-0.356,16.299ZM11.195,2.834L11.195,37.2L15.195,37.2L15.195,2.834L11.195,2.834ZM26.745,16.299L14.745,1.571L11.644,4.098L23.644,18.826L26.745,16.299ZM2.745,18.826L14.745,4.098L11.644,1.571L-0.356,16.299L2.745,18.826Z" transform="rotate(-180.113 13.195 20.017)" fill="#000000"/>
</svg>
