<svg width="30" height="24" viewBox="0 0 30 24" fill="none" xmlns="http://www.w3.org/2000/svg" xmlns:xlink="http://www.w3.org/1999/xlink">
<path d="M15.32,0.694L19.387,7.139L28.48,8.172C28.664,8.193 28.837,8.254 28.98,8.347C29.122,8.441 29.228,8.564 29.286,8.703C29.344,8.842 29.35,8.99 29.306,9.131C29.261,9.273 29.166,9.402 29.033,9.503L22.454,14.519L24.007,21.604C24.038,21.747 24.017,21.894 23.947,22.029C23.877,22.164 23.76,22.28 23.609,22.366C23.459,22.451 23.281,22.502 23.096,22.513C22.91,22.523 22.725,22.493 22.56,22.425L14.426,19.081L6.294,22.425C6.129,22.493 5.943,22.523 5.758,22.513C5.572,22.502 5.394,22.451 5.244,22.366C5.093,22.28 4.976,22.163 4.906,22.028C4.836,21.894 4.816,21.746 4.847,21.603L6.4,14.519L-0.179,9.503C-0.313,9.402 -0.407,9.273 -0.452,9.132C-0.497,8.99 -0.49,8.842 -0.433,8.703C-0.375,8.565 -0.269,8.442 -0.126,8.348C0.016,8.254 0.19,8.194 0.374,8.173L9.466,7.139L13.531,0.694C13.614,0.564 13.741,0.454 13.899,0.377C14.057,0.3 14.239,0.26 14.426,0.26C14.612,0.26 14.794,0.3 14.952,0.377C15.11,0.454 15.237,0.564 15.32,0.694Z" fill="#FFC700"/>
</svg>
