<svg width="30" height="24" viewBox="0 0 30 24" fill="none" xmlns="http://www.w3.org/2000/svg" xmlns:xlink="http://www.w3.org/1999/xlink">
<path d="M15.013,0.694L19.081,7.139L28.173,8.172C28.357,8.193 28.531,8.254 28.673,8.347C28.816,8.441 28.922,8.564 28.979,8.703C29.037,8.842 29.044,8.99 28.999,9.131C28.954,9.273 28.86,9.402 28.726,9.503L22.147,14.519L23.7,21.604C23.731,21.747 23.711,21.894 23.64,22.029C23.57,22.164 23.453,22.28 23.303,22.366C23.152,22.451 22.974,22.502 22.789,22.513C22.603,22.523 22.418,22.493 22.253,22.425L14.12,19.081L5.987,22.425C5.822,22.493 5.637,22.523 5.451,22.513C5.266,22.502 5.087,22.451 4.937,22.366C4.786,22.28 4.669,22.163 4.599,22.028C4.529,21.894 4.509,21.746 4.54,21.603L6.094,14.519L-0.486,9.503C-0.619,9.402 -0.714,9.273 -0.759,9.132C-0.804,8.99 -0.797,8.842 -0.739,8.703C-0.682,8.565 -0.576,8.442 -0.433,8.348C-0.29,8.254 -0.117,8.194 0.067,8.173L9.16,7.139L13.225,0.694C13.307,0.564 13.434,0.454 13.592,0.377C13.75,0.3 13.933,0.26 14.119,0.26C14.305,0.26 14.487,0.3 14.645,0.377C14.803,0.454 14.931,0.564 15.013,0.694Z" fill="#FFC700"/>
</svg>
