<svg width="30" height="22" viewBox="0 0 30 22" fill="none" xmlns="http://www.w3.org/2000/svg" xmlns:xlink="http://www.w3.org/1999/xlink">
<path d="M15.873,-0.266L19.941,6.179L29.033,7.212C29.218,7.233 29.391,7.294 29.533,7.387C29.676,7.481 29.782,7.604 29.84,7.743C29.897,7.882 29.904,8.03 29.859,8.171C29.814,8.313 29.72,8.442 29.586,8.543L23.007,13.559L24.56,20.644C24.591,20.787 24.571,20.934 24.501,21.069C24.43,21.204 24.314,21.32 24.163,21.406C24.013,21.491 23.835,21.542 23.649,21.553C23.464,21.563 23.278,21.533 23.114,21.465L14.98,18.121L6.848,21.465C6.683,21.533 6.497,21.563 6.311,21.553C6.126,21.542 5.948,21.491 5.797,21.406C5.647,21.32 5.53,21.203 5.46,21.068C5.39,20.934 5.369,20.786 5.401,20.643L6.954,13.559L0.375,8.543C0.241,8.442 0.146,8.313 0.102,8.172C0.057,8.03 0.063,7.882 0.121,7.743C0.179,7.605 0.285,7.482 0.427,7.388C0.57,7.294 0.743,7.234 0.928,7.213L10.02,6.179L14.085,-0.266C14.167,-0.396 14.295,-0.506 14.453,-0.583C14.611,-0.659 14.793,-0.7 14.979,-0.7C15.165,-0.7 15.348,-0.659 15.506,-0.583C15.664,-0.506 15.791,-0.396 15.873,-0.266Z" fill="#FFC700"/>
</svg>
