<svg width="32" height="22" viewBox="0 0 32 22" fill="none" xmlns="http://www.w3.org/2000/svg" xmlns:xlink="http://www.w3.org/1999/xlink">
<path d="M16.439,-0.266L20.507,6.179L29.599,7.212C29.784,7.233 29.957,7.294 30.099,7.387C30.242,7.481 30.348,7.604 30.406,7.743C30.463,7.882 30.47,8.03 30.425,8.171C30.38,8.313 30.286,8.442 30.152,8.543L23.573,13.559L25.126,20.644C25.157,20.787 25.137,20.934 25.067,21.069C24.996,21.204 24.88,21.32 24.729,21.406C24.579,21.491 24.401,21.542 24.215,21.553C24.03,21.563 23.844,21.533 23.68,21.465L15.546,18.121L7.413,21.465C7.249,21.533 7.063,21.563 6.877,21.553C6.692,21.542 6.514,21.491 6.363,21.406C6.213,21.32 6.096,21.203 6.026,21.068C5.956,20.934 5.935,20.786 5.967,20.643L7.52,13.559L0.941,8.543C0.807,8.442 0.712,8.313 0.667,8.172C0.623,8.03 0.629,7.882 0.687,7.743C0.745,7.605 0.851,7.482 0.993,7.388C1.136,7.294 1.309,7.234 1.494,7.213L10.586,6.179L14.651,-0.266C14.733,-0.396 14.861,-0.506 15.019,-0.583C15.177,-0.659 15.359,-0.7 15.545,-0.7C15.731,-0.7 15.914,-0.659 16.072,-0.583C16.23,-0.506 16.357,-0.396 16.439,-0.266Z" fill="#FFB93E"/>
</svg>
