<svg width="30" height="24" viewBox="0 0 30 24" fill="none" xmlns="http://www.w3.org/2000/svg" xmlns:xlink="http://www.w3.org/1999/xlink">
<path d="M15.006,0.694L19.073,7.139L28.166,8.172C28.35,8.193 28.523,8.254 28.666,8.347C28.808,8.441 28.914,8.564 28.972,8.703C29.03,8.842 29.036,8.99 28.992,9.131C28.947,9.273 28.852,9.402 28.719,9.503L22.14,14.519L23.693,21.604C23.724,21.747 23.703,21.894 23.633,22.029C23.563,22.164 23.446,22.28 23.295,22.366C23.145,22.451 22.967,22.502 22.782,22.513C22.596,22.523 22.411,22.493 22.246,22.425L14.112,19.081L5.98,22.425C5.815,22.493 5.629,22.523 5.444,22.513C5.258,22.502 5.08,22.451 4.93,22.366C4.779,22.28 4.662,22.163 4.592,22.028C4.522,21.894 4.502,21.746 4.533,21.603L6.086,14.519L-0.493,9.503C-0.627,9.402 -0.721,9.273 -0.766,9.132C-0.811,8.99 -0.804,8.842 -0.747,8.703C-0.689,8.565 -0.583,8.442 -0.44,8.348C-0.298,8.254 -0.124,8.194 0.06,8.173L9.152,7.139L13.217,0.694C13.3,0.564 13.427,0.454 13.585,0.377C13.743,0.3 13.925,0.26 14.112,0.26C14.298,0.26 14.48,0.3 14.638,0.377C14.796,0.454 14.923,0.564 15.006,0.694Z" fill="#FFC700"/>
</svg>
