<svg width="48" height="48" viewBox="0 0 48 48" fill="none" xmlns="http://www.w3.org/2000/svg" xmlns:xlink="http://www.w3.org/1999/xlink">
<path d="M24,18.667C25.226,18.667 26.439,18.425 27.572,17.956C28.704,17.487 29.733,16.8 30.6,15.933C31.466,15.066 32.154,14.037 32.623,12.905C33.092,11.773 33.333,10.559 33.333,9.333C33.333,8.108 33.092,6.894 32.623,5.762C32.154,4.629 31.466,3.6 30.6,2.734C29.733,1.867 28.704,1.18 27.572,0.71C26.439,0.241 25.226,0 24,0C21.525,0 19.151,0.983 17.4,2.734C15.65,4.484 14.667,6.858 14.667,9.333C14.667,11.809 15.65,14.183 17.4,15.933C19.151,17.683 21.525,18.667 24,18.667ZM0,46.4L0,48L48,48L48,46.4C48,40.427 48,37.44 46.837,35.157C45.815,33.15 44.183,31.519 42.176,30.496C39.893,29.333 36.907,29.333 30.933,29.333L17.067,29.333C11.093,29.333 8.107,29.333 5.824,30.496C3.817,31.519 2.185,33.15 1.163,35.157C0,37.44 0,40.427 0,46.4Z" fill="#000000" stroke="#000000" stroke-width="4" stroke-miterlimit="3.999327" stroke-linecap="round" stroke-linejoin="round"/>
</svg>
