<svg width="32" height="24" viewBox="0 0 32 24" fill="none" xmlns="http://www.w3.org/2000/svg" xmlns:xlink="http://www.w3.org/1999/xlink">
<path d="M16.749,0.694L20.817,7.139L29.909,8.172C30.094,8.193 30.267,8.254 30.409,8.347C30.552,8.441 30.658,8.564 30.716,8.703C30.773,8.842 30.78,8.99 30.735,9.131C30.69,9.273 30.596,9.402 30.462,9.503L23.883,14.519L25.436,21.604C25.467,21.747 25.447,21.894 25.377,22.029C25.306,22.164 25.19,22.28 25.039,22.366C24.889,22.451 24.711,22.502 24.525,22.513C24.34,22.523 24.154,22.493 23.99,22.425L15.856,19.081L7.723,22.425C7.559,22.493 7.373,22.523 7.187,22.513C7.002,22.502 6.824,22.451 6.673,22.366C6.523,22.28 6.406,22.163 6.336,22.028C6.266,21.894 6.245,21.746 6.277,21.603L7.83,14.519L1.251,9.503C1.117,9.402 1.022,9.273 0.977,9.132C0.933,8.99 0.939,8.842 0.997,8.703C1.055,8.565 1.161,8.442 1.303,8.348C1.446,8.254 1.619,8.194 1.804,8.173L10.896,7.139L14.961,0.694C15.043,0.564 15.171,0.454 15.329,0.377C15.487,0.3 15.669,0.26 15.855,0.26C16.041,0.26 16.224,0.3 16.382,0.377C16.54,0.454 16.667,0.564 16.749,0.694Z" fill="#FFC700"/>
</svg>
