<svg width="50" height="44" viewBox="0 0 50 44" fill="none" xmlns="http://www.w3.org/2000/svg" xmlns:xlink="http://www.w3.org/1999/xlink">
<path d="M16.062,12.719L22.614,0.45C22.741,0.204 22.938,-0.004 23.183,-0.15C23.427,-0.296 23.71,-0.375 24,-0.378C24.549,-0.378 25.098,-0.103 25.395,0.45L31.947,12.719L46.641,14.692C47.007,14.748 47.341,14.921 47.588,15.181C47.835,15.442 47.981,15.775 48,16.124C48.021,16.357 47.985,16.591 47.897,16.81C47.809,17.028 47.67,17.225 47.49,17.386L36.921,26.901L39.411,40.313C39.645,41.569 38.331,42.553 37.173,41.991L24,35.595L10.833,41.991C10.696,42.06 10.548,42.108 10.395,42.133C9.369,42.303 8.391,41.413 8.595,40.313L11.085,26.901L0.519,17.386C0.355,17.239 0.224,17.062 0.135,16.865C0.047,16.669 0.002,16.457 0.003,16.243C0.006,15.941 0.094,15.646 0.258,15.387C0.376,15.2 0.537,15.04 0.729,14.919C0.921,14.799 1.14,14.721 1.368,14.692L16.062,12.719ZM24,32.306C24.242,32.305 24.481,32.359 24.696,32.464L35.754,37.835L33.672,26.615C33.622,26.357 33.64,26.091 33.724,25.841C33.809,25.591 33.958,25.365 34.158,25.183L42.879,17.329L30.723,15.696C30.472,15.659 30.234,15.565 30.028,15.423C29.823,15.281 29.657,15.095 29.544,14.879L24.003,4.507L24,4.516L24,32.306Z" fill="#FFC700"/>
</svg>
