<svg width="34" height="26" viewBox="0 0 34 26" fill="none" xmlns="http://www.w3.org/2000/svg" xmlns:xlink="http://www.w3.org/1999/xlink">
<path d="M10.708,7.986L15.076,1.236C15.161,1.1 15.292,0.986 15.455,0.906C15.618,0.825 15.807,0.782 16,0.78C16.366,0.78 16.732,0.932 16.93,1.236L21.298,7.986L31.094,9.072C31.338,9.102 31.561,9.197 31.725,9.341C31.89,9.484 31.987,9.667 32,9.859C32.014,9.988 31.99,10.117 31.931,10.237C31.873,10.357 31.78,10.465 31.66,10.554L24.614,15.789L26.274,23.168C26.43,23.859 25.554,24.4 24.782,24.091L16,20.572L7.222,24.091C7.13,24.129 7.032,24.155 6.93,24.169C6.246,24.263 5.594,23.773 5.73,23.168L7.39,15.789L0.346,10.554C0.236,10.473 0.149,10.375 0.09,10.267C0.031,10.159 0.001,10.043 0.002,9.925C0.004,9.759 0.063,9.596 0.172,9.454C0.25,9.351 0.358,9.263 0.486,9.197C0.614,9.131 0.76,9.088 0.912,9.072L10.708,7.986ZM16,18.762C16.161,18.762 16.321,18.792 16.464,18.85L23.836,21.804L22.448,15.631C22.414,15.49 22.426,15.343 22.483,15.206C22.539,15.068 22.639,14.944 22.772,14.844L28.586,10.522L20.482,9.624C20.314,9.604 20.156,9.552 20.019,9.474C19.882,9.396 19.771,9.293 19.696,9.175L16.002,3.468L16,3.473L16,18.762Z" fill="#FFC700"/>
</svg>
