<svg width="32" height="24" viewBox="0 0 32 24" fill="none" xmlns="http://www.w3.org/2000/svg" xmlns:xlink="http://www.w3.org/1999/xlink">
<path d="M16.744,0.694L20.811,7.139L29.904,8.172C30.088,8.193 30.261,8.254 30.404,8.347C30.546,8.441 30.652,8.564 30.71,8.703C30.767,8.842 30.774,8.99 30.729,9.131C30.685,9.273 30.59,9.402 30.457,9.503L23.877,14.519L25.43,21.604C25.462,21.747 25.441,21.894 25.371,22.029C25.301,22.164 25.184,22.28 25.033,22.366C24.883,22.451 24.705,22.502 24.519,22.513C24.334,22.523 24.148,22.493 23.984,22.425L15.85,19.081L7.718,22.425C7.553,22.493 7.367,22.523 7.182,22.513C6.996,22.502 6.818,22.451 6.667,22.366C6.517,22.28 6.4,22.163 6.33,22.028C6.26,21.894 6.239,21.746 6.271,21.603L7.824,14.519L1.245,9.503C1.111,9.402 1.016,9.273 0.972,9.132C0.927,8.99 0.934,8.842 0.991,8.703C1.049,8.565 1.155,8.442 1.298,8.348C1.44,8.254 1.613,8.194 1.798,8.173L10.89,7.139L14.955,0.694C15.037,0.564 15.165,0.454 15.323,0.377C15.481,0.3 15.663,0.26 15.849,0.26C16.035,0.26 16.218,0.3 16.376,0.377C16.534,0.454 16.661,0.564 16.744,0.694Z" fill="#FFC700"/>
</svg>
