<svg width="32" height="24" viewBox="0 0 32 24" fill="none" xmlns="http://www.w3.org/2000/svg" xmlns:xlink="http://www.w3.org/1999/xlink">
<path d="M16.229,0.694L20.308,7.139L29.425,8.172C29.61,8.193 29.784,8.254 29.927,8.347C30.07,8.441 30.176,8.564 30.234,8.703C30.292,8.842 30.298,8.99 30.253,9.131C30.209,9.273 30.114,9.402 29.98,9.503L23.383,14.519L24.94,21.604C24.971,21.747 24.951,21.894 24.88,22.029C24.81,22.164 24.693,22.28 24.542,22.366C24.391,22.451 24.212,22.502 24.026,22.513C23.84,22.523 23.654,22.493 23.489,22.425L15.333,19.081L7.179,22.425C7.013,22.493 6.827,22.523 6.641,22.513C6.455,22.502 6.276,22.451 6.125,22.366C5.974,22.28 5.857,22.163 5.787,22.028C5.717,21.894 5.696,21.746 5.728,21.603L7.285,14.519L0.688,9.503C0.554,9.402 0.459,9.273 0.414,9.132C0.369,8.99 0.376,8.842 0.434,8.703C0.492,8.565 0.598,8.442 0.741,8.348C0.884,8.254 1.058,8.194 1.243,8.173L10.36,7.139L14.436,0.694C14.519,0.564 14.646,0.454 14.805,0.377C14.963,0.3 15.146,0.26 15.333,0.26C15.519,0.26 15.702,0.3 15.86,0.377C16.019,0.454 16.147,0.564 16.229,0.694Z" fill="#FFC700"/>
</svg>
