<svg width="28" height="24" viewBox="0 0 28 24" fill="none" xmlns="http://www.w3.org/2000/svg" xmlns:xlink="http://www.w3.org/1999/xlink">
<path d="M13.684,2.457C14.487,1.699 14.523,0.433 13.765,-0.37C13.007,-1.173 11.741,-1.21 10.938,-0.452L13.684,2.457ZM1.935,10.797L0.563,9.343C0.162,9.721 -0.065,10.247 -0.065,10.797C-0.065,11.348 0.162,11.874 0.563,12.252L1.935,10.797ZM10.938,22.046C11.741,22.804 13.007,22.768 13.765,21.965C14.523,21.161 14.487,19.896 13.684,19.137L10.938,22.046ZM25.65,12.797C26.755,12.797 27.65,11.902 27.65,10.797C27.65,9.693 26.755,8.797 25.65,8.797L25.65,12.797ZM10.938,-0.452L0.563,9.343L3.308,12.252L13.684,2.457L10.938,-0.452ZM0.563,12.252L10.938,22.046L13.684,19.137L3.308,9.343L0.563,12.252ZM1.935,12.797L25.65,12.797L25.65,8.797L1.935,8.797L1.935,12.797Z" transform="rotate(359.954 13.793 10.797)" fill="#000000"/>
</svg>
