<svg width="28" height="16" viewBox="0 0 28 16" fill="none" xmlns="http://www.w3.org/2000/svg" xmlns:xlink="http://www.w3.org/1999/xlink">
<path d="M0.941,15.074C1.316,15.449 1.825,15.659 2.355,15.659C2.885,15.659 3.394,15.449 3.769,15.074L13.669,5.174L23.569,15.074C23.946,15.438 24.451,15.64 24.976,15.635C25.5,15.631 26.002,15.42 26.373,15.049C26.743,14.679 26.954,14.177 26.958,13.653C26.963,13.128 26.761,12.623 26.397,12.246L15.083,0.932C14.708,0.557 14.199,0.346 13.669,0.346C13.139,0.346 12.63,0.557 12.255,0.932L0.941,12.246C0.566,12.621 0.355,13.129 0.355,13.66C0.355,14.19 0.566,14.699 0.941,15.074Z" transform="rotate(180.97 13.657 8.003)" fill="#000000"/>
</svg>
