<svg width="8" height="14" viewBox="0 0 8 14" fill="none" xmlns="http://www.w3.org/2000/svg" xmlns:xlink="http://www.w3.org/1999/xlink">
<path d="M3.794,0.644C3.685,0.504 3.536,0.425 3.381,0.425C3.227,0.425 3.078,0.504 2.969,0.644L-0.335,4.869C-0.391,4.938 -0.435,5.02 -0.466,5.111C-0.497,5.202 -0.513,5.3 -0.513,5.399C-0.514,5.499 -0.499,5.597 -0.47,5.689C-0.44,5.78 -0.397,5.864 -0.342,5.934C-0.287,6.004 -0.222,6.06 -0.15,6.097C-0.079,6.135 -0.002,6.154 0.076,6.153C0.153,6.152 0.23,6.131 0.301,6.092C0.372,6.053 0.437,5.996 0.491,5.925L2.797,2.975L2.797,12.865C2.797,13.063 2.859,13.253 2.968,13.393C3.078,13.533 3.227,13.612 3.381,13.612C3.536,13.612 3.685,13.533 3.794,13.393C3.904,13.253 3.965,13.063 3.965,12.865L3.965,2.975L6.272,5.925C6.382,6.061 6.53,6.136 6.683,6.134C6.836,6.133 6.982,6.054 7.091,5.916C7.199,5.777 7.26,5.59 7.262,5.394C7.263,5.198 7.204,5.01 7.098,4.869L3.794,0.644Z" transform="rotate(179.78 3.374 7.018)" fill="#000000"/>
</svg>
