<svg width="70" height="70" viewBox="0 0 70 70" fill="none" xmlns="http://www.w3.org/2000/svg" xmlns:xlink="http://www.w3.org/1999/xlink">
<path d="M37.149,0.715C36.557,0.254 35.794,0 35.002,0C34.211,0 33.447,0.254 32.856,0.715C28.889,3.797 25.974,7.781 24.435,12.226C22.895,16.671 22.791,21.402 24.134,25.896C17.776,22.605 10.407,21.13 3.049,21.674C2.612,21.706 2.187,21.813 1.798,21.989C1.408,22.165 1.062,22.407 0.78,22.7C0.498,22.994 0.285,23.334 0.153,23.7C0.022,24.066 -0.026,24.452 0.013,24.834C0.634,30.824 3.841,36.771 8.284,41.378C6.54,41.279 4.79,41.293 3.049,41.422C2.612,41.454 2.187,41.561 1.798,41.737C1.408,41.913 1.062,42.155 0.78,42.449C0.498,42.742 0.285,43.082 0.153,43.448C0.022,43.814 -0.026,44.2 0.013,44.582C0.736,51.528 4.396,57.986 10.275,62.689C16.154,67.391 23.827,69.999 31.789,70L38.216,70C46.176,69.998 53.847,67.391 59.725,62.689C65.603,57.987 69.263,51.53 69.986,44.586C70.026,44.204 69.979,43.818 69.848,43.451C69.716,43.084 69.503,42.744 69.221,42.45C68.939,42.156 68.593,41.914 68.203,41.737C67.813,41.561 67.388,41.454 66.951,41.422C65.209,41.293 63.459,41.279 61.716,41.378C66.159,36.771 69.365,30.824 69.981,24.834C70.02,24.452 69.972,24.067 69.84,23.702C69.709,23.336 69.496,22.997 69.214,22.703C68.933,22.41 68.588,22.168 68.2,21.991C67.811,21.814 67.387,21.707 66.951,21.674C59.594,21.131 52.227,22.606 45.87,25.896C47.214,21.403 47.111,16.672 45.572,12.227C44.033,7.782 41.115,3.798 37.149,0.715ZM35.005,54.324C30.72,49.118 24.716,45.188 17.802,43.064L17.627,42.95C11.61,39.369 6.521,32.698 5.233,25.966C12.773,25.794 20.122,28.062 25.872,32.338C29.675,35.16 30.722,37.736 31.658,40.053C31.999,40.887 32.325,41.69 32.761,42.454C32.968,42.819 33.288,43.126 33.684,43.341C34.08,43.555 34.537,43.669 35.002,43.669C35.468,43.669 35.924,43.555 36.32,43.341C36.716,43.126 37.036,42.819 37.244,42.454C37.68,41.69 38.005,40.887 38.346,40.049C39.283,37.74 40.33,35.16 44.137,32.338C49.886,28.062 57.232,25.792 64.771,25.962C63.484,32.698 58.394,39.364 52.378,42.95L52.202,43.064C45.29,45.188 39.288,49.119 35.005,54.324ZM31.789,65.612C25.38,65.61 19.183,63.604 14.313,59.956C9.443,56.307 6.22,51.255 5.223,45.71C10.818,45.584 16.345,46.8 21.208,49.226C26.071,51.653 30.085,55.197 32.816,59.476C33.033,59.817 33.35,60.101 33.735,60.299C34.119,60.496 34.557,60.601 35.002,60.601C35.448,60.601 35.886,60.496 36.27,60.299C36.654,60.101 36.972,59.817 37.189,59.476C39.92,55.197 43.933,51.653 48.796,49.226C53.659,46.8 59.187,45.584 64.781,45.71C63.785,51.256 60.561,56.308 55.689,59.957C50.818,63.606 44.62,65.611 38.211,65.612L31.789,65.612ZM35,34.085C30.654,30.197 28.219,24.972 28.219,19.53C28.219,14.089 30.654,8.864 35,4.976C39.346,8.864 41.78,14.089 41.78,19.53C41.78,24.972 39.346,30.197 35,34.085Z" fill="#000000"/>
</svg>
