<svg width="46" height="42" viewBox="0 0 46 42" fill="none" xmlns="http://www.w3.org/2000/svg" xmlns:xlink="http://www.w3.org/1999/xlink">
<path d="M23.344,1.281L29.462,13.158L43.138,15.061C43.415,15.1 43.676,15.212 43.89,15.385C44.105,15.558 44.264,15.785 44.351,16.04C44.437,16.295 44.448,16.569 44.38,16.829C44.313,17.09 44.171,17.328 43.97,17.515L34.074,26.759L36.41,39.815C36.457,40.079 36.426,40.351 36.32,40.599C36.215,40.847 36.039,41.062 35.813,41.22C35.586,41.377 35.318,41.471 35.04,41.49C34.761,41.51 34.482,41.454 34.234,41.329L22,35.165L9.768,41.329C9.52,41.454 9.241,41.51 8.962,41.49C8.682,41.471 8.415,41.377 8.188,41.219C7.962,41.062 7.786,40.846 7.681,40.598C7.575,40.349 7.544,40.078 7.592,39.813L9.928,26.759L0.032,17.515C-0.169,17.328 -0.311,17.091 -0.379,16.83C-0.446,16.569 -0.436,16.296 -0.349,16.041C-0.263,15.785 -0.103,15.558 0.111,15.386C0.326,15.213 0.587,15.101 0.864,15.063L14.54,13.158L20.654,1.281C20.778,1.04 20.969,0.838 21.207,0.696C21.445,0.555 21.719,0.479 21.999,0.479C22.279,0.479 22.553,0.555 22.791,0.696C23.028,0.838 23.22,1.04 23.344,1.281Z" fill="#FFC700"/>
</svg>
