<svg width="30" height="24" viewBox="0 0 30 24" fill="none" xmlns="http://www.w3.org/2000/svg" xmlns:xlink="http://www.w3.org/1999/xlink">
<path d="M15.269,0.694L19.337,7.139L28.429,8.172C28.614,8.193 28.787,8.254 28.929,8.347C29.072,8.441 29.178,8.564 29.236,8.703C29.293,8.842 29.3,8.99 29.255,9.131C29.21,9.273 29.116,9.402 28.982,9.503L22.403,14.519L23.956,21.604C23.987,21.747 23.967,21.894 23.897,22.029C23.826,22.164 23.71,22.28 23.559,22.366C23.409,22.451 23.231,22.502 23.045,22.513C22.86,22.523 22.674,22.493 22.51,22.425L14.376,19.081L6.244,22.425C6.079,22.493 5.893,22.523 5.707,22.513C5.522,22.502 5.344,22.451 5.193,22.366C5.043,22.28 4.926,22.163 4.856,22.028C4.786,21.894 4.765,21.746 4.797,21.603L6.35,14.519L-0.229,9.503C-0.363,9.402 -0.458,9.273 -0.502,9.132C-0.547,8.99 -0.541,8.842 -0.483,8.703C-0.425,8.565 -0.319,8.442 -0.177,8.348C-0.034,8.254 0.139,8.194 0.324,8.173L9.416,7.139L13.481,0.694C13.563,0.564 13.691,0.454 13.849,0.377C14.007,0.3 14.189,0.26 14.375,0.26C14.561,0.26 14.744,0.3 14.902,0.377C15.06,0.454 15.187,0.564 15.269,0.694Z" fill="#FFC700"/>
</svg>
