<svg width="32" height="22" viewBox="0 0 32 22" fill="none" xmlns="http://www.w3.org/2000/svg" xmlns:xlink="http://www.w3.org/1999/xlink">
<path d="M16.156,-0.266L20.223,6.179L29.316,7.212C29.5,7.233 29.673,7.294 29.816,7.387C29.958,7.481 30.064,7.604 30.122,7.743C30.179,7.882 30.186,8.03 30.141,8.171C30.097,8.313 30.002,8.442 29.869,8.543L23.289,13.559L24.842,20.644C24.874,20.787 24.853,20.934 24.783,21.069C24.713,21.204 24.596,21.32 24.445,21.406C24.295,21.491 24.117,21.542 23.931,21.553C23.746,21.563 23.56,21.533 23.396,21.465L15.262,18.121L7.13,21.465C6.965,21.533 6.779,21.563 6.594,21.553C6.408,21.542 6.23,21.491 6.079,21.406C5.929,21.32 5.812,21.203 5.742,21.068C5.672,20.934 5.652,20.786 5.683,20.643L7.236,13.559L0.657,8.543C0.523,8.442 0.429,8.313 0.384,8.172C0.339,8.03 0.346,7.882 0.403,7.743C0.461,7.605 0.567,7.482 0.71,7.388C0.852,7.294 1.026,7.234 1.21,7.213L10.302,6.179L14.367,-0.266C14.45,-0.396 14.577,-0.506 14.735,-0.583C14.893,-0.659 15.075,-0.7 15.261,-0.7C15.448,-0.7 15.63,-0.659 15.788,-0.583C15.946,-0.506 16.073,-0.396 16.156,-0.266Z" fill="#FFC700"/>
</svg>
