<svg width="32" height="24" viewBox="0 0 32 24" fill="none" xmlns="http://www.w3.org/2000/svg" xmlns:xlink="http://www.w3.org/1999/xlink">
<path d="M31.858,8.998C31.687,8.588 31.363,8.227 30.928,7.96C30.492,7.693 29.965,7.532 29.412,7.498L21.607,7.009L18.595,1.352C18.384,0.952 18.024,0.61 17.562,0.369C17.099,0.128 16.555,0 15.999,0C15.442,0 14.898,0.128 14.436,0.369C13.973,0.61 13.613,0.952 13.402,1.352L10.393,7.01L2.588,7.498C2.034,7.534 1.506,7.696 1.07,7.964C0.634,8.232 0.31,8.594 0.138,9.005C-0.034,9.415 -0.045,9.856 0.104,10.272C0.254,10.688 0.559,11.06 0.98,11.342L6.935,15.331L5.115,21.298C4.982,21.719 5.014,22.161 5.205,22.568C5.397,22.974 5.74,23.328 6.191,23.582C6.642,23.837 7.18,23.982 7.737,23.998C8.294,24.015 8.845,23.902 9.32,23.674L15.999,20.481L22.678,23.674C23.152,23.9 23.702,24.012 24.258,23.995C24.814,23.979 25.351,23.834 25.801,23.58C26.251,23.326 26.594,22.974 26.787,22.568C26.979,22.163 27.013,21.722 26.882,21.301L25.062,15.335L31.017,11.345C31.441,11.063 31.747,10.689 31.897,10.271C32.047,9.853 32.033,9.41 31.858,8.998ZM22.14,13.894C21.91,14.048 21.739,14.247 21.646,14.471C21.552,14.695 21.54,14.935 21.61,15.164L23.388,20.996L16.866,17.881C16.605,17.756 16.305,17.69 15.999,17.69C15.692,17.69 15.392,17.756 15.131,17.881L8.61,20.996L10.387,15.169C10.457,14.939 10.445,14.7 10.351,14.476C10.258,14.252 10.087,14.052 9.858,13.898L4.028,9.988L11.668,9.509C11.972,9.49 12.264,9.406 12.51,9.267C12.757,9.127 12.949,8.938 13.065,8.719L15.999,3.202L18.932,8.719C19.048,8.938 19.24,9.127 19.487,9.267C19.734,9.406 20.025,9.49 20.329,9.509L27.969,9.988L22.14,13.894Z" fill="#000000"/>
</svg>
