<svg width="52" height="36" viewBox="0 0 52 36" fill="none" xmlns="http://www.w3.org/2000/svg" xmlns:xlink="http://www.w3.org/1999/xlink">
<path d="M2,0C0.895,0 0,0.895 0,2C0,3.105 0.895,4 2,4L2,0ZM50,4C51.105,4 52,3.105 52,2C52,0.895 51.105,0 50,0L50,4ZM2,16C0.895,16 0,16.895 0,18C0,19.105 0.895,20 2,20L2,16ZM50,20C51.105,20 52,19.105 52,18C52,16.895 51.105,16 50,16L50,20ZM2,32C0.895,32 0,32.895 0,34C0,35.105 0.895,36 2,36L2,32ZM50,36C51.105,36 52,35.105 52,34C52,32.895 51.105,32 50,32L50,36ZM2,4L50,4L50,0L2,0L2,4ZM2,20L50,20L50,16L2,16L2,20ZM2,36L50,36L50,32L2,32L2,36Z" fill="#000000"/>
</svg>
