<svg width="30" height="24" viewBox="0 0 30 24" fill="none" xmlns="http://www.w3.org/2000/svg" xmlns:xlink="http://www.w3.org/1999/xlink">
<path d="M15.841,0.694L19.908,7.139L29.001,8.172C29.185,8.193 29.358,8.254 29.501,8.347C29.643,8.441 29.749,8.564 29.807,8.703C29.865,8.842 29.871,8.99 29.827,9.131C29.782,9.273 29.687,9.402 29.554,9.503L22.975,14.519L24.528,21.604C24.559,21.747 24.538,21.894 24.468,22.029C24.398,22.164 24.281,22.28 24.13,22.366C23.98,22.451 23.802,22.502 23.617,22.513C23.431,22.523 23.246,22.493 23.081,22.425L14.947,19.081L6.815,22.425C6.65,22.493 6.464,22.523 6.279,22.513C6.093,22.502 5.915,22.451 5.765,22.366C5.614,22.28 5.497,22.163 5.427,22.028C5.357,21.894 5.337,21.746 5.368,21.603L6.921,14.519L0.342,9.503C0.208,9.402 0.114,9.273 0.069,9.132C0.024,8.99 0.031,8.842 0.088,8.703C0.146,8.565 0.252,8.442 0.395,8.348C0.537,8.254 0.711,8.194 0.895,8.173L9.987,7.139L14.052,0.694C14.135,0.564 14.262,0.454 14.42,0.377C14.578,0.3 14.76,0.26 14.947,0.26C15.133,0.26 15.315,0.3 15.473,0.377C15.631,0.454 15.758,0.564 15.841,0.694Z" fill="#FFC700"/>
</svg>
