<svg width="360" height="426" viewBox="0 0 360 426" fill="none" xmlns="http://www.w3.org/2000/svg" xmlns:xlink="http://www.w3.org/1999/xlink">
<path d="M167.8,4.789C148.76,22.409 134.37,45.033 126.055,70.416C117.741,95.798 115.791,123.059 120.4,149.493C89.96,130.805 56.4,125.173 17.84,128.586C15.326,128.817 12.879,129.574 10.64,130.815C8.4,132.055 6.412,133.754 4.788,135.815C3.165,137.875 1.938,140.257 1.178,142.824C0.419,145.39 0.14,148.091 0.36,150.773C3.5,187.594 19.4,224.117 41.56,252.661C33.208,252.589 24.861,253.139 16.58,254.303C11.817,254.981 7.478,257.579 4.454,261.561C1.43,265.545 -0.049,270.613 0.32,275.723C3.257,316.425 20.488,354.445 48.569,382.183C76.649,409.919 113.509,425.329 151.78,425.333L208.2,425.333C246.474,425.335 283.34,409.927 311.424,382.189C339.508,354.451 356.742,316.429 359.68,275.723C360.048,270.609 358.566,265.539 355.538,261.555C352.51,257.571 348.166,254.977 343.4,254.303C335.218,253.153 326.972,252.605 318.72,252.661C340.88,224.095 356.78,187.594 359.92,150.773C360.14,148.09 359.86,145.387 359.1,142.819C358.338,140.251 357.11,137.868 355.484,135.808C353.858,133.747 351.868,132.048 349.626,130.809C347.384,129.57 344.936,128.814 342.42,128.586C303.86,125.173 270.12,130.805 239.58,149.493C244.19,123.06 242.244,95.801 233.934,70.419C225.622,45.036 211.236,22.412 192.2,4.789C188.816,1.652 184.483,-0.075 180,-0.075C175.517,-0.075 171.184,1.652 167.8,4.789ZM180,206.175C159.46,183.368 147.989,152.969 147.989,121.344C147.989,89.718 159.46,59.319 180,36.512C200.534,59.318 212.002,89.712 212.002,121.333C212.002,152.953 200.534,183.348 180,206.155M180,325.771C158.215,296.205 128.77,274.115 95.32,262.239C94.672,261.587 93.984,260.981 93.26,260.427C63.86,239.093 38.86,199.754 31.8,159.733C69.18,158.41 98.52,167.989 125.3,192.181C145.8,210.719 154.9,233.311 161.64,250.101C163.4,254.453 164.98,258.421 166.58,261.791C167.827,264.445 169.742,266.677 172.11,268.237C174.478,269.797 177.207,270.623 179.99,270.623C182.773,270.623 185.502,269.797 187.87,268.237C190.238,266.677 192.153,264.445 193.4,261.791C194.973,258.379 196.62,254.481 198.34,250.101C205.1,233.311 214.18,210.699 234.68,192.181C261.46,168.01 291.02,158.41 328.48,159.733C321.4,199.754 296.42,239.093 267.02,260.427C266.348,260.931 265.708,261.479 265.1,262.069C231.474,273.919 201.872,296.063 180,325.771ZM192.86,362.187C220.72,312.479 272.9,281.547 328.44,284.895C323.65,315.215 308.944,342.743 286.932,362.595C264.92,382.447 237.024,393.337 208.2,393.333L151.8,393.333C91.8,393.333 41.32,346.911 31.58,284.917C87.1,281.547 139.28,312.459 167.14,362.187C168.472,364.559 170.358,366.523 172.613,367.887C174.869,369.251 177.417,369.967 180.01,369.967C182.603,369.967 185.151,369.251 187.407,367.887C189.663,366.523 191.548,364.559 192.88,362.187Z" fill="#000000"/>
</svg>
