<svg width="40" height="40" viewBox="0 0 40 40" fill="none" xmlns="http://www.w3.org/2000/svg" xmlns:xlink="http://www.w3.org/1999/xlink">
<path d="M20,40C17.233,40 14.633,39.475 12.2,38.424C9.767,37.373 7.65,35.949 5.85,34.15C4.05,32.351 2.625,30.235 1.576,27.8C0.527,25.365 0.001,22.765 0,20C-0.001,17.235 0.524,14.635 1.576,12.2C2.628,9.765 4.053,7.649 5.85,5.85C7.647,4.051 9.764,2.627 12.2,1.576C14.636,0.525 17.236,0 20,0C22.764,0 25.364,0.525 27.8,1.576C30.236,2.627 32.353,4.051 34.15,5.85C35.947,7.649 37.373,9.765 38.426,12.2C39.479,14.635 40.004,17.235 40,20C39.996,22.765 39.471,25.365 38.424,27.8C37.377,30.235 35.953,32.351 34.15,34.15C32.347,35.949 30.231,37.374 27.8,38.426C25.369,39.478 22.769,40.003 20,40Z" fill="#000000"/>
</svg>
