<svg width="8" height="14" viewBox="0 0 8 14" fill="none" xmlns="http://www.w3.org/2000/svg" xmlns:xlink="http://www.w3.org/1999/xlink">
<path d="M4.058,0.644C3.949,0.504 3.8,0.425 3.646,0.425C3.491,0.425 3.342,0.504 3.233,0.644L-0.071,4.869C-0.127,4.938 -0.171,5.02 -0.202,5.111C-0.232,5.202 -0.248,5.3 -0.249,5.399C-0.25,5.499 -0.235,5.597 -0.206,5.689C-0.176,5.78 -0.133,5.864 -0.078,5.934C-0.023,6.004 0.042,6.06 0.114,6.097C0.185,6.135 0.262,6.154 0.34,6.153C0.417,6.152 0.494,6.131 0.565,6.092C0.637,6.053 0.701,5.996 0.755,5.925L3.062,2.975L3.062,12.865C3.062,13.063 3.123,13.253 3.233,13.393C3.342,13.533 3.491,13.612 3.646,13.612C3.8,13.612 3.949,13.533 4.059,13.393C4.168,13.253 4.23,13.063 4.23,12.865L4.23,2.975L6.536,5.925C6.646,6.061 6.794,6.136 6.947,6.134C7.1,6.133 7.247,6.054 7.355,5.916C7.463,5.777 7.525,5.59 7.526,5.394C7.527,5.198 7.468,5.01 7.362,4.869L4.058,0.644Z" transform="rotate(179.78 3.638 7.018)" fill="#000000"/>
</svg>
