<svg width="46" height="60" viewBox="0 0 46 60" fill="none" xmlns="http://www.w3.org/2000/svg" xmlns:xlink="http://www.w3.org/1999/xlink">
<path d="M22,41C25.447,40.996 28.751,39.625 31.188,37.188C33.625,34.751 34.996,31.447 35,28L35,12C35,8.552 33.63,5.246 31.192,2.808C28.754,0.37 25.448,-1 22,-1C18.552,-1 15.246,0.37 12.808,2.808C10.37,5.246 9,8.552 9,12L9,28C9.004,31.447 10.375,34.751 12.812,37.188C15.249,39.625 18.553,40.996 22,41ZM15,12C15,10.143 15.738,8.363 17.05,7.05C18.363,5.737 20.143,5 22,5C23.857,5 25.637,5.737 26.95,7.05C28.263,8.363 29,10.143 29,12L29,28C29,29.857 28.263,31.637 26.95,32.95C25.637,34.263 23.857,35 22,35C20.143,35 18.363,34.263 17.05,32.95C15.738,31.637 15,29.857 15,28L15,12ZM25,50.805L25,56C25,56.796 24.684,57.559 24.121,58.121C23.559,58.684 22.796,59 22,59C21.204,59 20.441,58.684 19.879,58.121C19.316,57.559 19,56.796 19,56L19,50.805C13.47,50.07 8.395,47.353 4.717,43.159C1.038,38.965 -0.993,33.579 -1,28C-1,27.204 -0.684,26.441 -0.121,25.879C0.441,25.316 1.204,25 2,25C2.796,25 3.559,25.316 4.121,25.879C4.684,26.441 5,27.204 5,28C5,32.509 6.791,36.833 9.979,40.021C13.167,43.209 17.491,45 22,45C26.509,45 30.833,43.209 34.021,40.021C37.209,36.833 39,32.509 39,28C39,27.204 39.316,26.441 39.879,25.879C40.441,25.316 41.204,25 42,25C42.796,25 43.559,25.316 44.121,25.879C44.684,26.441 45,27.204 45,28C44.993,33.579 42.962,38.965 39.283,43.159C35.605,47.353 30.53,50.07 25,50.805Z" fill="#000000"/>
</svg>
