<svg width="30" height="22" viewBox="0 0 30 22" fill="none" xmlns="http://www.w3.org/2000/svg" xmlns:xlink="http://www.w3.org/1999/xlink">
<path d="M15.309,-0.266L19.377,6.179L28.469,7.212C28.653,7.233 28.827,7.294 28.969,7.387C29.112,7.481 29.218,7.604 29.275,7.743C29.333,7.882 29.34,8.03 29.295,8.171C29.25,8.313 29.156,8.442 29.022,8.543L22.443,13.559L23.996,20.644C24.027,20.787 24.006,20.934 23.936,21.069C23.866,21.204 23.749,21.32 23.599,21.406C23.448,21.491 23.27,21.542 23.085,21.553C22.899,21.563 22.714,21.533 22.549,21.465L14.415,18.121L6.283,21.465C6.118,21.533 5.933,21.563 5.747,21.553C5.561,21.542 5.383,21.491 5.233,21.406C5.082,21.32 4.965,21.203 4.895,21.068C4.825,20.934 4.805,20.786 4.836,20.643L6.389,13.559L-0.19,8.543C-0.324,8.442 -0.418,8.313 -0.463,8.172C-0.508,8.03 -0.501,7.882 -0.443,7.743C-0.386,7.605 -0.28,7.482 -0.137,7.388C0.006,7.294 0.179,7.234 0.363,7.213L9.456,6.179L13.521,-0.266C13.603,-0.396 13.73,-0.506 13.888,-0.583C14.046,-0.659 14.229,-0.7 14.415,-0.7C14.601,-0.7 14.783,-0.659 14.941,-0.583C15.099,-0.506 15.227,-0.396 15.309,-0.266Z" fill="#FFC700"/>
</svg>
