<svg width="30" height="22" viewBox="0 0 30 22" fill="none" xmlns="http://www.w3.org/2000/svg" xmlns:xlink="http://www.w3.org/1999/xlink">
<path d="M15.012,-0.266L19.08,6.179L28.172,7.212C28.356,7.233 28.53,7.294 28.672,7.387C28.815,7.481 28.921,7.604 28.978,7.743C29.036,7.882 29.043,8.03 28.998,8.171C28.953,8.313 28.859,8.442 28.725,8.543L22.146,13.559L23.699,20.644C23.73,20.787 23.71,20.934 23.639,21.069C23.569,21.204 23.452,21.32 23.302,21.406C23.151,21.491 22.973,21.542 22.788,21.553C22.602,21.563 22.417,21.533 22.252,21.465L14.119,18.121L5.986,21.465C5.821,21.533 5.636,21.563 5.45,21.553C5.265,21.542 5.086,21.491 4.936,21.406C4.785,21.32 4.668,21.203 4.598,21.068C4.528,20.934 4.508,20.786 4.539,20.643L6.093,13.559L-0.487,8.543C-0.62,8.442 -0.715,8.313 -0.76,8.172C-0.805,8.03 -0.798,7.882 -0.74,7.743C-0.683,7.605 -0.576,7.482 -0.434,7.388C-0.291,7.294 -0.118,7.234 0.066,7.213L9.159,6.179L13.224,-0.266C13.306,-0.396 13.433,-0.506 13.591,-0.583C13.749,-0.659 13.932,-0.7 14.118,-0.7C14.304,-0.7 14.486,-0.659 14.644,-0.583C14.802,-0.506 14.93,-0.396 15.012,-0.266Z" fill="#FFC700"/>
</svg>
