<svg width="46" height="42" viewBox="0 0 46 42" fill="none" xmlns="http://www.w3.org/2000/svg" xmlns:xlink="http://www.w3.org/1999/xlink">
<path d="M23.344,-0.071L29.462,12.276L43.138,14.255C43.415,14.294 43.676,14.411 43.89,14.591C44.105,14.77 44.264,15.006 44.351,15.272C44.437,15.537 44.448,15.822 44.38,16.093C44.313,16.364 44.171,16.61 43.97,16.805L34.074,26.415L36.41,39.988C36.457,40.263 36.426,40.545 36.32,40.803C36.215,41.061 36.039,41.284 35.813,41.448C35.586,41.612 35.318,41.709 35.04,41.729C34.761,41.749 34.482,41.691 34.234,41.562L22,35.154L9.768,41.562C9.52,41.692 9.241,41.75 8.962,41.729C8.682,41.709 8.415,41.612 8.188,41.448C7.962,41.284 7.786,41.06 7.681,40.802C7.575,40.543 7.544,40.261 7.592,39.986L9.928,26.415L0.032,16.805C-0.169,16.611 -0.311,16.364 -0.379,16.093C-0.446,15.822 -0.436,15.538 -0.349,15.272C-0.263,15.007 -0.103,14.771 0.111,14.592C0.326,14.412 0.587,14.296 0.864,14.257L14.54,12.276L20.654,-0.071C20.778,-0.321 20.969,-0.532 21.207,-0.679C21.445,-0.826 21.719,-0.904 21.999,-0.904C22.279,-0.904 22.553,-0.826 22.791,-0.679C23.028,-0.532 23.22,-0.321 23.344,-0.071Z" fill="#FFC700"/>
</svg>
