<svg width="32" height="24" viewBox="0 0 32 24" fill="none" xmlns="http://www.w3.org/2000/svg" xmlns:xlink="http://www.w3.org/1999/xlink">
<path d="M16.753,0.694L20.821,7.139L29.913,8.172C30.098,8.193 30.271,8.254 30.413,8.347C30.556,8.441 30.662,8.564 30.72,8.703C30.777,8.842 30.784,8.99 30.739,9.131C30.694,9.273 30.6,9.402 30.466,9.503L23.887,14.519L25.44,21.604C25.471,21.747 25.451,21.894 25.381,22.029C25.31,22.164 25.194,22.28 25.043,22.366C24.893,22.451 24.715,22.502 24.529,22.513C24.344,22.523 24.158,22.493 23.994,22.425L15.86,19.081L7.727,22.425C7.563,22.493 7.377,22.523 7.191,22.513C7.006,22.502 6.828,22.451 6.677,22.366C6.527,22.28 6.41,22.163 6.34,22.028C6.27,21.894 6.249,21.746 6.281,21.603L7.834,14.519L1.254,9.503C1.121,9.402 1.026,9.273 0.981,9.132C0.937,8.99 0.943,8.842 1.001,8.703C1.059,8.565 1.165,8.442 1.307,8.348C1.45,8.254 1.623,8.194 1.808,8.173L10.9,7.139L14.965,0.694C15.047,0.564 15.175,0.454 15.333,0.377C15.491,0.3 15.673,0.26 15.859,0.26C16.045,0.26 16.228,0.3 16.386,0.377C16.544,0.454 16.671,0.564 16.753,0.694Z" fill="#FFC700"/>
</svg>
