<svg width="44" height="44" viewBox="0 0 44 44" fill="none" xmlns="http://www.w3.org/2000/svg" xmlns:xlink="http://www.w3.org/1999/xlink">
<path d="M7,0L6.374,0.812L0,9.312L0,44L44,44L44,9.312L37.624,0.812L37,0L7,0ZM9,4L20,4L20,8L6,8L9,4ZM24,4L35,4L38,8L24,8L24,4ZM4,12L40,12L40,40L4,40L4,12ZM15.626,16C14.524,16.1 13.71,17.086 13.812,18.188C13.914,19.288 14.898,20.102 16,20L28,20C28.72,20.008 29.39,19.632 29.758,19.008C29.935,18.701 30.027,18.354 30.027,18C30.027,17.646 29.935,17.299 29.758,16.992C29.39,16.368 28.718,15.992 28,16L15.626,16Z" fill="#000000"/>
</svg>
