<svg width="32" height="24" viewBox="0 0 32 24" fill="none" xmlns="http://www.w3.org/2000/svg" xmlns:xlink="http://www.w3.org/1999/xlink">
<path d="M16.413,0.694L20.481,7.139L29.574,8.172C29.758,8.193 29.931,8.254 30.074,8.347C30.216,8.441 30.322,8.564 30.38,8.703C30.437,8.842 30.444,8.99 30.399,9.131C30.355,9.273 30.26,9.402 30.127,9.503L23.547,14.519L25.1,21.604C25.132,21.747 25.111,21.894 25.041,22.029C24.971,22.164 24.854,22.28 24.703,22.366C24.553,22.451 24.375,22.502 24.189,22.513C24.004,22.523 23.818,22.493 23.654,22.425L15.52,19.081L7.388,22.425C7.223,22.493 7.037,22.523 6.852,22.513C6.666,22.502 6.488,22.451 6.337,22.366C6.187,22.28 6.07,22.163 6,22.028C5.93,21.894 5.909,21.746 5.941,21.603L7.494,14.519L0.915,9.503C0.781,9.402 0.686,9.273 0.642,9.132C0.597,8.99 0.604,8.842 0.661,8.703C0.719,8.565 0.825,8.442 0.967,8.348C1.11,8.254 1.283,8.194 1.468,8.173L10.56,7.139L14.625,0.694C14.707,0.564 14.835,0.454 14.993,0.377C15.151,0.3 15.333,0.26 15.519,0.26C15.705,0.26 15.888,0.3 16.046,0.377C16.204,0.454 16.331,0.564 16.413,0.694Z" fill="#FFC700"/>
</svg>
