<svg width="30" height="24" viewBox="0 0 30 24" fill="none" xmlns="http://www.w3.org/2000/svg" xmlns:xlink="http://www.w3.org/1999/xlink">
<path d="M14.986,0.694L19.053,7.139L28.146,8.172C28.33,8.193 28.503,8.254 28.646,8.347C28.788,8.441 28.894,8.564 28.952,8.703C29.01,8.842 29.016,8.99 28.972,9.131C28.927,9.273 28.832,9.402 28.699,9.503L22.12,14.519L23.673,21.604C23.704,21.747 23.683,21.894 23.613,22.029C23.543,22.164 23.426,22.28 23.275,22.366C23.125,22.451 22.947,22.502 22.762,22.513C22.576,22.523 22.391,22.493 22.226,22.425L14.092,19.081L5.96,22.425C5.795,22.493 5.609,22.523 5.424,22.513C5.238,22.502 5.06,22.451 4.91,22.366C4.759,22.28 4.642,22.163 4.572,22.028C4.502,21.894 4.482,21.746 4.513,21.603L6.066,14.519L-0.513,9.503C-0.647,9.402 -0.741,9.273 -0.786,9.132C-0.831,8.99 -0.824,8.842 -0.767,8.703C-0.709,8.565 -0.603,8.442 -0.46,8.348C-0.318,8.254 -0.144,8.194 0.04,8.173L9.132,7.139L13.197,0.694C13.28,0.564 13.407,0.454 13.565,0.377C13.723,0.3 13.905,0.26 14.092,0.26C14.278,0.26 14.46,0.3 14.618,0.377C14.776,0.454 14.903,0.564 14.986,0.694Z" fill="#FFC700"/>
</svg>
