<svg width="28" height="16" viewBox="0 0 28 16" fill="none" xmlns="http://www.w3.org/2000/svg" xmlns:xlink="http://www.w3.org/1999/xlink">
<path d="M1.076,15.209C1.451,15.583 1.96,15.794 2.49,15.794C3.02,15.794 3.529,15.583 3.904,15.209L13.804,5.309L23.704,15.209C24.081,15.573 24.587,15.774 25.111,15.77C25.635,15.765 26.137,15.555 26.508,15.184C26.879,14.813 27.089,14.312 27.094,13.787C27.098,13.263 26.896,12.758 26.532,12.381L15.218,1.067C14.843,0.692 14.334,0.481 13.804,0.481C13.274,0.481 12.765,0.692 12.39,1.067L1.076,12.381C0.701,12.756 0.491,13.264 0.491,13.795C0.491,14.325 0.701,14.833 1.076,15.209Z" transform="rotate(180.97 13.792 8.138)" fill="#000000"/>
</svg>
