<svg width="50" height="44" viewBox="0 0 50 44" fill="none" xmlns="http://www.w3.org/2000/svg" xmlns:xlink="http://www.w3.org/1999/xlink">
<path d="M16.062,12.828L22.614,0.559C22.741,0.313 22.938,0.106 23.183,-0.041C23.427,-0.187 23.71,-0.266 24,-0.269C24.549,-0.269 25.098,0.006 25.395,0.559L31.947,12.828L46.641,14.802C47.007,14.858 47.341,15.03 47.588,15.291C47.835,15.551 47.981,15.884 48,16.233C48.021,16.466 47.985,16.701 47.897,16.919C47.809,17.138 47.67,17.334 47.49,17.495L36.921,27.011L39.411,40.422C39.645,41.678 38.331,42.662 37.173,42.101L24,35.704L10.833,42.101C10.696,42.169 10.548,42.217 10.395,42.243C9.369,42.413 8.391,41.522 8.595,40.422L11.085,27.011L0.519,17.495C0.355,17.348 0.224,17.171 0.135,16.975C0.047,16.778 0.002,16.566 0.003,16.353C0.006,16.051 0.094,15.755 0.258,15.496C0.376,15.309 0.537,15.149 0.729,15.029C0.921,14.909 1.14,14.831 1.368,14.802L16.062,12.828ZM24,32.415C24.242,32.414 24.481,32.469 24.696,32.574L35.754,37.944L33.672,26.724C33.622,26.466 33.64,26.201 33.724,25.951C33.809,25.701 33.958,25.475 34.158,25.293L42.879,17.439L30.723,15.805C30.472,15.768 30.234,15.675 30.028,15.533C29.823,15.391 29.657,15.204 29.544,14.989L24.003,4.617L24,4.625L24,32.415Z" fill="#FFC700"/>
</svg>
