<svg width="10" height="14" viewBox="0 0 10 14" fill="none" xmlns="http://www.w3.org/2000/svg" xmlns:xlink="http://www.w3.org/1999/xlink">
<path d="M4.647,0.644C4.537,0.504 4.389,0.425 4.234,0.425C4.079,0.425 3.931,0.504 3.821,0.644L0.518,4.869C0.462,4.938 0.417,5.02 0.387,5.111C0.356,5.202 0.34,5.3 0.339,5.399C0.339,5.499 0.353,5.597 0.383,5.689C0.412,5.78 0.455,5.864 0.51,5.934C0.565,6.004 0.63,6.06 0.702,6.097C0.774,6.135 0.851,6.154 0.928,6.153C1.006,6.152 1.082,6.131 1.154,6.092C1.225,6.053 1.289,5.996 1.343,5.925L3.65,2.975L3.65,12.865C3.65,13.063 3.711,13.253 3.821,13.393C3.931,13.533 4.079,13.612 4.234,13.612C4.389,13.612 4.537,13.533 4.647,13.393C4.756,13.253 4.818,13.063 4.818,12.865L4.818,2.975L7.125,5.925C7.235,6.061 7.382,6.136 7.535,6.134C7.689,6.133 7.835,6.054 7.943,5.916C8.052,5.777 8.113,5.59 8.114,5.394C8.116,5.198 8.057,5.01 7.95,4.869L4.647,0.644Z" transform="rotate(179.78 4.227 7.018)" fill="#000000"/>
</svg>
