<svg width="32" height="24" viewBox="0 0 32 24" fill="none" xmlns="http://www.w3.org/2000/svg" xmlns:xlink="http://www.w3.org/1999/xlink">
<path d="M16.149,0.694L20.217,7.139L29.309,8.172C29.494,8.193 29.667,8.254 29.809,8.347C29.952,8.441 30.058,8.564 30.116,8.703C30.173,8.842 30.18,8.99 30.135,9.131C30.09,9.273 29.996,9.402 29.862,9.503L23.283,14.519L24.836,21.604C24.867,21.747 24.847,21.894 24.777,22.029C24.706,22.164 24.59,22.28 24.439,22.366C24.289,22.451 24.111,22.502 23.925,22.513C23.74,22.523 23.554,22.493 23.39,22.425L15.256,19.081L7.123,22.425C6.959,22.493 6.773,22.523 6.587,22.513C6.402,22.502 6.224,22.451 6.073,22.366C5.923,22.28 5.806,22.163 5.736,22.028C5.666,21.894 5.645,21.746 5.677,21.603L7.23,14.519L0.65,9.503C0.517,9.402 0.422,9.273 0.377,9.132C0.333,8.99 0.339,8.842 0.397,8.703C0.455,8.565 0.561,8.442 0.703,8.348C0.846,8.254 1.019,8.194 1.204,8.173L10.296,7.139L14.361,0.694C14.443,0.564 14.571,0.454 14.729,0.377C14.887,0.3 15.069,0.26 15.255,0.26C15.441,0.26 15.624,0.3 15.782,0.377C15.94,0.454 16.067,0.564 16.149,0.694Z" fill="#FFC700"/>
</svg>
