<svg width="30" height="22" viewBox="0 0 30 22" fill="none" xmlns="http://www.w3.org/2000/svg" xmlns:xlink="http://www.w3.org/1999/xlink">
<path d="M14.896,-0.266L18.975,6.179L28.092,7.212C28.277,7.233 28.451,7.294 28.594,7.387C28.737,7.481 28.843,7.604 28.901,7.743C28.959,7.882 28.965,8.03 28.92,8.171C28.876,8.313 28.781,8.442 28.647,8.543L22.05,13.559L23.607,20.644C23.638,20.787 23.618,20.934 23.547,21.069C23.477,21.204 23.36,21.32 23.209,21.406C23.058,21.491 22.879,21.542 22.693,21.553C22.507,21.563 22.321,21.533 22.156,21.465L14,18.121L5.846,21.465C5.68,21.533 5.494,21.563 5.308,21.553C5.122,21.542 4.943,21.491 4.792,21.406C4.641,21.32 4.524,21.203 4.454,21.068C4.384,20.934 4.363,20.786 4.395,20.643L5.952,13.559L-0.645,8.543C-0.779,8.442 -0.874,8.313 -0.919,8.172C-0.964,8.03 -0.957,7.882 -0.899,7.743C-0.842,7.605 -0.735,7.482 -0.592,7.388C-0.449,7.294 -0.275,7.234 -0.09,7.213L9.027,6.179L13.103,-0.266C13.185,-0.396 13.313,-0.506 13.472,-0.583C13.63,-0.659 13.813,-0.7 14,-0.7C14.186,-0.7 14.369,-0.659 14.527,-0.583C14.686,-0.506 14.814,-0.396 14.896,-0.266Z" fill="#FFB93E"/>
</svg>
