<svg width="50" height="46" viewBox="0 0 50 46" fill="none" xmlns="http://www.w3.org/2000/svg" xmlns:xlink="http://www.w3.org/1999/xlink">
<path d="M16.062,13.905L22.614,0.972C22.741,0.713 22.938,0.494 23.183,0.34C23.427,0.186 23.71,0.103 24,0.1C24.549,0.1 25.098,0.39 25.395,0.972L31.947,13.905L46.641,15.985C47.007,16.044 47.341,16.226 47.588,16.5C47.835,16.775 47.981,17.126 48,17.494C48.021,17.74 47.985,17.987 47.897,18.217C47.809,18.447 47.67,18.655 47.49,18.824L36.921,28.854L39.411,42.991C39.645,44.315 38.331,45.352 37.173,44.761L24,38.018L10.833,44.761C10.696,44.833 10.548,44.883 10.395,44.91C9.369,45.089 8.391,44.151 8.595,42.991L11.085,28.854L0.519,18.824C0.355,18.669 0.224,18.483 0.135,18.275C0.047,18.068 0.002,17.845 0.003,17.62C0.006,17.302 0.094,16.99 0.258,16.717C0.376,16.52 0.537,16.351 0.729,16.224C0.921,16.098 1.14,16.016 1.368,15.985L16.062,13.905ZM24,34.551C24.242,34.55 24.481,34.607 24.696,34.718L35.754,40.379L33.672,28.553C33.622,28.281 33.64,28 33.724,27.737C33.809,27.474 33.958,27.235 34.158,27.043L42.879,18.764L30.723,17.043C30.472,17.004 30.234,16.905 30.028,16.755C29.823,16.606 29.657,16.409 29.544,16.182L24.003,5.249L24,5.258L24,34.551Z" fill="#FFC700"/>
</svg>
