<svg width="30" height="24" viewBox="0 0 30 24" fill="none" xmlns="http://www.w3.org/2000/svg" xmlns:xlink="http://www.w3.org/1999/xlink">
<path d="M15.842,0.694L19.91,7.139L29.002,8.172C29.186,8.193 29.36,8.254 29.502,8.347C29.645,8.441 29.751,8.564 29.808,8.703C29.866,8.842 29.873,8.99 29.828,9.131C29.783,9.273 29.689,9.402 29.555,9.503L22.976,14.519L24.529,21.604C24.56,21.747 24.54,21.894 24.469,22.029C24.399,22.164 24.282,22.28 24.132,22.366C23.981,22.451 23.803,22.502 23.618,22.513C23.432,22.523 23.247,22.493 23.082,22.425L14.949,19.081L6.816,22.425C6.652,22.493 6.466,22.523 6.28,22.513C6.095,22.502 5.916,22.451 5.766,22.366C5.615,22.28 5.499,22.163 5.428,22.028C5.358,21.894 5.338,21.746 5.37,21.603L6.923,14.519L0.343,9.503C0.21,9.402 0.115,9.273 0.07,9.132C0.025,8.99 0.032,8.842 0.09,8.703C0.147,8.565 0.254,8.442 0.396,8.348C0.539,8.254 0.712,8.194 0.896,8.173L9.989,7.139L14.054,0.694C14.136,0.564 14.264,0.454 14.422,0.377C14.58,0.3 14.762,0.26 14.948,0.26C15.134,0.26 15.316,0.3 15.474,0.377C15.632,0.454 15.76,0.564 15.842,0.694Z" fill="#FFC700"/>
</svg>
