<svg width="32" height="24" viewBox="0 0 32 24" fill="none" xmlns="http://www.w3.org/2000/svg" xmlns:xlink="http://www.w3.org/1999/xlink">
<path d="M16.177,0.694L20.245,7.139L29.337,8.172C29.521,8.193 29.695,8.254 29.837,8.347C29.98,8.441 30.086,8.564 30.143,8.703C30.201,8.842 30.208,8.99 30.163,9.131C30.118,9.273 30.024,9.402 29.89,9.503L23.311,14.519L24.864,21.604C24.895,21.747 24.875,21.894 24.804,22.029C24.734,22.164 24.617,22.28 24.467,22.366C24.316,22.451 24.138,22.502 23.953,22.513C23.767,22.523 23.582,22.493 23.417,22.425L15.284,19.081L7.151,22.425C6.986,22.493 6.801,22.523 6.615,22.513C6.43,22.502 6.251,22.451 6.101,22.366C5.95,22.28 5.834,22.163 5.763,22.028C5.693,21.894 5.673,21.746 5.705,21.603L7.258,14.519L0.678,9.503C0.545,9.402 0.45,9.273 0.405,9.132C0.36,8.99 0.367,8.842 0.425,8.703C0.482,8.565 0.589,8.442 0.731,8.348C0.874,8.254 1.047,8.194 1.231,8.173L10.324,7.139L14.389,0.694C14.471,0.564 14.598,0.454 14.756,0.377C14.915,0.3 15.097,0.26 15.283,0.26C15.469,0.26 15.651,0.3 15.809,0.377C15.967,0.454 16.095,0.564 16.177,0.694Z" fill="#FFC700"/>
</svg>
