<svg width="44" height="56" viewBox="0 0 44 56" fill="none" xmlns="http://www.w3.org/2000/svg" xmlns:xlink="http://www.w3.org/1999/xlink">
<path d="M20.667,52C21.771,52 22.667,51.105 22.667,50C22.667,48.895 21.771,48 20.667,48L20.667,52ZM2,44.667L0,44.667L2,44.667ZM7.333,2L7.333,0L7.333,2ZM28.667,2L28.667,0L28.667,2ZM32,20.667C32,21.771 32.895,22.667 34,22.667C35.105,22.667 36,21.771 36,20.667L32,20.667ZM15.333,2.667C14.229,2.667 13.333,3.562 13.333,4.667C13.333,5.771 14.229,6.667 15.333,6.667L15.333,2.667ZM20.667,6.667C21.771,6.667 22.667,5.771 22.667,4.667C22.667,3.562 21.771,2.667 20.667,2.667L20.667,6.667ZM20,39.333C20,38.229 19.105,37.333 18,37.333C16.895,37.333 16,38.229 16,39.333L20,39.333ZM16,39.36C16,40.465 16.895,41.36 18,41.36C19.105,41.36 20,40.465 20,39.36L16,39.36ZM42,36C43.105,36 44,35.105 44,34C44,32.895 43.105,32 42,32L42,36ZM35.333,34L35.333,32L35.333,34ZM31.333,48C30.229,48 29.333,48.895 29.333,50C29.333,51.105 30.229,52 31.333,52L31.333,48ZM38.667,50C38.667,48.895 37.771,48 36.667,48C35.562,48 34.667,48.895 34.667,50L38.667,50ZM34.667,52.667C34.667,53.771 35.562,54.667 36.667,54.667C37.771,54.667 38.667,53.771 38.667,52.667L34.667,52.667ZM38.667,31.333C38.667,30.229 37.771,29.333 36.667,29.333C35.562,29.333 34.667,30.229 34.667,31.333L38.667,31.333ZM34.667,34C34.667,35.105 35.562,36 36.667,36C37.771,36 38.667,35.105 38.667,34L34.667,34ZM20.667,48L7.333,48L7.333,52L20.667,52L20.667,48ZM7.333,48C6.449,48 5.601,47.649 4.976,47.024L2.148,49.852C3.523,51.227 5.388,52 7.333,52L7.333,48ZM4.976,47.024C4.351,46.399 4,45.551 4,44.667L0,44.667C0,46.612 0.773,48.477 2.148,49.852L4.976,47.024ZM4,44.667L4,7.333L0,7.333L0,44.667L4,44.667ZM4,7.333C4,6.449 4.351,5.601 4.976,4.976L2.148,2.148C0.773,3.523 0,5.388 0,7.333L4,7.333ZM4.976,4.976C5.601,4.351 6.449,4 7.333,4L7.333,0C5.388,0 3.523,0.773 2.148,2.148L4.976,4.976ZM7.333,4L28.667,4L28.667,0L7.333,0L7.333,4ZM28.667,4C29.551,4 30.399,4.351 31.024,4.976L33.852,2.148C32.477,0.773 30.612,0 28.667,0L28.667,4ZM31.024,4.976C31.649,5.601 32,6.449 32,7.333L36,7.333C36,5.388 35.227,3.523 33.852,2.148L31.024,4.976ZM32,7.333L32,20.667L36,20.667L36,7.333L32,7.333ZM15.333,6.667L20.667,6.667L20.667,2.667L15.333,2.667L15.333,6.667ZM16,39.333L16,39.36L20,39.36L20,39.333L16,39.333ZM42,32L35.333,32L35.333,36L42,36L42,32ZM35.333,32C33.742,32 32.216,32.632 31.091,33.757L33.919,36.586C34.294,36.211 34.803,36 35.333,36L35.333,32ZM31.091,33.757C29.965,34.883 29.333,36.409 29.333,38L33.333,38C33.333,37.47 33.544,36.961 33.919,36.586L31.091,33.757ZM29.333,38C29.333,39.591 29.965,41.117 31.091,42.243L33.919,39.414C33.544,39.039 33.333,38.53 33.333,38L29.333,38ZM31.091,42.243C32.216,43.368 33.742,44 35.333,44L35.333,40C34.803,40 34.294,39.789 33.919,39.414L31.091,42.243ZM35.333,44L38,44L38,40L35.333,40L35.333,44ZM38,44C38.53,44 39.039,44.211 39.414,44.586L42.243,41.757C41.117,40.632 39.591,40 38,40L38,44ZM39.414,44.586C39.789,44.961 40,45.47 40,46L44,46C44,44.409 43.368,42.883 42.243,41.757L39.414,44.586ZM40,46C40,46.53 39.789,47.039 39.414,47.414L42.243,50.243C43.368,49.117 44,47.591 44,46L40,46ZM39.414,47.414C39.039,47.789 38.53,48 38,48L38,52C39.591,52 41.117,51.368 42.243,50.243L39.414,47.414ZM38,48L31.333,48L31.333,52L38,52L38,48ZM34.667,50L34.667,52.667L38.667,52.667L38.667,50L34.667,50ZM34.667,31.333L34.667,34L38.667,34L38.667,31.333L34.667,31.333Z" fill="#000000"/>
</svg>
