<svg width="30" height="24" viewBox="0 0 30 24" fill="none" xmlns="http://www.w3.org/2000/svg" xmlns:xlink="http://www.w3.org/1999/xlink">
<path d="M14.896,0.694L18.975,7.139L28.092,8.172C28.277,8.193 28.451,8.254 28.594,8.347C28.737,8.441 28.843,8.564 28.901,8.703C28.959,8.842 28.965,8.99 28.92,9.131C28.876,9.273 28.781,9.402 28.647,9.503L22.05,14.519L23.607,21.604C23.638,21.747 23.618,21.894 23.547,22.029C23.477,22.164 23.36,22.28 23.209,22.366C23.058,22.451 22.879,22.502 22.693,22.513C22.507,22.523 22.321,22.493 22.156,22.425L14,19.081L5.846,22.425C5.68,22.493 5.494,22.523 5.308,22.513C5.122,22.502 4.943,22.451 4.792,22.366C4.641,22.28 4.524,22.163 4.454,22.028C4.384,21.894 4.363,21.746 4.395,21.603L5.952,14.519L-0.645,9.503C-0.779,9.402 -0.874,9.273 -0.919,9.132C-0.964,8.99 -0.957,8.842 -0.899,8.703C-0.842,8.565 -0.735,8.442 -0.592,8.348C-0.449,8.254 -0.275,8.194 -0.09,8.173L9.027,7.139L13.103,0.694C13.185,0.564 13.313,0.454 13.472,0.377C13.63,0.3 13.813,0.26 14,0.26C14.186,0.26 14.369,0.3 14.527,0.377C14.686,0.454 14.814,0.564 14.896,0.694Z" fill="#FFC700"/>
</svg>
