<svg width="32" height="22" viewBox="0 0 32 22" fill="none" xmlns="http://www.w3.org/2000/svg" xmlns:xlink="http://www.w3.org/1999/xlink">
<path d="M16.445,-0.266L20.512,6.179L29.605,7.212C29.789,7.233 29.962,7.294 30.105,7.387C30.247,7.481 30.353,7.604 30.411,7.743C30.469,7.882 30.475,8.03 30.431,8.171C30.386,8.313 30.291,8.442 30.158,8.543L23.579,13.559L25.132,20.644C25.163,20.787 25.142,20.934 25.072,21.069C25.002,21.204 24.885,21.32 24.734,21.406C24.584,21.491 24.406,21.542 24.221,21.553C24.035,21.563 23.85,21.533 23.685,21.465L15.551,18.121L7.419,21.465C7.254,21.533 7.068,21.563 6.883,21.553C6.697,21.542 6.519,21.491 6.369,21.406C6.218,21.32 6.101,21.203 6.031,21.068C5.961,20.934 5.941,20.786 5.972,20.643L7.525,13.559L0.946,8.543C0.812,8.442 0.718,8.313 0.673,8.172C0.628,8.03 0.635,7.882 0.692,7.743C0.75,7.605 0.856,7.482 0.999,7.388C1.141,7.294 1.315,7.234 1.499,7.213L10.591,6.179L14.656,-0.266C14.739,-0.396 14.866,-0.506 15.024,-0.583C15.182,-0.659 15.364,-0.7 15.551,-0.7C15.737,-0.7 15.919,-0.659 16.077,-0.583C16.235,-0.506 16.362,-0.396 16.445,-0.266Z" fill="#FFB93E"/>
</svg>
