<svg width="34" height="26" viewBox="0 0 34 26" fill="none" xmlns="http://www.w3.org/2000/svg" xmlns:xlink="http://www.w3.org/1999/xlink">
<path d="M11.039,7.986L15.395,1.236C15.48,1.1 15.61,0.986 15.773,0.906C15.936,0.825 16.124,0.782 16.317,0.78C16.682,0.78 17.047,0.932 17.244,1.236L21.6,7.986L31.369,9.072C31.612,9.102 31.835,9.197 31.999,9.341C32.164,9.484 32.26,9.667 32.273,9.859C32.287,9.988 32.263,10.117 32.205,10.237C32.146,10.357 32.053,10.465 31.934,10.554L24.907,15.789L26.563,23.168C26.718,23.859 25.845,24.4 25.075,24.091L16.317,20.572L7.563,24.091C7.471,24.129 7.373,24.155 7.271,24.169C6.589,24.263 5.939,23.773 6.075,23.168L7.73,15.789L0.705,10.554C0.596,10.473 0.509,10.375 0.45,10.267C0.391,10.159 0.361,10.043 0.362,9.925C0.364,9.759 0.423,9.596 0.532,9.454C0.61,9.351 0.717,9.263 0.845,9.197C0.973,9.131 1.118,9.088 1.27,9.072L11.039,7.986ZM16.317,18.762C16.478,18.762 16.636,18.792 16.779,18.85L24.131,21.804L22.747,15.631C22.714,15.49 22.725,15.343 22.782,15.206C22.838,15.068 22.937,14.944 23.07,14.844L28.868,10.522L20.786,9.624C20.619,9.604 20.461,9.552 20.325,9.474C20.188,9.396 20.078,9.293 20.003,9.175L16.319,3.468L16.317,3.473L16.317,18.762Z" fill="#FFC700"/>
</svg>
