<svg width="32" height="24" viewBox="0 0 32 24" fill="none" xmlns="http://www.w3.org/2000/svg" xmlns:xlink="http://www.w3.org/1999/xlink">
<path d="M16.187,0.694L20.254,7.139L29.347,8.172C29.531,8.193 29.705,8.254 29.847,8.347C29.99,8.441 30.096,8.564 30.153,8.703C30.211,8.842 30.218,8.99 30.173,9.131C30.128,9.273 30.034,9.402 29.9,9.503L23.321,14.519L24.874,21.604C24.905,21.747 24.884,21.894 24.814,22.029C24.744,22.164 24.627,22.28 24.477,22.366C24.326,22.451 24.148,22.502 23.963,22.513C23.777,22.523 23.592,22.493 23.427,22.425L15.293,19.081L7.161,22.425C6.996,22.493 6.811,22.523 6.625,22.513C6.439,22.502 6.261,22.451 6.111,22.366C5.96,22.28 5.843,22.163 5.773,22.028C5.703,21.894 5.683,21.746 5.714,21.603L7.267,14.519L0.688,9.503C0.554,9.402 0.46,9.273 0.415,9.132C0.37,8.99 0.377,8.842 0.435,8.703C0.492,8.565 0.598,8.442 0.741,8.348C0.883,8.254 1.057,8.194 1.241,8.173L10.334,7.139L14.398,0.694C14.481,0.564 14.608,0.454 14.766,0.377C14.924,0.3 15.107,0.26 15.293,0.26C15.479,0.26 15.661,0.3 15.819,0.377C15.977,0.454 16.105,0.564 16.187,0.694Z" fill="#FFB93E"/>
</svg>
