<svg width="32" height="22" viewBox="0 0 32 22" fill="none" xmlns="http://www.w3.org/2000/svg" xmlns:xlink="http://www.w3.org/1999/xlink">
<path d="M16.446,-0.266L20.513,6.179L29.606,7.212C29.79,7.233 29.963,7.294 30.106,7.387C30.248,7.481 30.354,7.604 30.412,7.743C30.47,7.882 30.476,8.03 30.432,8.171C30.387,8.313 30.292,8.442 30.159,8.543L23.58,13.559L25.133,20.644C25.164,20.787 25.143,20.934 25.073,21.069C25.003,21.204 24.886,21.32 24.735,21.406C24.585,21.491 24.407,21.542 24.222,21.553C24.036,21.563 23.851,21.533 23.686,21.465L15.552,18.121L7.42,21.465C7.255,21.533 7.069,21.563 6.884,21.553C6.698,21.542 6.52,21.491 6.369,21.406C6.219,21.32 6.102,21.203 6.032,21.068C5.962,20.934 5.942,20.786 5.973,20.643L7.526,13.559L0.947,8.543C0.813,8.442 0.719,8.313 0.674,8.172C0.629,8.03 0.636,7.882 0.693,7.743C0.751,7.605 0.857,7.482 1,7.388C1.142,7.294 1.316,7.234 1.5,7.213L10.592,6.179L14.657,-0.266C14.74,-0.396 14.867,-0.506 15.025,-0.583C15.183,-0.659 15.365,-0.7 15.551,-0.7C15.738,-0.7 15.92,-0.659 16.078,-0.583C16.236,-0.506 16.363,-0.396 16.446,-0.266Z" fill="#FFC700"/>
</svg>
