<svg width="32" height="24" viewBox="0 0 32 24" fill="none" xmlns="http://www.w3.org/2000/svg" xmlns:xlink="http://www.w3.org/1999/xlink">
<path d="M16.181,0.694L20.249,7.139L29.341,8.172C29.525,8.193 29.699,8.254 29.841,8.347C29.984,8.441 30.09,8.564 30.147,8.703C30.205,8.842 30.212,8.99 30.167,9.131C30.122,9.273 30.028,9.402 29.894,9.503L23.315,14.519L24.868,21.604C24.899,21.747 24.878,21.894 24.808,22.029C24.738,22.164 24.621,22.28 24.471,22.366C24.32,22.451 24.142,22.502 23.957,22.513C23.771,22.523 23.586,22.493 23.421,22.425L15.288,19.081L7.155,22.425C6.99,22.493 6.805,22.523 6.619,22.513C6.434,22.502 6.255,22.451 6.105,22.366C5.954,22.28 5.837,22.163 5.767,22.028C5.697,21.894 5.677,21.746 5.708,21.603L7.262,14.519L0.682,9.503C0.549,9.402 0.454,9.273 0.409,9.132C0.364,8.99 0.371,8.842 0.429,8.703C0.486,8.565 0.592,8.442 0.735,8.348C0.878,8.254 1.051,8.194 1.235,8.173L10.328,7.139L14.393,0.694C14.475,0.564 14.602,0.454 14.76,0.377C14.918,0.3 15.101,0.26 15.287,0.26C15.473,0.26 15.655,0.3 15.813,0.377C15.971,0.454 16.099,0.564 16.181,0.694Z" fill="#FFB93E"/>
</svg>
