<svg width="40" height="32" viewBox="0 0 40 32" fill="none" xmlns="http://www.w3.org/2000/svg" xmlns:xlink="http://www.w3.org/1999/xlink">
<path d="M26,24L32,24C32.567,24 33.042,23.808 33.426,23.424C33.81,23.04 34.001,22.565 34,22L34,10C34,9.433 33.808,8.959 33.424,8.576C33.04,8.193 32.565,8.001 32,8L26,8C25.433,8 24.959,8.192 24.576,8.576C24.193,8.96 24.001,9.435 24,10L24,22C24,22.567 24.192,23.042 24.576,23.426C24.96,23.81 25.435,24.001 26,24ZM28,20L28,12L30,12L30,20L28,20ZM14,24L20,24C20.567,24 21.042,23.808 21.426,23.424C21.81,23.04 22.001,22.565 22,22L22,10C22,9.433 21.808,8.959 21.424,8.576C21.04,8.193 20.565,8.001 20,8L14,8C13.433,8 12.959,8.192 12.576,8.576C12.193,8.96 12.001,9.435 12,10L12,22C12,22.567 12.192,23.042 12.576,23.426C12.96,23.81 13.435,24.001 14,24ZM16,20L16,12L18,12L18,20L16,20ZM6,24L10,24L10,8L6,8L6,24ZM0,32L0,0L40,0L40,32L0,32Z" fill="#000000"/>
</svg>
