<svg width="32" height="22" viewBox="0 0 32 22" fill="none" xmlns="http://www.w3.org/2000/svg" xmlns:xlink="http://www.w3.org/1999/xlink">
<path d="M16.165,-0.266L20.233,6.179L29.325,7.212C29.51,7.233 29.683,7.294 29.825,7.387C29.968,7.481 30.074,7.604 30.132,7.743C30.189,7.882 30.196,8.03 30.151,8.171C30.106,8.313 30.012,8.442 29.878,8.543L23.299,13.559L24.852,20.644C24.883,20.787 24.863,20.934 24.793,21.069C24.722,21.204 24.606,21.32 24.455,21.406C24.305,21.491 24.127,21.542 23.941,21.553C23.756,21.563 23.57,21.533 23.406,21.465L15.272,18.121L7.139,21.465C6.975,21.533 6.789,21.563 6.603,21.553C6.418,21.542 6.24,21.491 6.089,21.406C5.939,21.32 5.822,21.203 5.752,21.068C5.682,20.934 5.661,20.786 5.693,20.643L7.246,13.559L0.667,8.543C0.533,8.442 0.438,8.313 0.394,8.172C0.349,8.03 0.355,7.882 0.413,7.743C0.471,7.605 0.577,7.482 0.719,7.388C0.862,7.294 1.035,7.234 1.22,7.213L10.312,6.179L14.377,-0.266C14.459,-0.396 14.587,-0.506 14.745,-0.583C14.903,-0.659 15.085,-0.7 15.271,-0.7C15.457,-0.7 15.64,-0.659 15.798,-0.583C15.956,-0.506 16.083,-0.396 16.165,-0.266Z" fill="#FFC700"/>
</svg>
