<svg width="32" height="22" viewBox="0 0 32 22" fill="none" xmlns="http://www.w3.org/2000/svg" xmlns:xlink="http://www.w3.org/1999/xlink">
<path d="M16.229,-0.266L20.308,6.179L29.425,7.212C29.61,7.233 29.784,7.294 29.927,7.387C30.07,7.481 30.176,7.604 30.234,7.743C30.292,7.882 30.298,8.03 30.253,8.171C30.209,8.313 30.114,8.442 29.98,8.543L23.383,13.559L24.94,20.644C24.971,20.787 24.951,20.934 24.88,21.069C24.81,21.204 24.693,21.32 24.542,21.406C24.391,21.491 24.212,21.542 24.026,21.553C23.84,21.563 23.654,21.533 23.489,21.465L15.333,18.121L7.179,21.465C7.013,21.533 6.827,21.563 6.641,21.553C6.455,21.542 6.276,21.491 6.125,21.406C5.974,21.32 5.857,21.203 5.787,21.068C5.717,20.934 5.696,20.786 5.728,20.643L7.285,13.559L0.688,8.543C0.554,8.442 0.459,8.313 0.414,8.172C0.369,8.03 0.376,7.882 0.434,7.743C0.492,7.605 0.598,7.482 0.741,7.388C0.884,7.294 1.058,7.234 1.243,7.213L10.36,6.179L14.436,-0.266C14.519,-0.396 14.646,-0.506 14.805,-0.583C14.963,-0.659 15.146,-0.7 15.333,-0.7C15.519,-0.7 15.702,-0.659 15.86,-0.583C16.019,-0.506 16.147,-0.396 16.229,-0.266Z" fill="#FFC700"/>
</svg>
