<svg width="46" height="42" viewBox="0 0 46 42" fill="none" xmlns="http://www.w3.org/2000/svg" xmlns:xlink="http://www.w3.org/1999/xlink">
<path d="M23.344,1.357L29.462,13.071L43.138,14.948C43.415,14.986 43.676,15.097 43.89,15.267C44.105,15.438 44.264,15.662 44.351,15.914C44.437,16.165 44.448,16.435 44.38,16.692C44.313,16.949 44.171,17.183 43.97,17.368L34.074,26.485L36.41,39.361C36.457,39.622 36.426,39.89 36.32,40.134C36.215,40.379 36.039,40.591 35.813,40.747C35.586,40.902 35.318,40.994 35.04,41.013C34.761,41.032 34.482,40.977 34.234,40.855L22,34.775L9.768,40.855C9.52,40.978 9.241,41.033 8.962,41.014C8.682,40.994 8.415,40.902 8.188,40.746C7.962,40.591 7.786,40.378 7.681,40.133C7.575,39.888 7.544,39.62 7.592,39.359L9.928,26.485L0.032,17.368C-0.169,17.184 -0.311,16.95 -0.379,16.693C-0.446,16.436 -0.436,16.166 -0.349,15.914C-0.263,15.662 -0.103,15.439 0.111,15.268C0.326,15.098 0.587,14.988 0.864,14.95L14.54,13.071L20.654,1.357C20.778,1.12 20.969,0.921 21.207,0.781C21.445,0.641 21.719,0.567 21.999,0.567C22.279,0.567 22.553,0.641 22.791,0.781C23.028,0.921 23.22,1.12 23.344,1.357Z" fill="#FFB93E"/>
</svg>
