<svg width="32" height="30" viewBox="0 0 32 30" fill="none" xmlns="http://www.w3.org/2000/svg" xmlns:xlink="http://www.w3.org/1999/xlink">
<path d="M27.25,0.75L2.75,0.75C1.822,0.75 0.932,1.084 0.275,1.677C-0.381,2.271 -0.75,3.077 -0.75,3.917L-0.75,26.083C-0.75,26.923 -0.381,27.729 0.275,28.323C0.932,28.916 1.822,29.25 2.75,29.25L27.25,29.25C28.178,29.25 29.068,28.916 29.725,28.323C30.381,27.729 30.75,26.923 30.75,26.083L30.75,3.917C30.75,3.077 30.381,2.271 29.725,1.677C29.068,1.084 28.178,0.75 27.25,0.75ZM11.5,22.917L2.75,15L5.218,12.767L11.5,18.436L24.783,6.418L27.25,8.667L11.5,22.917Z" fill="#4CAF50"/>
</svg>
