<svg width="30" height="24" viewBox="0 0 30 24" fill="none" xmlns="http://www.w3.org/2000/svg" xmlns:xlink="http://www.w3.org/1999/xlink">
<path d="M15.33,0.694L19.398,7.139L28.49,8.172C28.675,8.193 28.848,8.254 28.99,8.347C29.133,8.441 29.239,8.564 29.297,8.703C29.354,8.842 29.361,8.99 29.316,9.131C29.271,9.273 29.177,9.402 29.043,9.503L22.464,14.519L24.017,21.604C24.048,21.747 24.028,21.894 23.958,22.029C23.887,22.164 23.771,22.28 23.62,22.366C23.47,22.451 23.292,22.502 23.106,22.513C22.921,22.523 22.735,22.493 22.571,22.425L14.437,19.081L6.305,22.425C6.14,22.493 5.954,22.523 5.769,22.513C5.583,22.502 5.405,22.451 5.254,22.366C5.104,22.28 4.987,22.163 4.917,22.028C4.847,21.894 4.826,21.746 4.858,21.603L6.411,14.519L-0.168,9.503C-0.302,9.402 -0.397,9.273 -0.441,9.132C-0.486,8.99 -0.479,8.842 -0.422,8.703C-0.364,8.565 -0.258,8.442 -0.116,8.348C0.027,8.254 0.2,8.194 0.385,8.173L9.477,7.139L13.542,0.694C13.624,0.564 13.752,0.454 13.91,0.377C14.068,0.3 14.25,0.26 14.436,0.26C14.622,0.26 14.805,0.3 14.963,0.377C15.121,0.454 15.248,0.564 15.33,0.694Z" fill="#FFC700"/>
</svg>
