<svg width="30" height="22" viewBox="0 0 30 22" fill="none" xmlns="http://www.w3.org/2000/svg" xmlns:xlink="http://www.w3.org/1999/xlink">
<path d="M15.017,-0.266L19.085,6.179L28.177,7.212C28.361,7.233 28.535,7.294 28.677,7.387C28.82,7.481 28.926,7.604 28.983,7.743C29.041,7.882 29.048,8.03 29.003,8.171C28.958,8.313 28.864,8.442 28.73,8.543L22.151,13.559L23.704,20.644C23.735,20.787 23.714,20.934 23.644,21.069C23.574,21.204 23.457,21.32 23.307,21.406C23.156,21.491 22.978,21.542 22.793,21.553C22.607,21.563 22.422,21.533 22.257,21.465L14.123,18.121L5.991,21.465C5.826,21.533 5.641,21.563 5.455,21.553C5.269,21.542 5.091,21.491 4.941,21.406C4.79,21.32 4.673,21.203 4.603,21.068C4.533,20.934 4.513,20.786 4.544,20.643L6.097,13.559L-0.482,8.543C-0.616,8.442 -0.71,8.313 -0.755,8.172C-0.8,8.03 -0.793,7.882 -0.735,7.743C-0.678,7.605 -0.572,7.482 -0.429,7.388C-0.286,7.294 -0.113,7.234 0.071,7.213L9.164,6.179L13.229,-0.266C13.311,-0.396 13.438,-0.506 13.596,-0.583C13.754,-0.659 13.937,-0.7 14.123,-0.7C14.309,-0.7 14.491,-0.659 14.649,-0.583C14.807,-0.506 14.935,-0.396 15.017,-0.266Z" fill="#FFC700"/>
</svg>
