<svg width="40" height="40" viewBox="0 0 40 40" fill="none" xmlns="http://www.w3.org/2000/svg" xmlns:xlink="http://www.w3.org/1999/xlink">
<path d="M20,0C31.046,0 40,8.954 40,20C40,31.046 31.046,40 20,40C8.954,40 0,31.046 0,20C0,8.954 8.954,0 20,0ZM20,4C15.757,4 11.687,5.686 8.686,8.686C5.686,11.687 4,15.757 4,20C4,24.243 5.686,28.313 8.686,31.314C11.687,34.314 15.757,36 20,36C24.243,36 28.313,34.314 31.314,31.314C34.314,28.313 36,24.243 36,20C36,15.757 34.314,11.687 31.314,8.686C28.313,5.686 24.243,4 20,4ZM20,8C20.49,8 20.963,8.18 21.329,8.505C21.695,8.831 21.929,9.28 21.986,9.766L22,10L22,19.172L27.414,24.586C27.773,24.946 27.981,25.429 27.996,25.937C28.012,26.445 27.834,26.939 27.498,27.321C27.161,27.702 26.693,27.941 26.187,27.989C25.681,28.037 25.176,27.891 24.774,27.58L24.586,27.414L18.586,21.414C18.275,21.103 18.076,20.698 18.018,20.262L18,20L18,10C18,9.47 18.211,8.961 18.586,8.586C18.961,8.211 19.47,8 20,8Z" fill="#000000"/>
</svg>
