<svg width="200" height="134" viewBox="0 0 200 134" fill="none" xmlns="http://www.w3.org/2000/svg" xmlns:xlink="http://www.w3.org/1999/xlink">
<path d="M123.157,121.545L123.157,121.044L86.935,121.044L86.935,121.545C86.935,124.318 85.669,126.977 83.415,128.938C81.161,130.899 78.104,132 74.916,132C71.728,132 68.671,130.899 66.417,128.938C64.163,126.977 62.897,124.318 62.897,121.545L62.897,121.044L58.781,121.044C57.02,121.044 55.312,120.52 53.941,119.559C52.569,118.599 51.615,117.26 51.238,115.764L51.232,115.72L27.098,16.319L6.48,13.332C4.517,12.987 2.784,11.992 1.649,10.556C0.513,9.12 0.064,7.357 0.396,5.638C0.727,3.919 1.814,2.38 3.426,1.346C5.038,0.311 7.049,-0.138 9.035,0.094L8.997,0.088L34.799,3.828C37.942,4.296 40.407,6.364 41.065,9.015L41.071,9.059L45.446,27.011L120.71,32.467C120.268,34.425 120.015,36.68 120.002,38.99L120.002,39.001C120.002,41.096 120.205,43.148 120.584,45.15L120.552,44.935C118.719,45.551 117.246,46.695 116.361,48.153L116.342,48.191C115.327,49.811 114.949,51.675 115.267,53.499L115.26,53.455L119.806,82C120.085,83.831 121.046,85.437 122.449,86.647C123.726,87.753 125.484,88.44 127.419,88.462C127.849,88.462 128.279,88.424 128.683,88.358L128.639,88.363C130.795,87.873 132.656,86.689 133.845,85.05C135.034,83.41 135.463,81.439 135.044,79.536L135.05,79.585L132.774,65.329C140.641,72.097 151.262,75.886 162.326,75.873L162.338,75.873C162.61,75.873 162.882,75.873 163.148,75.84L163.729,75.84L159.499,97.301C159.397,97.82 159.087,98.291 158.624,98.631C158.162,98.971 157.576,99.158 156.97,99.16L62.96,99.16L65.028,107.668L154.536,107.668L154.764,107.663C156.811,107.663 158.775,108.37 160.223,109.63C161.67,110.889 162.484,112.597 162.484,114.378C162.484,116.159 161.67,117.867 160.223,119.127C158.775,120.386 156.811,121.094 154.764,121.094L154.524,121.088L154.536,121.088L147.177,121.088L147.177,121.589C147.178,122.962 146.868,124.322 146.264,125.59C145.661,126.859 144.776,128.012 143.661,128.984C142.545,129.955 141.221,130.726 139.763,131.252C138.305,131.778 136.742,132.049 135.164,132.05C133.586,132.05 132.022,131.781 130.564,131.256C129.105,130.731 127.78,129.962 126.663,128.991C125.546,128.021 124.66,126.869 124.056,125.6C123.451,124.332 123.139,122.973 123.138,121.6L123.138,121.589L123.157,121.545ZM131.743,121.545C131.74,121.959 131.836,122.368 132.025,122.748C132.214,123.128 132.492,123.469 132.842,123.75C133.191,124.03 133.604,124.244 134.055,124.378C134.505,124.512 134.982,124.562 135.456,124.526C135.93,124.49 136.39,124.368 136.806,124.168C137.223,123.968 137.587,123.695 137.875,123.365C138.163,123.036 138.369,122.658 138.479,122.255C138.589,121.853 138.601,121.435 138.515,121.028L138.515,121.044L131.794,121.044C131.762,121.206 131.747,121.37 131.75,121.534L131.743,121.545ZM71.502,121.545C71.503,121.955 71.602,122.361 71.793,122.736C71.984,123.112 72.263,123.449 72.611,123.725C72.96,124.002 73.37,124.213 73.817,124.345C74.264,124.476 74.738,124.526 75.208,124.49C75.678,124.454 76.134,124.333 76.548,124.136C76.962,123.939 77.324,123.669 77.612,123.343C77.899,123.018 78.106,122.644 78.219,122.245C78.332,121.847 78.348,121.432 78.267,121.028L78.267,121.044L71.552,121.044C71.521,121.206 71.506,121.37 71.508,121.534L71.508,121.545L71.502,121.545ZM96.615,44.699C94.459,45.183 92.596,46.362 91.403,47.998C90.21,49.633 89.777,51.601 90.191,53.504L90.185,53.455L94.731,82C95.009,83.831 95.97,85.437 97.374,86.647C98.651,87.753 100.402,88.446 102.343,88.462C102.773,88.462 103.203,88.424 103.608,88.358L103.564,88.363C105.721,87.875 107.585,86.692 108.775,85.052C109.966,83.413 110.395,81.44 109.975,79.536L109.981,79.585L105.435,51.04C105.173,49.279 104.243,47.643 102.792,46.393C101.983,45.699 100.996,45.183 99.911,44.889C98.827,44.594 97.677,44.529 96.558,44.699L96.602,44.693L96.615,44.699ZM71.533,44.699C69.38,45.185 67.52,46.366 66.33,48.001C65.139,49.635 64.708,51.603 65.122,53.504L65.116,53.455L69.662,82C69.94,83.831 70.901,85.437 72.305,86.647C73.582,87.753 75.34,88.44 77.274,88.462C77.704,88.462 78.134,88.424 78.539,88.358L78.495,88.363C80.65,87.873 82.511,86.689 83.7,85.05C84.89,83.41 85.318,81.439 84.899,79.536L84.906,79.585L80.353,51.068C80.091,49.306 79.161,47.671 77.711,46.42C76.392,45.271 74.608,44.617 72.741,44.6L72.722,44.6C72.306,44.599 71.891,44.632 71.483,44.699L71.527,44.693L71.533,44.699ZM126.439,39.023C126.439,30.737 130.222,22.791 136.957,16.933C143.692,11.074 152.826,7.783 162.351,7.783C171.876,7.783 181.01,11.074 187.745,16.933C194.48,22.791 198.263,30.737 198.263,39.023C198.263,47.31 194.479,55.257 187.743,61.117C181.007,66.976 171.871,70.268 162.345,70.268C152.818,70.268 143.682,66.976 136.946,61.117C130.21,55.257 126.426,47.31 126.426,39.023L126.439,39.023ZM136.726,39.023C136.726,44.936 139.426,50.608 144.233,54.789C149.04,58.971 155.559,61.32 162.357,61.32C169.155,61.32 175.675,58.971 180.482,54.789C185.289,50.608 187.989,44.936 187.989,39.023C187.989,33.108 185.288,27.435 180.48,23.253C175.672,19.07 169.151,16.72 162.351,16.72C155.551,16.72 149.03,19.07 144.222,23.253C139.414,27.435 136.713,33.108 136.713,39.023L136.726,39.023ZM152.089,43.494C150.724,43.494 149.415,43.023 148.45,42.183C147.485,41.343 146.943,40.205 146.943,39.017C146.943,37.83 147.485,36.691 148.45,35.852C149.415,35.012 150.724,34.54 152.089,34.54L172.575,34.54C173.94,34.54 175.249,35.012 176.214,35.852C177.179,36.691 177.721,37.83 177.721,39.017C177.721,40.205 177.179,41.343 176.214,42.183C175.249,43.023 173.94,43.494 172.575,43.494L152.089,43.494Z" fill="#8E8D8D"/>
</svg>
