<svg width="30" height="24" viewBox="0 0 30 24" fill="none" xmlns="http://www.w3.org/2000/svg" xmlns:xlink="http://www.w3.org/1999/xlink">
<path d="M15.563,0.694L19.642,7.139L28.759,8.172C28.944,8.193 29.118,8.254 29.261,8.347C29.404,8.441 29.51,8.564 29.568,8.703C29.626,8.842 29.632,8.99 29.587,9.131C29.543,9.273 29.448,9.402 29.314,9.503L22.717,14.519L24.274,21.604C24.305,21.747 24.285,21.894 24.214,22.029C24.144,22.164 24.027,22.28 23.876,22.366C23.725,22.451 23.546,22.502 23.36,22.513C23.174,22.523 22.988,22.493 22.823,22.425L14.667,19.081L6.513,22.425C6.347,22.493 6.161,22.523 5.975,22.513C5.789,22.502 5.61,22.451 5.459,22.366C5.308,22.28 5.191,22.163 5.121,22.028C5.051,21.894 5.03,21.746 5.062,21.603L6.619,14.519L0.022,9.503C-0.112,9.402 -0.207,9.273 -0.252,9.132C-0.297,8.99 -0.29,8.842 -0.232,8.703C-0.175,8.565 -0.068,8.442 0.075,8.348C0.218,8.254 0.392,8.194 0.577,8.173L9.694,7.139L13.77,0.694C13.852,0.564 13.98,0.454 14.139,0.377C14.297,0.3 14.48,0.26 14.667,0.26C14.853,0.26 15.036,0.3 15.194,0.377C15.353,0.454 15.481,0.564 15.563,0.694Z" fill="#FFC700"/>
</svg>
