<svg width="30" height="24" viewBox="0 0 30 24" fill="none" xmlns="http://www.w3.org/2000/svg" xmlns:xlink="http://www.w3.org/1999/xlink">
<path d="M15.577,0.694L19.645,7.139L28.737,8.172C28.921,8.193 29.095,8.254 29.237,8.347C29.38,8.441 29.486,8.564 29.543,8.703C29.601,8.842 29.608,8.99 29.563,9.131C29.518,9.273 29.424,9.402 29.29,9.503L22.711,14.519L24.264,21.604C24.295,21.747 24.274,21.894 24.204,22.029C24.134,22.164 24.017,22.28 23.867,22.366C23.716,22.451 23.538,22.502 23.353,22.513C23.167,22.523 22.982,22.493 22.817,22.425L14.683,19.081L6.551,22.425C6.386,22.493 6.201,22.523 6.015,22.513C5.829,22.502 5.651,22.451 5.501,22.366C5.35,22.28 5.233,22.163 5.163,22.028C5.093,21.894 5.073,21.746 5.104,21.603L6.657,14.519L0.078,9.503C-0.055,9.402 -0.15,9.273 -0.195,9.132C-0.24,8.99 -0.233,8.842 -0.175,8.703C-0.118,8.565 -0.012,8.442 0.131,8.348C0.274,8.254 0.447,8.194 0.631,8.173L9.724,7.139L13.789,0.694C13.871,0.564 13.998,0.454 14.156,0.377C14.314,0.3 14.497,0.26 14.683,0.26C14.869,0.26 15.051,0.3 15.209,0.377C15.367,0.454 15.495,0.564 15.577,0.694Z" fill="#FFC700"/>
</svg>
