<svg width="30" height="22" viewBox="0 0 30 22" fill="none" xmlns="http://www.w3.org/2000/svg" xmlns:xlink="http://www.w3.org/1999/xlink">
<path d="M15.302,-0.266L19.37,6.179L28.462,7.212C28.646,7.233 28.82,7.294 28.962,7.387C29.105,7.481 29.211,7.604 29.268,7.743C29.326,7.882 29.333,8.03 29.288,8.171C29.243,8.313 29.149,8.442 29.015,8.543L22.436,13.559L23.989,20.644C24.02,20.787 24,20.934 23.929,21.069C23.859,21.204 23.742,21.32 23.592,21.406C23.441,21.491 23.263,21.542 23.078,21.553C22.892,21.563 22.707,21.533 22.542,21.465L14.409,18.121L6.276,21.465C6.111,21.533 5.926,21.563 5.74,21.553C5.555,21.542 5.376,21.491 5.226,21.406C5.075,21.32 4.959,21.203 4.888,21.068C4.818,20.934 4.798,20.786 4.83,20.643L6.383,13.559L-0.197,8.543C-0.33,8.442 -0.425,8.313 -0.47,8.172C-0.515,8.03 -0.508,7.882 -0.45,7.743C-0.393,7.605 -0.286,7.482 -0.144,7.388C-0.001,7.294 0.172,7.234 0.356,7.213L9.449,6.179L13.514,-0.266C13.596,-0.396 13.723,-0.506 13.882,-0.583C14.04,-0.659 14.222,-0.7 14.408,-0.7C14.594,-0.7 14.776,-0.659 14.934,-0.583C15.092,-0.506 15.22,-0.396 15.302,-0.266Z" fill="#FFC700"/>
</svg>
