<svg width="60" height="56" viewBox="0 0 60 56" fill="none" xmlns="http://www.w3.org/2000/svg" xmlns:xlink="http://www.w3.org/1999/xlink">
<path d="M58.75,20C58.44,19.043 57.853,18.2 57.064,17.577C56.274,16.954 55.317,16.579 54.315,16.5L40.167,15.358L34.707,2.155C34.324,1.222 33.671,0.424 32.833,-0.138C31.995,-0.699 31.009,-0.999 30,-0.999C28.991,-0.999 28.005,-0.699 27.167,-0.138C26.328,0.424 25.676,1.222 25.292,2.155L19.837,15.36L5.69,16.5C4.685,16.583 3.728,16.961 2.938,17.586C2.147,18.212 1.559,19.057 1.248,20.015C0.936,20.974 0.915,22.003 1.187,22.974C1.459,23.944 2.011,24.813 2.775,25.47L13.57,34.78L10.27,48.705C10.029,49.687 10.086,50.718 10.433,51.667C10.781,52.617 11.403,53.441 12.22,54.036C13.038,54.63 14.013,54.968 15.024,55.007C16.034,55.045 17.032,54.781 17.892,54.25L30,46.798L42.107,54.25C42.967,54.778 43.964,55.039 44.972,54.999C45.98,54.96 46.954,54.623 47.77,54.03C48.586,53.437 49.208,52.615 49.557,51.669C49.906,50.722 49.966,49.693 49.73,48.713L46.43,34.788L57.225,25.478C57.993,24.819 58.549,23.946 58.82,22.971C59.092,21.995 59.067,20.961 58.75,20ZM41.132,31.425C40.716,31.784 40.406,32.25 40.237,32.773C40.068,33.296 40.045,33.855 40.172,34.39L43.395,48L31.572,40.73C31.1,40.439 30.555,40.285 30,40.285C29.445,40.285 28.9,40.439 28.427,40.73L16.605,48L19.827,34.4C19.954,33.865 19.932,33.306 19.763,32.783C19.593,32.26 19.284,31.794 18.867,31.435L8.3,22.31L22.15,21.193C22.701,21.148 23.229,20.953 23.676,20.627C24.123,20.301 24.471,19.859 24.682,19.348L30,6.473L35.317,19.348C35.528,19.859 35.877,20.301 36.324,20.627C36.771,20.953 37.299,21.148 37.85,21.193L51.7,22.31L41.132,31.425Z" fill="#000000"/>
</svg>
