<svg width="32" height="22" viewBox="0 0 32 22" fill="none" xmlns="http://www.w3.org/2000/svg" xmlns:xlink="http://www.w3.org/1999/xlink">
<path d="M16.731,-0.266L20.798,6.179L29.891,7.212C30.075,7.233 30.248,7.294 30.391,7.387C30.533,7.481 30.639,7.604 30.697,7.743C30.755,7.882 30.761,8.03 30.717,8.171C30.672,8.313 30.577,8.442 30.444,8.543L23.865,13.559L25.418,20.644C25.449,20.787 25.428,20.934 25.358,21.069C25.288,21.204 25.171,21.32 25.02,21.406C24.87,21.491 24.692,21.542 24.507,21.553C24.321,21.563 24.136,21.533 23.971,21.465L15.837,18.121L7.705,21.465C7.54,21.533 7.355,21.563 7.169,21.553C6.983,21.542 6.805,21.491 6.655,21.406C6.504,21.32 6.387,21.203 6.317,21.068C6.247,20.934 6.227,20.786 6.258,20.643L7.811,13.559L1.232,8.543C1.098,8.442 1.004,8.313 0.959,8.172C0.914,8.03 0.921,7.882 0.979,7.743C1.036,7.605 1.142,7.482 1.285,7.388C1.427,7.294 1.601,7.234 1.785,7.213L10.878,6.179L14.942,-0.266C15.025,-0.396 15.152,-0.506 15.31,-0.583C15.468,-0.659 15.651,-0.7 15.837,-0.7C16.023,-0.7 16.205,-0.659 16.363,-0.583C16.521,-0.506 16.648,-0.396 16.731,-0.266Z" fill="#FFC700"/>
</svg>
