<svg width="30" height="22" viewBox="0 0 30 22" fill="none" xmlns="http://www.w3.org/2000/svg" xmlns:xlink="http://www.w3.org/1999/xlink">
<path d="M15.303,-0.266L19.371,6.179L28.463,7.212C28.647,7.233 28.821,7.294 28.963,7.387C29.106,7.481 29.212,7.604 29.269,7.743C29.327,7.882 29.334,8.03 29.289,8.171C29.244,8.313 29.15,8.442 29.016,8.543L22.437,13.559L23.99,20.644C24.021,20.787 24.001,20.934 23.93,21.069C23.86,21.204 23.743,21.32 23.593,21.406C23.442,21.491 23.264,21.542 23.079,21.553C22.893,21.563 22.708,21.533 22.543,21.465L14.41,18.121L6.277,21.465C6.112,21.533 5.927,21.563 5.741,21.553C5.556,21.542 5.377,21.491 5.227,21.406C5.076,21.32 4.959,21.203 4.889,21.068C4.819,20.934 4.799,20.786 4.83,20.643L6.384,13.559L-0.196,8.543C-0.329,8.442 -0.424,8.313 -0.469,8.172C-0.514,8.03 -0.507,7.882 -0.449,7.743C-0.392,7.605 -0.285,7.482 -0.143,7.388C0,7.294 0.173,7.234 0.357,7.213L9.45,6.179L13.515,-0.266C13.597,-0.396 13.724,-0.506 13.882,-0.583C14.041,-0.659 14.223,-0.7 14.409,-0.7C14.595,-0.7 14.777,-0.659 14.935,-0.583C15.093,-0.506 15.221,-0.396 15.303,-0.266Z" fill="#FFC700"/>
</svg>
