<svg width="58" height="50" viewBox="0 0 58 50" fill="none" xmlns="http://www.w3.org/2000/svg" xmlns:xlink="http://www.w3.org/1999/xlink">
<path d="M40.5,-1C35.478,-1 31.02,0.983 28,4.39C24.98,0.983 20.522,-1 15.5,-1C11.126,-0.995 6.932,0.745 3.839,3.839C0.745,6.932 -0.995,11.126 -1,15.5C-1,33.585 25.452,48.035 26.577,48.643C27.015,48.878 27.503,49.001 28,49.001C28.497,49.001 28.985,48.878 29.423,48.643C30.548,48.035 57,33.585 57,15.5C56.995,11.126 55.255,6.932 52.161,3.839C49.068,0.745 44.874,-0.995 40.5,-1ZM39.127,34.59C35.646,37.545 31.924,40.204 28,42.54C24.076,40.204 20.354,37.545 16.873,34.59C11.455,29.943 5,22.855 5,15.5C5,12.715 6.106,10.044 8.075,8.075C10.044,6.106 12.715,5 15.5,5C19.95,5 23.675,7.35 25.222,11.135C25.448,11.687 25.832,12.159 26.327,12.491C26.822,12.824 27.404,13.001 28,13.001C28.596,13.001 29.178,12.824 29.673,12.491C30.168,12.159 30.552,11.687 30.778,11.135C32.325,7.35 36.05,5 40.5,5C43.285,5 45.955,6.106 47.925,8.075C49.894,10.044 51,12.715 51,15.5C51,22.855 44.545,29.943 39.127,34.59Z" fill="#000000"/>
</svg>
