<svg width="30" height="22" viewBox="0 0 30 22" fill="none" xmlns="http://www.w3.org/2000/svg" xmlns:xlink="http://www.w3.org/1999/xlink">
<path d="M15.593,-0.266L19.661,6.179L28.753,7.212C28.937,7.233 29.111,7.294 29.253,7.387C29.396,7.481 29.502,7.604 29.559,7.743C29.617,7.882 29.624,8.03 29.579,8.171C29.534,8.313 29.44,8.442 29.306,8.543L22.727,13.559L24.28,20.644C24.311,20.787 24.291,20.934 24.22,21.069C24.15,21.204 24.033,21.32 23.883,21.406C23.732,21.491 23.554,21.542 23.369,21.553C23.183,21.563 22.998,21.533 22.833,21.465L14.7,18.121L6.567,21.465C6.402,21.533 6.217,21.563 6.031,21.553C5.846,21.542 5.667,21.491 5.517,21.406C5.366,21.32 5.25,21.203 5.179,21.068C5.109,20.934 5.089,20.786 5.121,20.643L6.674,13.559L0.094,8.543C-0.039,8.442 -0.134,8.313 -0.179,8.172C-0.224,8.03 -0.217,7.882 -0.159,7.743C-0.102,7.605 0.005,7.482 0.147,7.388C0.29,7.294 0.463,7.234 0.647,7.213L9.74,6.179L13.805,-0.266C13.887,-0.396 14.014,-0.506 14.173,-0.583C14.331,-0.659 14.513,-0.7 14.699,-0.7C14.885,-0.7 15.067,-0.659 15.225,-0.583C15.383,-0.506 15.511,-0.396 15.593,-0.266Z" fill="#FFB93E"/>
</svg>
