<svg width="44" height="44" viewBox="0 0 44 44" fill="none" xmlns="http://www.w3.org/2000/svg" xmlns:xlink="http://www.w3.org/1999/xlink">
<path d="M22,0.667C24.829,0.667 27.542,1.791 29.542,3.791C31.543,5.792 32.667,8.505 32.667,11.334C32.667,14.163 31.543,16.876 29.542,18.876C27.542,20.877 24.829,22 22,22C19.171,22 16.458,20.877 14.457,18.876C12.457,16.876 11.333,14.163 11.333,11.334C11.333,8.505 12.457,5.792 14.457,3.791C16.458,1.791 19.171,0.667 22,0.667ZM22,6C20.585,6 19.229,6.562 18.229,7.562C17.228,8.563 16.667,9.919 16.667,11.334C16.667,12.748 17.228,14.105 18.229,15.105C19.229,16.105 20.585,16.667 22,16.667C23.414,16.667 24.771,16.105 25.771,15.105C26.771,14.105 27.333,12.748 27.333,11.334C27.333,9.919 26.771,8.563 25.771,7.562C24.771,6.562 23.414,6 22,6ZM22,24.667C29.12,24.667 43.333,28.214 43.333,35.334L43.333,43.334L0.667,43.334L0.667,35.334C0.667,28.214 14.88,24.667 22,24.667ZM22,29.734C14.08,29.734 5.733,33.627 5.733,35.334L5.733,38.267L38.267,38.267L38.267,35.334C38.267,33.627 29.92,29.734 22,29.734Z" fill="#000000"/>
</svg>
