<svg width="40" height="40" viewBox="0 0 40 40" fill="none" xmlns="http://www.w3.org/2000/svg" xmlns:xlink="http://www.w3.org/1999/xlink">
<path d="M22.156,0C22.744,0 23.27,0.366 23.468,0.914L24.88,4.828C25.386,4.954 25.82,5.08 26.188,5.212C26.59,5.356 27.108,5.574 27.748,5.872L31.036,4.132C31.304,3.99 31.612,3.939 31.912,3.986C32.212,4.033 32.488,4.176 32.7,4.394L35.592,7.384C35.976,7.782 36.084,8.364 35.868,8.872L34.326,12.486C34.582,12.956 34.786,13.358 34.942,13.694C35.11,14.06 35.318,14.564 35.566,15.214L39.16,16.754C39.7,16.984 40.034,17.524 39.998,18.102L39.734,22.252C39.716,22.522 39.619,22.78 39.456,22.995C39.292,23.21 39.069,23.373 38.814,23.462L35.41,24.672C35.312,25.142 35.21,25.544 35.102,25.884C34.928,26.409 34.729,26.926 34.506,27.432L36.216,31.212C36.337,31.478 36.369,31.775 36.309,32.06C36.248,32.346 36.098,32.604 35.88,32.798L32.628,35.702C32.414,35.892 32.147,36.013 31.862,36.047C31.577,36.082 31.289,36.028 31.036,35.894L27.684,34.118C27.16,34.396 26.618,34.641 26.064,34.852L24.6,35.4L23.3,39C23.204,39.264 23.03,39.492 22.801,39.655C22.573,39.818 22.301,39.908 22.02,39.914L18.22,40C17.932,40.008 17.649,39.926 17.409,39.766C17.169,39.605 16.985,39.375 16.882,39.106L15.35,35.052C14.827,34.873 14.31,34.68 13.798,34.472C13.379,34.291 12.967,34.095 12.562,33.886L8.762,35.51C8.512,35.617 8.236,35.649 7.967,35.601C7.699,35.554 7.451,35.43 7.252,35.244L4.44,32.606C4.231,32.41 4.088,32.154 4.032,31.873C3.977,31.592 4.011,31.301 4.13,31.04L5.764,27.48C5.547,27.058 5.345,26.629 5.16,26.192C4.944,25.657 4.744,25.117 4.56,24.57L0.98,23.48C0.689,23.392 0.435,23.21 0.258,22.963C0.081,22.716 -0.01,22.418 0,22.114L0.14,18.272C0.15,18.021 0.228,17.778 0.366,17.569C0.505,17.359 0.697,17.192 0.924,17.084L4.68,15.28C4.854,14.642 5.006,14.146 5.14,13.784C5.329,13.3 5.538,12.825 5.768,12.36L4.14,8.92C4.016,8.659 3.979,8.365 4.033,8.081C4.087,7.797 4.229,7.538 4.44,7.34L7.248,4.688C7.445,4.502 7.691,4.378 7.957,4.329C8.223,4.28 8.498,4.309 8.748,4.412L12.544,5.98C12.964,5.7 13.344,5.474 13.688,5.292C14.098,5.074 14.646,4.846 15.336,4.6L16.656,0.918C16.754,0.649 16.932,0.416 17.167,0.251C17.402,0.087 17.681,-0.001 17.968,0L22.156,0ZM20.048,14.038C16.714,14.038 14.012,16.708 14.012,20.004C14.012,23.3 16.714,25.972 20.048,25.972C23.38,25.972 26.082,23.3 26.082,20.004C26.082,16.708 23.382,14.038 20.048,14.038Z" fill="#000000"/>
</svg>
