<svg width="42" height="58" viewBox="0 0 42 58" fill="none" xmlns="http://www.w3.org/2000/svg" xmlns:xlink="http://www.w3.org/1999/xlink">
<path d="M22.996,1.313C21.663,-0.274 19.499,-0.274 18.167,1.313L1.111,21.637C-0.222,23.225 -0.222,25.804 1.111,27.391C2.443,28.979 4.607,28.979 5.94,27.391L17.175,13.99L17.175,52.961C17.175,55.209 18.7,57.026 20.586,57.026C22.473,57.026 23.998,55.209 23.998,52.961L23.998,13.99L35.233,27.379C36.566,28.966 38.73,28.966 40.062,27.379C41.395,25.791 41.395,23.212 40.062,21.624L23.006,1.301L22.996,1.313Z" transform="rotate(-180.376 20.586 28.574)" fill="#000000"/>
</svg>
