<svg width="46" height="46" viewBox="0 0 46 46" fill="none" xmlns="http://www.w3.org/2000/svg" xmlns:xlink="http://www.w3.org/1999/xlink">
<path d="M36.109,34.06C35.523,33.474 34.573,33.474 33.987,34.06C33.402,34.645 33.402,35.595 33.987,36.181L36.109,34.06ZM42.201,44.394C42.787,44.98 43.736,44.98 44.322,44.394C44.908,43.809 44.908,42.859 44.322,42.273L42.201,44.394ZM33.987,36.181L42.201,44.394L44.322,42.273L36.109,34.06L33.987,36.181ZM39.391,20.883C39.391,31.225 31.036,39.599 20.744,39.599L20.744,42.599C32.703,42.599 42.391,32.872 42.391,20.883L39.391,20.883ZM20.744,39.599C10.449,39.599 2.095,31.224 2.095,20.886L-0.905,20.886C-0.905,32.872 8.783,42.599 20.744,42.599L20.744,39.599ZM2.095,20.886C2.095,10.539 10.449,2.167 20.741,2.167L20.741,-0.833C8.783,-0.833 -0.905,8.891 -0.905,20.886L2.095,20.886ZM20.741,2.167C31.036,2.167 39.391,10.541 39.391,20.883L42.391,20.883C42.391,8.894 32.703,-0.833 20.741,-0.833L20.741,2.167Z" fill="#000000"/>
</svg>
