<svg width="30" height="24" viewBox="0 0 30 24" fill="none" xmlns="http://www.w3.org/2000/svg" xmlns:xlink="http://www.w3.org/1999/xlink">
<path d="M15.6,0.694L19.668,7.139L28.76,8.172C28.944,8.193 29.118,8.254 29.26,8.347C29.403,8.441 29.509,8.564 29.566,8.703C29.624,8.842 29.631,8.99 29.586,9.131C29.541,9.273 29.447,9.402 29.313,9.503L22.734,14.519L24.287,21.604C24.318,21.747 24.297,21.894 24.227,22.029C24.157,22.164 24.04,22.28 23.89,22.366C23.739,22.451 23.561,22.502 23.376,22.513C23.19,22.523 23.005,22.493 22.84,22.425L14.706,19.081L6.574,22.425C6.409,22.493 6.224,22.523 6.038,22.513C5.852,22.502 5.674,22.451 5.524,22.366C5.373,22.28 5.256,22.163 5.186,22.028C5.116,21.894 5.096,21.746 5.127,21.603L6.68,14.519L0.101,9.503C-0.033,9.402 -0.127,9.273 -0.172,9.132C-0.217,8.99 -0.21,8.842 -0.152,8.703C-0.095,8.565 0.011,8.442 0.154,8.348C0.297,8.254 0.47,8.194 0.654,8.173L9.747,7.139L13.812,0.694C13.894,0.564 14.021,0.454 14.179,0.377C14.337,0.3 14.52,0.26 14.706,0.26C14.892,0.26 15.074,0.3 15.232,0.377C15.39,0.454 15.518,0.564 15.6,0.694Z" fill="#FFC700"/>
</svg>
