<svg width="30" height="22" viewBox="0 0 30 22" fill="none" xmlns="http://www.w3.org/2000/svg" xmlns:xlink="http://www.w3.org/1999/xlink">
<path d="M15.583,-0.266L19.651,6.179L28.743,7.212C28.928,7.233 29.101,7.294 29.243,7.387C29.386,7.481 29.492,7.604 29.55,7.743C29.607,7.882 29.614,8.03 29.569,8.171C29.524,8.313 29.43,8.442 29.296,8.543L22.717,13.559L24.27,20.644C24.301,20.787 24.281,20.934 24.211,21.069C24.14,21.204 24.024,21.32 23.873,21.406C23.723,21.491 23.545,21.542 23.359,21.553C23.174,21.563 22.988,21.533 22.824,21.465L14.69,18.121L6.557,21.465C6.393,21.533 6.207,21.563 6.021,21.553C5.836,21.542 5.658,21.491 5.507,21.406C5.357,21.32 5.24,21.203 5.17,21.068C5.1,20.934 5.079,20.786 5.111,20.643L6.664,13.559L0.085,8.543C-0.049,8.442 -0.144,8.313 -0.189,8.172C-0.233,8.03 -0.227,7.882 -0.169,7.743C-0.111,7.605 -0.005,7.482 0.137,7.388C0.28,7.294 0.453,7.234 0.638,7.213L9.73,6.179L13.795,-0.266C13.877,-0.396 14.005,-0.506 14.163,-0.583C14.321,-0.659 14.503,-0.7 14.689,-0.7C14.875,-0.7 15.058,-0.659 15.216,-0.583C15.374,-0.506 15.501,-0.396 15.583,-0.266Z" fill="#FFC700"/>
</svg>
