<svg width="46" height="42" viewBox="0 0 46 42" fill="none" xmlns="http://www.w3.org/2000/svg" xmlns:xlink="http://www.w3.org/1999/xlink">
<path d="M23.344,1.467L29.462,13.181L43.138,15.058C43.415,15.096 43.676,15.206 43.89,15.377C44.105,15.547 44.264,15.771 44.351,16.023C44.437,16.275 44.448,16.544 44.38,16.802C44.313,17.059 44.171,17.293 43.97,17.477L34.074,26.594L36.41,39.471C36.457,39.731 36.426,39.999 36.32,40.244C36.215,40.489 36.039,40.701 35.813,40.856C35.586,41.011 35.318,41.104 35.04,41.123C34.761,41.142 34.482,41.087 34.234,40.964L22,34.885L9.768,40.964C9.52,41.087 9.241,41.142 8.962,41.123C8.682,41.104 8.415,41.011 8.188,40.856C7.962,40.7 7.786,40.488 7.681,40.243C7.575,39.998 7.544,39.729 7.592,39.469L9.928,26.594L0.032,17.477C-0.169,17.293 -0.311,17.059 -0.379,16.802C-0.446,16.545 -0.436,16.275 -0.349,16.023C-0.263,15.772 -0.103,15.548 0.111,15.378C0.326,15.207 0.587,15.097 0.864,15.06L14.54,13.181L20.654,1.467C20.778,1.23 20.969,1.03 21.207,0.89C21.445,0.751 21.719,0.677 21.999,0.677C22.279,0.677 22.553,0.751 22.791,0.89C23.028,1.03 23.22,1.23 23.344,1.467Z" fill="#FFC700"/>
</svg>
