<svg width="10" height="14" viewBox="0 0 10 14" fill="none" xmlns="http://www.w3.org/2000/svg" xmlns:xlink="http://www.w3.org/1999/xlink">
<path d="M5.291,0.626C5.182,0.486 5.033,0.407 4.879,0.407C4.724,0.407 4.575,0.486 4.466,0.626L1.162,4.863C1.106,4.932 1.062,5.014 1.031,5.106C1.001,5.197 0.984,5.295 0.984,5.395C0.983,5.494 0.998,5.593 1.027,5.685C1.057,5.777 1.1,5.861 1.155,5.931C1.21,6.001 1.275,6.057 1.347,6.095C1.418,6.132 1.495,6.151 1.573,6.15C1.65,6.149 1.727,6.129 1.798,6.089C1.869,6.05 1.934,5.993 1.988,5.922L4.295,2.964L4.295,12.881C4.295,13.079 4.356,13.27 4.466,13.41C4.575,13.551 4.724,13.63 4.879,13.63C5.033,13.63 5.182,13.551 5.291,13.41C5.401,13.27 5.462,13.079 5.462,12.881L5.462,2.964L7.769,5.922C7.879,6.058 8.027,6.134 8.18,6.132C8.333,6.13 8.48,6.051 8.588,5.913C8.696,5.774 8.758,5.586 8.759,5.39C8.76,5.193 8.701,5.004 8.595,4.863L5.291,0.626Z" transform="rotate(179.779 4.871 7.018)" fill="#000000"/>
</svg>
