<svg width="50" height="44" viewBox="0 0 50 44" fill="none" xmlns="http://www.w3.org/2000/svg" xmlns:xlink="http://www.w3.org/1999/xlink">
<path d="M16.062,12.717L22.614,0.277C22.741,0.028 22.938,-0.183 23.183,-0.331C23.427,-0.48 23.71,-0.56 24,-0.563C24.549,-0.563 25.098,-0.284 25.395,0.277L31.947,12.717L46.641,14.718C47.007,14.775 47.341,14.95 47.588,15.214C47.835,15.478 47.981,15.816 48,16.17C48.021,16.406 47.985,16.644 47.897,16.865C47.809,17.087 47.67,17.286 47.49,17.449L36.921,27.098L39.411,40.697C39.645,41.97 38.331,42.968 37.173,42.399L24,35.913L10.833,42.399C10.696,42.468 10.548,42.516 10.395,42.542C9.369,42.715 8.391,41.812 8.595,40.697L11.085,27.098L0.519,17.449C0.355,17.3 0.224,17.121 0.135,16.921C0.047,16.722 0.002,16.507 0.003,16.291C0.006,15.985 0.094,15.685 0.258,15.423C0.376,15.233 0.537,15.071 0.729,14.949C0.921,14.827 1.14,14.748 1.368,14.718L16.062,12.717ZM24,32.578C24.242,32.577 24.481,32.632 24.696,32.739L35.754,38.184L33.672,26.808C33.622,26.546 33.64,26.276 33.724,26.023C33.809,25.77 33.958,25.54 34.158,25.356L42.879,17.392L30.723,15.736C30.472,15.698 30.234,15.603 30.028,15.459C29.823,15.315 29.657,15.126 29.544,14.908L24.003,4.391L24,4.4L24,32.578Z" fill="#FFC700"/>
</svg>
