<svg width="32" height="24" viewBox="0 0 32 24" fill="none" xmlns="http://www.w3.org/2000/svg" xmlns:xlink="http://www.w3.org/1999/xlink">
<path d="M16.434,0.694L20.502,7.139L29.594,8.172C29.778,8.193 29.952,8.254 30.094,8.347C30.237,8.441 30.343,8.564 30.4,8.703C30.458,8.842 30.465,8.99 30.42,9.131C30.375,9.273 30.281,9.402 30.147,9.503L23.568,14.519L25.121,21.604C25.152,21.747 25.131,21.894 25.061,22.029C24.991,22.164 24.874,22.28 24.724,22.366C24.573,22.451 24.395,22.502 24.21,22.513C24.024,22.523 23.839,22.493 23.674,22.425L15.54,19.081L7.408,22.425C7.243,22.493 7.058,22.523 6.872,22.513C6.686,22.502 6.508,22.451 6.358,22.366C6.207,22.28 6.09,22.163 6.02,22.028C5.95,21.894 5.93,21.746 5.961,21.603L7.514,14.519L0.935,9.503C0.801,9.402 0.707,9.273 0.662,9.132C0.617,8.99 0.624,8.842 0.682,8.703C0.739,8.565 0.845,8.442 0.988,8.348C1.131,8.254 1.304,8.194 1.488,8.173L10.581,7.139L14.646,0.694C14.728,0.564 14.855,0.454 15.013,0.377C15.171,0.3 15.354,0.26 15.54,0.26C15.726,0.26 15.908,0.3 16.066,0.377C16.224,0.454 16.352,0.564 16.434,0.694Z" fill="#FFB93E"/>
</svg>
