<svg width="10" height="14" viewBox="0 0 10 14" fill="none" xmlns="http://www.w3.org/2000/svg" xmlns:xlink="http://www.w3.org/1999/xlink">
<path d="M4.91,0.644C4.8,0.504 4.651,0.425 4.497,0.425C4.342,0.425 4.193,0.504 4.084,0.644L0.78,4.869C0.724,4.938 0.68,5.02 0.649,5.111C0.619,5.202 0.603,5.3 0.602,5.399C0.601,5.499 0.616,5.597 0.645,5.689C0.675,5.78 0.718,5.864 0.773,5.934C0.828,6.004 0.893,6.06 0.965,6.097C1.037,6.135 1.113,6.154 1.191,6.153C1.269,6.152 1.345,6.131 1.416,6.092C1.488,6.053 1.552,5.996 1.606,5.925L3.913,2.975L3.913,12.865C3.913,13.063 3.974,13.253 4.084,13.393C4.193,13.533 4.342,13.612 4.497,13.612C4.652,13.612 4.8,13.533 4.91,13.393C5.019,13.253 5.081,13.063 5.081,12.865L5.081,2.975L7.387,5.925C7.497,6.061 7.645,6.136 7.798,6.134C7.951,6.133 8.098,6.054 8.206,5.916C8.314,5.777 8.376,5.59 8.377,5.394C8.378,5.198 8.319,5.01 8.213,4.869L4.91,0.644Z" transform="rotate(179.78 4.489 7.018)" fill="#000000"/>
</svg>
