<svg width="32" height="24" viewBox="0 0 32 24" fill="none" xmlns="http://www.w3.org/2000/svg" xmlns:xlink="http://www.w3.org/1999/xlink">
<path d="M16.697,0.694L20.765,7.139L29.857,8.172C30.041,8.193 30.215,8.254 30.357,8.347C30.5,8.441 30.606,8.564 30.663,8.703C30.721,8.842 30.728,8.99 30.683,9.131C30.638,9.273 30.544,9.402 30.41,9.503L23.831,14.519L25.384,21.604C25.415,21.747 25.395,21.894 25.324,22.029C25.254,22.164 25.137,22.28 24.987,22.366C24.836,22.451 24.658,22.502 24.473,22.513C24.287,22.523 24.102,22.493 23.937,22.425L15.804,19.081L7.671,22.425C7.506,22.493 7.321,22.523 7.135,22.513C6.95,22.502 6.771,22.451 6.621,22.366C6.47,22.28 6.354,22.163 6.283,22.028C6.213,21.894 6.193,21.746 6.225,21.603L7.778,14.519L1.198,9.503C1.065,9.402 0.97,9.273 0.925,9.132C0.88,8.99 0.887,8.842 0.945,8.703C1.002,8.565 1.109,8.442 1.251,8.348C1.394,8.254 1.567,8.194 1.751,8.173L10.844,7.139L14.909,0.694C14.991,0.564 15.118,0.454 15.277,0.377C15.435,0.3 15.617,0.26 15.803,0.26C15.989,0.26 16.171,0.3 16.329,0.377C16.487,0.454 16.615,0.564 16.697,0.694Z" fill="#FFB93E"/>
</svg>
