<svg width="32" height="24" viewBox="0 0 32 24" fill="none" xmlns="http://www.w3.org/2000/svg" xmlns:xlink="http://www.w3.org/1999/xlink">
<path d="M16.759,0.694L20.827,7.139L29.919,8.172C30.103,8.193 30.277,8.254 30.419,8.347C30.562,8.441 30.668,8.564 30.725,8.703C30.783,8.842 30.79,8.99 30.745,9.131C30.7,9.273 30.606,9.402 30.472,9.503L23.893,14.519L25.446,21.604C25.477,21.747 25.457,21.894 25.386,22.029C25.316,22.164 25.199,22.28 25.049,22.366C24.898,22.451 24.72,22.502 24.535,22.513C24.349,22.523 24.164,22.493 23.999,22.425L15.866,19.081L7.733,22.425C7.569,22.493 7.383,22.523 7.197,22.513C7.012,22.502 6.833,22.451 6.683,22.366C6.532,22.28 6.416,22.163 6.345,22.028C6.275,21.894 6.255,21.746 6.287,21.603L7.84,14.519L1.26,9.503C1.127,9.402 1.032,9.273 0.987,9.132C0.942,8.99 0.949,8.842 1.007,8.703C1.064,8.565 1.171,8.442 1.313,8.348C1.456,8.254 1.629,8.194 1.813,8.173L10.906,7.139L14.971,0.694C15.053,0.564 15.181,0.454 15.339,0.377C15.497,0.3 15.679,0.26 15.865,0.26C16.051,0.26 16.233,0.3 16.391,0.377C16.549,0.454 16.677,0.564 16.759,0.694Z" fill="#FFC700"/>
</svg>
