<svg width="26" height="26" viewBox="0 0 26 26" fill="none" xmlns="http://www.w3.org/2000/svg" xmlns:xlink="http://www.w3.org/1999/xlink">
<path d="M26,13C26,15.571 25.238,18.085 23.809,20.222C22.381,22.36 20.35,24.026 17.975,25.01C15.599,25.994 12.986,26.252 10.464,25.75C7.942,25.249 5.626,24.01 3.808,22.192C1.99,20.374 0.751,18.058 0.25,15.536C-0.252,13.014 0.006,10.401 0.99,8.025C1.974,5.65 3.64,3.619 5.778,2.191C7.915,0.762 10.429,0 13,0C16.447,0.004 19.751,1.375 22.188,3.812C24.625,6.249 25.996,9.553 26,13Z" fill="#000000"/>
</svg>
