<svg width="54" height="54" viewBox="0 0 54 54" fill="none" xmlns="http://www.w3.org/2000/svg" xmlns:xlink="http://www.w3.org/1999/xlink">
<path d="M25.867,42C26.8,42 27.589,41.677 28.235,41.032C28.88,40.386 29.202,39.598 29.2,38.666C29.198,37.735 28.877,36.945 28.235,36.298C27.593,35.651 26.804,35.329 25.867,35.333C24.93,35.337 24.141,35.659 23.501,36.301C22.861,36.943 22.539,37.731 22.533,38.666C22.528,39.601 22.851,40.391 23.501,41.034C24.152,41.678 24.941,42 25.867,42ZM23.467,31.733L28.4,31.733C28.4,30.266 28.567,29.111 28.901,28.266C29.236,27.422 30.18,26.266 31.733,24.8C32.889,23.644 33.8,22.544 34.467,21.498C35.133,20.453 35.467,19.198 35.467,17.733C35.467,15.244 34.556,13.333 32.733,12C30.911,10.666 28.756,10 26.267,10C23.733,10 21.678,10.666 20.101,12C18.525,13.333 17.424,14.933 16.8,16.8L21.2,18.533C21.422,17.733 21.923,16.866 22.701,15.933C23.48,15 24.669,14.533 26.267,14.533C27.689,14.533 28.756,14.922 29.467,15.701C30.178,16.48 30.533,17.335 30.533,18.266C30.533,19.155 30.267,19.989 29.733,20.768C29.2,21.546 28.533,22.268 27.733,22.933C25.778,24.666 24.578,25.977 24.133,26.866C23.689,27.755 23.467,29.377 23.467,31.733ZM26,52.666C22.311,52.666 18.845,51.967 15.6,50.568C12.356,49.169 9.533,47.268 7.133,44.866C4.733,42.465 2.834,39.642 1.435,36.4C0.036,33.157 -0.665,29.69 -0.667,26C-0.668,22.309 0.032,18.842 1.435,15.6C2.837,12.357 4.737,9.535 7.133,7.133C9.53,4.731 12.352,2.832 15.6,1.434C18.848,0.037 22.315,-0.663 26,-0.667C29.685,-0.671 33.152,0.03 36.4,1.434C39.648,2.839 42.47,4.738 44.867,7.133C47.263,9.528 49.164,12.35 50.568,15.6C51.973,18.849 52.672,22.316 52.667,26C52.661,29.683 51.961,33.15 50.565,36.4C49.17,39.649 47.27,42.472 44.867,44.866C42.463,47.261 39.641,49.161 36.4,50.568C33.159,51.974 29.693,52.673 26,52.666ZM26,47.333C31.956,47.333 37,45.266 41.133,41.133C45.267,37 47.333,31.955 47.333,26C47.333,20.044 45.267,15 41.133,10.866C37,6.733 31.956,4.666 26,4.666C20.045,4.666 15,6.733 10.867,10.866C6.733,15 4.667,20.044 4.667,26C4.667,31.955 6.733,37 10.867,41.133C15,45.266 20.045,47.333 26,47.333Z" fill="#000000"/>
</svg>
