<svg width="8" height="14" viewBox="0 0 8 14" fill="none" xmlns="http://www.w3.org/2000/svg" xmlns:xlink="http://www.w3.org/1999/xlink">
<path d="M3.789,0.644C3.68,0.504 3.531,0.425 3.377,0.425C3.222,0.425 3.073,0.504 2.964,0.644L-0.34,4.869C-0.396,4.938 -0.44,5.02 -0.471,5.111C-0.501,5.202 -0.518,5.3 -0.518,5.399C-0.519,5.499 -0.504,5.597 -0.475,5.689C-0.445,5.78 -0.402,5.864 -0.347,5.934C-0.292,6.004 -0.227,6.06 -0.155,6.097C-0.084,6.135 -0.007,6.154 0.071,6.153C0.148,6.152 0.225,6.131 0.296,6.092C0.368,6.053 0.432,5.996 0.486,5.925L2.793,2.975L2.793,12.865C2.793,13.063 2.854,13.253 2.964,13.393C3.073,13.533 3.222,13.612 3.377,13.612C3.531,13.612 3.68,13.533 3.789,13.393C3.899,13.253 3.961,13.063 3.961,12.865L3.961,2.975L6.267,5.925C6.377,6.061 6.525,6.136 6.678,6.134C6.831,6.133 6.978,6.054 7.086,5.916C7.194,5.777 7.256,5.59 7.257,5.394C7.258,5.198 7.199,5.01 7.093,4.869L3.789,0.644Z" transform="rotate(179.78 3.369 7.018)" fill="#000000"/>
</svg>
