<svg width="36" height="40" viewBox="0 0 36 40" fill="none" xmlns="http://www.w3.org/2000/svg" xmlns:xlink="http://www.w3.org/1999/xlink">
<path d="M0,17.978C0,8.049 8.059,0 18,0C27.941,0 36,8.049 36,17.978L36,27.243C36,30.202 33.444,32.36 30.6,32.36L25.2,32.36L25.2,17.978L32.4,17.978C32.4,14.163 30.883,10.505 28.182,7.808C25.482,5.111 21.819,3.595 18,3.595C14.181,3.595 10.518,5.111 7.818,7.808C5.117,10.505 3.6,14.163 3.6,17.978L10.8,17.978L10.8,32.36L7.313,32.36C7.513,33.132 7.964,33.815 8.595,34.303C9.226,34.792 10.002,35.056 10.8,35.056L13.615,35.056C14.184,34.242 15.129,33.708 16.2,33.708L19.8,33.708C20.635,33.708 21.437,34.039 22.027,34.629C22.618,35.219 22.95,36.02 22.95,36.854C22.95,37.688 22.618,38.489 22.027,39.079C21.437,39.669 20.635,40 19.8,40L16.2,40C15.129,40 14.184,39.466 13.615,38.652L10.8,38.652C8.996,38.652 7.258,37.976 5.929,36.757C4.601,35.539 3.779,33.867 3.625,32.072C1.573,31.394 0,29.566 0,27.245L0,17.978ZM7.2,28.764L7.2,21.573L3.6,21.573L3.6,27.243C3.6,27.95 4.266,28.764 5.4,28.764L7.2,28.764ZM32.4,21.573L28.8,21.573L28.8,28.764L30.6,28.764C31.734,28.764 32.4,27.95 32.4,27.243L32.4,21.573Z" fill="#000000"/>
</svg>
